{
	"asset":{
		"generator":"Khronos glTF Blender I/O v5.1.19",
		"version":"2.0"
	},
	"scene":0,
	"scenes":[
		{
			"name":"Scene",
			"nodes":[
				11
			]
		}
	],
	"nodes":[
		{
			"name":"Head",
			"rotation":[
				9.381020049659128e-08,
				-1.5544289411195678e-08,
				0.3013894557952881,
				0.9535011649131775
			],
			"translation":[
				-1.0665098670870066e-06,
				0.4476972818374634,
				-3.922849600712652e-09
			]
		},
		{
			"children":[
				0
			],
			"name":"\u041a\u043e\u0441\u0442\u044c.002",
			"rotation":[
				8.918484439845997e-08,
				2.001806542750728e-08,
				0.28238773345947266,
				0.9593003988265991
			],
			"scale":[
				0.9999998211860657,
				0.9999998211860657,
				1
			],
			"translation":[
				5.432374905467441e-07,
				1.8566529750823975,
				6.121240403444972e-09
			]
		},
		{
			"name":"\u041a\u043e\u0441\u0442\u044c.007",
			"rotation":[
				-0.13419541716575623,
				0.0002964116574730724,
				0.010840293020009995,
				0.9908955693244934
			],
			"scale":[
				1,
				0.9999999403953552,
				0.9999998807907104
			],
			"translation":[
				6.258487701416016e-07,
				1.1145559549331665,
				1.5124678611755371e-06
			]
		},
		{
			"children":[
				2
			],
			"name":"\u041a\u043e\u0441\u0442\u044c.006",
			"rotation":[
				-0.008105305023491383,
				-0.004139722790569067,
				0.05437730625271797,
				0.9984790086746216
			],
			"scale":[
				0.9999999403953552,
				1,
				0.9999998807907104
			],
			"translation":[
				5.234032869338989e-07,
				1.521042823791504,
				8.121132850646973e-07
			]
		},
		{
			"children":[
				3
			],
			"name":"\u041a\u043e\u0441\u0442\u044c.004",
			"rotation":[
				-0.9420397877693176,
				-0.03929341584444046,
				0.007790814153850079,
				0.3331012427806854
			],
			"scale":[
				0.9999999403953552,
				1,
				1.000000238418579
			],
			"translation":[
				-0.17408236861228943,
				1.483306646347046,
				-1.080184817314148
			]
		},
		{
			"name":"\u041a\u043e\u0441\u0442\u044c.009",
			"rotation":[
				0.05489574372768402,
				0.005456747952848673,
				0.05619794875383377,
				0.9968944191932678
			],
			"scale":[
				0.9999999403953552,
				0.9999998211860657,
				1
			],
			"translation":[
				7.450580596923828e-08,
				0.8635949492454529,
				-2.3543834686279297e-06
			]
		},
		{
			"children":[
				5
			],
			"name":"\u041a\u043e\u0441\u0442\u044c.008",
			"rotation":[
				0.07554683834314346,
				0.006602772045880556,
				-0.03284810483455658,
				0.9965791702270508
			],
			"translation":[
				5.811452865600586e-07,
				1.483675479888916,
				-1.385807991027832e-06
			]
		},
		{
			"children":[
				6
			],
			"name":"\u041a\u043e\u0441\u0442\u044c.005",
			"rotation":[
				0.9330346584320068,
				-0.0024928816128522158,
				0.03459863364696503,
				0.3581104576587677
			],
			"scale":[
				0.9999999403953552,
				0.9999999403953552,
				0.9999999403953552
			],
			"translation":[
				-0.049133315682411194,
				1.4019219875335693,
				1.070453405380249
			]
		},
		{
			"children":[
				1,
				4,
				7
			],
			"name":"\u041a\u043e\u0441\u0442\u044c.001",
			"rotation":[
				1.361947621347781e-08,
				-8.337639911815131e-08,
				0.0537906289100647,
				0.9985522031784058
			],
			"translation":[
				2.7974131455721363e-08,
				1.8799362182617188,
				2.943510712949404e-10
			]
		},
		{
			"children":[
				8
			],
			"name":"\u041a\u043e\u0441\u0442\u044c",
			"rotation":[
				0,
				-1.766904134115066e-08,
				-1.766904134115066e-08,
				1
			],
			"translation":[
				2.058345671684947e-08,
				4.838204148427394e-08,
				0
			]
		},
		{
			"extras":{
				"asset_bridge":{}
			},
			"mesh":0,
			"name":"Bleach",
			"skin":0
		},
		{
			"children":[
				10,
				9
			],
			"name":"Bleach_skeleton",
			"rotation":[
				0,
				0,
				-0.7071068286895752,
				0.7071068286895752
			],
			"translation":[
				-36.833274841308594,
				0.6408395767211914,
				0.03345823287963867
			]
		}
	],
	"animations":[
		{
			"channels":[
				{
					"sampler":0,
					"target":{
						"node":9,
						"path":"translation"
					}
				},
				{
					"sampler":1,
					"target":{
						"node":9,
						"path":"rotation"
					}
				},
				{
					"sampler":2,
					"target":{
						"node":9,
						"path":"scale"
					}
				},
				{
					"sampler":3,
					"target":{
						"node":8,
						"path":"translation"
					}
				},
				{
					"sampler":4,
					"target":{
						"node":8,
						"path":"rotation"
					}
				},
				{
					"sampler":5,
					"target":{
						"node":8,
						"path":"scale"
					}
				},
				{
					"sampler":6,
					"target":{
						"node":1,
						"path":"translation"
					}
				},
				{
					"sampler":7,
					"target":{
						"node":1,
						"path":"rotation"
					}
				},
				{
					"sampler":8,
					"target":{
						"node":1,
						"path":"scale"
					}
				},
				{
					"sampler":9,
					"target":{
						"node":0,
						"path":"translation"
					}
				},
				{
					"sampler":10,
					"target":{
						"node":0,
						"path":"rotation"
					}
				},
				{
					"sampler":11,
					"target":{
						"node":0,
						"path":"scale"
					}
				},
				{
					"sampler":12,
					"target":{
						"node":4,
						"path":"translation"
					}
				},
				{
					"sampler":13,
					"target":{
						"node":4,
						"path":"rotation"
					}
				},
				{
					"sampler":14,
					"target":{
						"node":4,
						"path":"scale"
					}
				},
				{
					"sampler":15,
					"target":{
						"node":3,
						"path":"translation"
					}
				},
				{
					"sampler":16,
					"target":{
						"node":3,
						"path":"rotation"
					}
				},
				{
					"sampler":17,
					"target":{
						"node":3,
						"path":"scale"
					}
				},
				{
					"sampler":18,
					"target":{
						"node":2,
						"path":"translation"
					}
				},
				{
					"sampler":19,
					"target":{
						"node":2,
						"path":"rotation"
					}
				},
				{
					"sampler":20,
					"target":{
						"node":2,
						"path":"scale"
					}
				},
				{
					"sampler":21,
					"target":{
						"node":7,
						"path":"translation"
					}
				},
				{
					"sampler":22,
					"target":{
						"node":7,
						"path":"rotation"
					}
				},
				{
					"sampler":23,
					"target":{
						"node":7,
						"path":"scale"
					}
				},
				{
					"sampler":24,
					"target":{
						"node":6,
						"path":"translation"
					}
				},
				{
					"sampler":25,
					"target":{
						"node":6,
						"path":"rotation"
					}
				},
				{
					"sampler":26,
					"target":{
						"node":6,
						"path":"scale"
					}
				},
				{
					"sampler":27,
					"target":{
						"node":5,
						"path":"translation"
					}
				},
				{
					"sampler":28,
					"target":{
						"node":5,
						"path":"rotation"
					}
				},
				{
					"sampler":29,
					"target":{
						"node":5,
						"path":"scale"
					}
				}
			],
			"name":"Bleach_jump",
			"samplers":[
				{
					"input":13,
					"interpolation":"LINEAR",
					"output":14
				},
				{
					"input":15,
					"interpolation":"STEP",
					"output":16
				},
				{
					"input":15,
					"interpolation":"STEP",
					"output":17
				},
				{
					"input":15,
					"interpolation":"LINEAR",
					"output":18
				},
				{
					"input":15,
					"interpolation":"STEP",
					"output":19
				},
				{
					"input":15,
					"interpolation":"STEP",
					"output":20
				},
				{
					"input":15,
					"interpolation":"LINEAR",
					"output":21
				},
				{
					"input":15,
					"interpolation":"STEP",
					"output":22
				},
				{
					"input":15,
					"interpolation":"STEP",
					"output":23
				},
				{
					"input":15,
					"interpolation":"LINEAR",
					"output":24
				},
				{
					"input":15,
					"interpolation":"STEP",
					"output":25
				},
				{
					"input":15,
					"interpolation":"STEP",
					"output":26
				},
				{
					"input":15,
					"interpolation":"LINEAR",
					"output":27
				},
				{
					"input":13,
					"interpolation":"LINEAR",
					"output":28
				},
				{
					"input":15,
					"interpolation":"LINEAR",
					"output":29
				},
				{
					"input":15,
					"interpolation":"LINEAR",
					"output":30
				},
				{
					"input":13,
					"interpolation":"LINEAR",
					"output":31
				},
				{
					"input":15,
					"interpolation":"LINEAR",
					"output":32
				},
				{
					"input":15,
					"interpolation":"LINEAR",
					"output":33
				},
				{
					"input":13,
					"interpolation":"LINEAR",
					"output":34
				},
				{
					"input":15,
					"interpolation":"LINEAR",
					"output":35
				},
				{
					"input":15,
					"interpolation":"LINEAR",
					"output":36
				},
				{
					"input":13,
					"interpolation":"LINEAR",
					"output":37
				},
				{
					"input":15,
					"interpolation":"STEP",
					"output":38
				},
				{
					"input":15,
					"interpolation":"LINEAR",
					"output":39
				},
				{
					"input":13,
					"interpolation":"LINEAR",
					"output":40
				},
				{
					"input":15,
					"interpolation":"LINEAR",
					"output":41
				},
				{
					"input":15,
					"interpolation":"LINEAR",
					"output":42
				},
				{
					"input":13,
					"interpolation":"LINEAR",
					"output":43
				},
				{
					"input":15,
					"interpolation":"LINEAR",
					"output":44
				}
			]
		},
		{
			"channels":[
				{
					"sampler":0,
					"target":{
						"node":9,
						"path":"translation"
					}
				},
				{
					"sampler":1,
					"target":{
						"node":9,
						"path":"rotation"
					}
				},
				{
					"sampler":2,
					"target":{
						"node":9,
						"path":"scale"
					}
				},
				{
					"sampler":3,
					"target":{
						"node":8,
						"path":"translation"
					}
				},
				{
					"sampler":4,
					"target":{
						"node":8,
						"path":"rotation"
					}
				},
				{
					"sampler":5,
					"target":{
						"node":8,
						"path":"scale"
					}
				},
				{
					"sampler":6,
					"target":{
						"node":1,
						"path":"translation"
					}
				},
				{
					"sampler":7,
					"target":{
						"node":1,
						"path":"rotation"
					}
				},
				{
					"sampler":8,
					"target":{
						"node":1,
						"path":"scale"
					}
				},
				{
					"sampler":9,
					"target":{
						"node":0,
						"path":"translation"
					}
				},
				{
					"sampler":10,
					"target":{
						"node":0,
						"path":"rotation"
					}
				},
				{
					"sampler":11,
					"target":{
						"node":0,
						"path":"scale"
					}
				},
				{
					"sampler":12,
					"target":{
						"node":4,
						"path":"translation"
					}
				},
				{
					"sampler":13,
					"target":{
						"node":4,
						"path":"rotation"
					}
				},
				{
					"sampler":14,
					"target":{
						"node":4,
						"path":"scale"
					}
				},
				{
					"sampler":15,
					"target":{
						"node":3,
						"path":"translation"
					}
				},
				{
					"sampler":16,
					"target":{
						"node":3,
						"path":"rotation"
					}
				},
				{
					"sampler":17,
					"target":{
						"node":3,
						"path":"scale"
					}
				},
				{
					"sampler":18,
					"target":{
						"node":2,
						"path":"translation"
					}
				},
				{
					"sampler":19,
					"target":{
						"node":2,
						"path":"rotation"
					}
				},
				{
					"sampler":20,
					"target":{
						"node":2,
						"path":"scale"
					}
				},
				{
					"sampler":21,
					"target":{
						"node":7,
						"path":"translation"
					}
				},
				{
					"sampler":22,
					"target":{
						"node":7,
						"path":"rotation"
					}
				},
				{
					"sampler":23,
					"target":{
						"node":7,
						"path":"scale"
					}
				},
				{
					"sampler":24,
					"target":{
						"node":6,
						"path":"translation"
					}
				},
				{
					"sampler":25,
					"target":{
						"node":6,
						"path":"rotation"
					}
				},
				{
					"sampler":26,
					"target":{
						"node":6,
						"path":"scale"
					}
				},
				{
					"sampler":27,
					"target":{
						"node":5,
						"path":"translation"
					}
				},
				{
					"sampler":28,
					"target":{
						"node":5,
						"path":"rotation"
					}
				},
				{
					"sampler":29,
					"target":{
						"node":5,
						"path":"scale"
					}
				}
			],
			"name":"Bleach_kill",
			"samplers":[
				{
					"input":45,
					"interpolation":"LINEAR",
					"output":46
				},
				{
					"input":45,
					"interpolation":"LINEAR",
					"output":47
				},
				{
					"input":48,
					"interpolation":"STEP",
					"output":49
				},
				{
					"input":48,
					"interpolation":"LINEAR",
					"output":50
				},
				{
					"input":48,
					"interpolation":"LINEAR",
					"output":51
				},
				{
					"input":48,
					"interpolation":"STEP",
					"output":52
				},
				{
					"input":48,
					"interpolation":"LINEAR",
					"output":53
				},
				{
					"input":48,
					"interpolation":"STEP",
					"output":54
				},
				{
					"input":48,
					"interpolation":"STEP",
					"output":55
				},
				{
					"input":48,
					"interpolation":"LINEAR",
					"output":56
				},
				{
					"input":48,
					"interpolation":"LINEAR",
					"output":57
				},
				{
					"input":48,
					"interpolation":"STEP",
					"output":58
				},
				{
					"input":48,
					"interpolation":"LINEAR",
					"output":59
				},
				{
					"input":45,
					"interpolation":"LINEAR",
					"output":60
				},
				{
					"input":48,
					"interpolation":"LINEAR",
					"output":61
				},
				{
					"input":48,
					"interpolation":"LINEAR",
					"output":62
				},
				{
					"input":45,
					"interpolation":"LINEAR",
					"output":63
				},
				{
					"input":48,
					"interpolation":"LINEAR",
					"output":64
				},
				{
					"input":48,
					"interpolation":"LINEAR",
					"output":65
				},
				{
					"input":45,
					"interpolation":"LINEAR",
					"output":66
				},
				{
					"input":48,
					"interpolation":"LINEAR",
					"output":67
				},
				{
					"input":48,
					"interpolation":"LINEAR",
					"output":68
				},
				{
					"input":45,
					"interpolation":"LINEAR",
					"output":69
				},
				{
					"input":48,
					"interpolation":"LINEAR",
					"output":70
				},
				{
					"input":48,
					"interpolation":"LINEAR",
					"output":71
				},
				{
					"input":45,
					"interpolation":"LINEAR",
					"output":72
				},
				{
					"input":48,
					"interpolation":"STEP",
					"output":73
				},
				{
					"input":48,
					"interpolation":"LINEAR",
					"output":74
				},
				{
					"input":45,
					"interpolation":"LINEAR",
					"output":75
				},
				{
					"input":48,
					"interpolation":"LINEAR",
					"output":76
				}
			]
		},
		{
			"channels":[
				{
					"sampler":0,
					"target":{
						"node":9,
						"path":"translation"
					}
				},
				{
					"sampler":1,
					"target":{
						"node":9,
						"path":"rotation"
					}
				},
				{
					"sampler":2,
					"target":{
						"node":9,
						"path":"scale"
					}
				},
				{
					"sampler":3,
					"target":{
						"node":8,
						"path":"translation"
					}
				},
				{
					"sampler":4,
					"target":{
						"node":8,
						"path":"rotation"
					}
				},
				{
					"sampler":5,
					"target":{
						"node":8,
						"path":"scale"
					}
				},
				{
					"sampler":6,
					"target":{
						"node":1,
						"path":"translation"
					}
				},
				{
					"sampler":7,
					"target":{
						"node":1,
						"path":"rotation"
					}
				},
				{
					"sampler":8,
					"target":{
						"node":1,
						"path":"scale"
					}
				},
				{
					"sampler":9,
					"target":{
						"node":0,
						"path":"translation"
					}
				},
				{
					"sampler":10,
					"target":{
						"node":0,
						"path":"rotation"
					}
				},
				{
					"sampler":11,
					"target":{
						"node":0,
						"path":"scale"
					}
				},
				{
					"sampler":12,
					"target":{
						"node":4,
						"path":"translation"
					}
				},
				{
					"sampler":13,
					"target":{
						"node":4,
						"path":"rotation"
					}
				},
				{
					"sampler":14,
					"target":{
						"node":4,
						"path":"scale"
					}
				},
				{
					"sampler":15,
					"target":{
						"node":3,
						"path":"translation"
					}
				},
				{
					"sampler":16,
					"target":{
						"node":3,
						"path":"rotation"
					}
				},
				{
					"sampler":17,
					"target":{
						"node":3,
						"path":"scale"
					}
				},
				{
					"sampler":18,
					"target":{
						"node":2,
						"path":"translation"
					}
				},
				{
					"sampler":19,
					"target":{
						"node":2,
						"path":"rotation"
					}
				},
				{
					"sampler":20,
					"target":{
						"node":2,
						"path":"scale"
					}
				},
				{
					"sampler":21,
					"target":{
						"node":7,
						"path":"translation"
					}
				},
				{
					"sampler":22,
					"target":{
						"node":7,
						"path":"rotation"
					}
				},
				{
					"sampler":23,
					"target":{
						"node":7,
						"path":"scale"
					}
				},
				{
					"sampler":24,
					"target":{
						"node":6,
						"path":"translation"
					}
				},
				{
					"sampler":25,
					"target":{
						"node":6,
						"path":"rotation"
					}
				},
				{
					"sampler":26,
					"target":{
						"node":6,
						"path":"scale"
					}
				},
				{
					"sampler":27,
					"target":{
						"node":5,
						"path":"translation"
					}
				},
				{
					"sampler":28,
					"target":{
						"node":5,
						"path":"rotation"
					}
				},
				{
					"sampler":29,
					"target":{
						"node":5,
						"path":"scale"
					}
				}
			],
			"name":"Bleach_moving",
			"samplers":[
				{
					"input":77,
					"interpolation":"STEP",
					"output":78
				},
				{
					"input":77,
					"interpolation":"STEP",
					"output":16
				},
				{
					"input":77,
					"interpolation":"STEP",
					"output":17
				},
				{
					"input":77,
					"interpolation":"STEP",
					"output":79
				},
				{
					"input":77,
					"interpolation":"STEP",
					"output":19
				},
				{
					"input":77,
					"interpolation":"STEP",
					"output":20
				},
				{
					"input":77,
					"interpolation":"STEP",
					"output":80
				},
				{
					"input":77,
					"interpolation":"STEP",
					"output":22
				},
				{
					"input":77,
					"interpolation":"STEP",
					"output":23
				},
				{
					"input":77,
					"interpolation":"STEP",
					"output":81
				},
				{
					"input":77,
					"interpolation":"STEP",
					"output":25
				},
				{
					"input":77,
					"interpolation":"STEP",
					"output":26
				},
				{
					"input":77,
					"interpolation":"STEP",
					"output":82
				},
				{
					"input":83,
					"interpolation":"LINEAR",
					"output":84
				},
				{
					"input":77,
					"interpolation":"LINEAR",
					"output":85
				},
				{
					"input":77,
					"interpolation":"LINEAR",
					"output":86
				},
				{
					"input":83,
					"interpolation":"LINEAR",
					"output":87
				},
				{
					"input":77,
					"interpolation":"LINEAR",
					"output":88
				},
				{
					"input":77,
					"interpolation":"LINEAR",
					"output":89
				},
				{
					"input":83,
					"interpolation":"LINEAR",
					"output":90
				},
				{
					"input":77,
					"interpolation":"LINEAR",
					"output":91
				},
				{
					"input":77,
					"interpolation":"LINEAR",
					"output":92
				},
				{
					"input":83,
					"interpolation":"LINEAR",
					"output":93
				},
				{
					"input":77,
					"interpolation":"LINEAR",
					"output":94
				},
				{
					"input":77,
					"interpolation":"LINEAR",
					"output":95
				},
				{
					"input":83,
					"interpolation":"LINEAR",
					"output":96
				},
				{
					"input":77,
					"interpolation":"LINEAR",
					"output":97
				},
				{
					"input":77,
					"interpolation":"LINEAR",
					"output":98
				},
				{
					"input":83,
					"interpolation":"LINEAR",
					"output":99
				},
				{
					"input":77,
					"interpolation":"LINEAR",
					"output":100
				}
			]
		}
	],
	"materials":[
		{
			"doubleSided":true,
			"name":"Bleach",
			"pbrMetallicRoughness":{
				"baseColorTexture":{
					"index":0
				},
				"metallicFactor":0,
				"roughnessFactor":0.5
			}
		},
		{
			"doubleSided":true,
			"emissiveFactor":[
				1,
				1,
				1
			],
			"name":"Bleach_eyes",
			"pbrMetallicRoughness":{
				"baseColorFactor":[
					0.800000011920929,
					0.800000011920929,
					0.800000011920929,
					1
				],
				"metallicFactor":0
			}
		}
	],
	"meshes":[
		{
			"name":"\u041a\u0443\u0431.007",
			"primitives":[
				{
					"attributes":{
						"POSITION":0,
						"NORMAL":1,
						"TEXCOORD_0":2,
						"JOINTS_0":3,
						"WEIGHTS_0":4
					},
					"indices":5,
					"material":0
				},
				{
					"attributes":{
						"POSITION":6,
						"NORMAL":7,
						"TEXCOORD_0":8,
						"JOINTS_0":9,
						"WEIGHTS_0":10
					},
					"indices":11,
					"material":1
				}
			]
		}
	],
	"textures":[
		{
			"sampler":0,
			"source":0
		}
	],
	"images":[
		{
			"mimeType":"image/png",
			"name":"Bleach_txtr",
			"uri":"../../models/enemies/textures/Bleach_txtr.png"
		}
	],
	"skins":[
		{
			"inverseBindMatrices":12,
			"joints":[
				9,
				8,
				1,
				0,
				4,
				3,
				2,
				7,
				6,
				5
			],
			"name":"Bleach_skeleton"
		}
	],
	"accessors":[
		{
			"bufferView":0,
			"componentType":5126,
			"count":1416,
			"max":[
				-31.847675323486328,
				2.586411476135254,
				3.279885768890381
			],
			"min":[
				-39.15865707397461,
				-0.05169254541397095,
				-3.198819637298584
			],
			"type":"VEC3"
		},
		{
			"bufferView":1,
			"componentType":5126,
			"count":1416,
			"type":"VEC3"
		},
		{
			"bufferView":2,
			"componentType":5126,
			"count":1416,
			"type":"VEC2"
		},
		{
			"bufferView":3,
			"componentType":5121,
			"count":1416,
			"type":"VEC4"
		},
		{
			"bufferView":4,
			"componentType":5126,
			"count":1416,
			"type":"VEC4"
		},
		{
			"bufferView":5,
			"componentType":5123,
			"count":3204,
			"type":"SCALAR"
		},
		{
			"bufferView":6,
			"componentType":5126,
			"count":8,
			"max":[
				-31.85795021057129,
				2.0730152130126953,
				0.7110317945480347
			],
			"min":[
				-31.86731719970703,
				1.7335057258605957,
				-0.2819117605686188
			],
			"type":"VEC3"
		},
		{
			"bufferView":7,
			"componentType":5126,
			"count":8,
			"type":"VEC3"
		},
		{
			"bufferView":8,
			"componentType":5126,
			"count":8,
			"type":"VEC2"
		},
		{
			"bufferView":9,
			"componentType":5121,
			"count":8,
			"type":"VEC4"
		},
		{
			"bufferView":10,
			"componentType":5126,
			"count":8,
			"type":"VEC4"
		},
		{
			"bufferView":11,
			"componentType":5123,
			"count":12,
			"type":"SCALAR"
		},
		{
			"bufferView":12,
			"componentType":5126,
			"count":10,
			"type":"MAT4"
		},
		{
			"bufferView":13,
			"componentType":5126,
			"count":36,
			"max":[
				1.5
			],
			"min":[
				0.041666666666666664
			],
			"type":"SCALAR"
		},
		{
			"bufferView":14,
			"componentType":5126,
			"count":36,
			"type":"VEC3"
		},
		{
			"bufferView":15,
			"componentType":5126,
			"count":2,
			"max":[
				1.5
			],
			"min":[
				0.041666666666666664
			],
			"type":"SCALAR"
		},
		{
			"bufferView":16,
			"componentType":5126,
			"count":2,
			"type":"VEC4"
		},
		{
			"bufferView":17,
			"componentType":5126,
			"count":2,
			"type":"VEC3"
		},
		{
			"bufferView":18,
			"componentType":5126,
			"count":2,
			"type":"VEC3"
		},
		{
			"bufferView":19,
			"componentType":5126,
			"count":2,
			"type":"VEC4"
		},
		{
			"bufferView":20,
			"componentType":5126,
			"count":2,
			"type":"VEC3"
		},
		{
			"bufferView":21,
			"componentType":5126,
			"count":2,
			"type":"VEC3"
		},
		{
			"bufferView":22,
			"componentType":5126,
			"count":2,
			"type":"VEC4"
		},
		{
			"bufferView":23,
			"componentType":5126,
			"count":2,
			"type":"VEC3"
		},
		{
			"bufferView":24,
			"componentType":5126,
			"count":2,
			"type":"VEC3"
		},
		{
			"bufferView":25,
			"componentType":5126,
			"count":2,
			"type":"VEC4"
		},
		{
			"bufferView":26,
			"componentType":5126,
			"count":2,
			"type":"VEC3"
		},
		{
			"bufferView":27,
			"componentType":5126,
			"count":2,
			"type":"VEC3"
		},
		{
			"bufferView":28,
			"componentType":5126,
			"count":36,
			"type":"VEC4"
		},
		{
			"bufferView":29,
			"componentType":5126,
			"count":2,
			"type":"VEC3"
		},
		{
			"bufferView":30,
			"componentType":5126,
			"count":2,
			"type":"VEC3"
		},
		{
			"bufferView":31,
			"componentType":5126,
			"count":36,
			"type":"VEC4"
		},
		{
			"bufferView":32,
			"componentType":5126,
			"count":2,
			"type":"VEC3"
		},
		{
			"bufferView":33,
			"componentType":5126,
			"count":2,
			"type":"VEC3"
		},
		{
			"bufferView":34,
			"componentType":5126,
			"count":36,
			"type":"VEC4"
		},
		{
			"bufferView":35,
			"componentType":5126,
			"count":2,
			"type":"VEC3"
		},
		{
			"bufferView":36,
			"componentType":5126,
			"count":2,
			"type":"VEC3"
		},
		{
			"bufferView":37,
			"componentType":5126,
			"count":36,
			"type":"VEC4"
		},
		{
			"bufferView":38,
			"componentType":5126,
			"count":2,
			"type":"VEC3"
		},
		{
			"bufferView":39,
			"componentType":5126,
			"count":2,
			"type":"VEC3"
		},
		{
			"bufferView":40,
			"componentType":5126,
			"count":36,
			"type":"VEC4"
		},
		{
			"bufferView":41,
			"componentType":5126,
			"count":2,
			"type":"VEC3"
		},
		{
			"bufferView":42,
			"componentType":5126,
			"count":2,
			"type":"VEC3"
		},
		{
			"bufferView":43,
			"componentType":5126,
			"count":36,
			"type":"VEC4"
		},
		{
			"bufferView":44,
			"componentType":5126,
			"count":2,
			"type":"VEC3"
		},
		{
			"bufferView":45,
			"componentType":5126,
			"count":12,
			"max":[
				0.5
			],
			"min":[
				0.041666666666666664
			],
			"type":"SCALAR"
		},
		{
			"bufferView":46,
			"componentType":5126,
			"count":12,
			"type":"VEC3"
		},
		{
			"bufferView":47,
			"componentType":5126,
			"count":12,
			"type":"VEC4"
		},
		{
			"bufferView":48,
			"componentType":5126,
			"count":2,
			"max":[
				0.5
			],
			"min":[
				0.041666666666666664
			],
			"type":"SCALAR"
		},
		{
			"bufferView":49,
			"componentType":5126,
			"count":2,
			"type":"VEC3"
		},
		{
			"bufferView":50,
			"componentType":5126,
			"count":2,
			"type":"VEC3"
		},
		{
			"bufferView":51,
			"componentType":5126,
			"count":2,
			"type":"VEC4"
		},
		{
			"bufferView":52,
			"componentType":5126,
			"count":2,
			"type":"VEC3"
		},
		{
			"bufferView":53,
			"componentType":5126,
			"count":2,
			"type":"VEC3"
		},
		{
			"bufferView":54,
			"componentType":5126,
			"count":2,
			"type":"VEC4"
		},
		{
			"bufferView":55,
			"componentType":5126,
			"count":2,
			"type":"VEC3"
		},
		{
			"bufferView":56,
			"componentType":5126,
			"count":2,
			"type":"VEC3"
		},
		{
			"bufferView":57,
			"componentType":5126,
			"count":2,
			"type":"VEC4"
		},
		{
			"bufferView":58,
			"componentType":5126,
			"count":2,
			"type":"VEC3"
		},
		{
			"bufferView":59,
			"componentType":5126,
			"count":2,
			"type":"VEC3"
		},
		{
			"bufferView":60,
			"componentType":5126,
			"count":12,
			"type":"VEC4"
		},
		{
			"bufferView":61,
			"componentType":5126,
			"count":2,
			"type":"VEC3"
		},
		{
			"bufferView":62,
			"componentType":5126,
			"count":2,
			"type":"VEC3"
		},
		{
			"bufferView":63,
			"componentType":5126,
			"count":12,
			"type":"VEC4"
		},
		{
			"bufferView":64,
			"componentType":5126,
			"count":2,
			"type":"VEC3"
		},
		{
			"bufferView":65,
			"componentType":5126,
			"count":2,
			"type":"VEC3"
		},
		{
			"bufferView":66,
			"componentType":5126,
			"count":12,
			"type":"VEC4"
		},
		{
			"bufferView":67,
			"componentType":5126,
			"count":2,
			"type":"VEC3"
		},
		{
			"bufferView":68,
			"componentType":5126,
			"count":2,
			"type":"VEC3"
		},
		{
			"bufferView":69,
			"componentType":5126,
			"count":12,
			"type":"VEC4"
		},
		{
			"bufferView":70,
			"componentType":5126,
			"count":2,
			"type":"VEC3"
		},
		{
			"bufferView":71,
			"componentType":5126,
			"count":2,
			"type":"VEC3"
		},
		{
			"bufferView":72,
			"componentType":5126,
			"count":12,
			"type":"VEC4"
		},
		{
			"bufferView":73,
			"componentType":5126,
			"count":2,
			"type":"VEC3"
		},
		{
			"bufferView":74,
			"componentType":5126,
			"count":2,
			"type":"VEC3"
		},
		{
			"bufferView":75,
			"componentType":5126,
			"count":12,
			"type":"VEC4"
		},
		{
			"bufferView":76,
			"componentType":5126,
			"count":2,
			"type":"VEC3"
		},
		{
			"bufferView":77,
			"componentType":5126,
			"count":2,
			"max":[
				1.4166666666666667
			],
			"min":[
				0.041666666666666664
			],
			"type":"SCALAR"
		},
		{
			"bufferView":78,
			"componentType":5126,
			"count":2,
			"type":"VEC3"
		},
		{
			"bufferView":79,
			"componentType":5126,
			"count":2,
			"type":"VEC3"
		},
		{
			"bufferView":80,
			"componentType":5126,
			"count":2,
			"type":"VEC3"
		},
		{
			"bufferView":81,
			"componentType":5126,
			"count":2,
			"type":"VEC3"
		},
		{
			"bufferView":82,
			"componentType":5126,
			"count":2,
			"type":"VEC3"
		},
		{
			"bufferView":83,
			"componentType":5126,
			"count":34,
			"max":[
				1.4166666666666667
			],
			"min":[
				0.041666666666666664
			],
			"type":"SCALAR"
		},
		{
			"bufferView":84,
			"componentType":5126,
			"count":34,
			"type":"VEC4"
		},
		{
			"bufferView":85,
			"componentType":5126,
			"count":2,
			"type":"VEC3"
		},
		{
			"bufferView":86,
			"componentType":5126,
			"count":2,
			"type":"VEC3"
		},
		{
			"bufferView":87,
			"componentType":5126,
			"count":34,
			"type":"VEC4"
		},
		{
			"bufferView":88,
			"componentType":5126,
			"count":2,
			"type":"VEC3"
		},
		{
			"bufferView":89,
			"componentType":5126,
			"count":2,
			"type":"VEC3"
		},
		{
			"bufferView":90,
			"componentType":5126,
			"count":34,
			"type":"VEC4"
		},
		{
			"bufferView":91,
			"componentType":5126,
			"count":2,
			"type":"VEC3"
		},
		{
			"bufferView":92,
			"componentType":5126,
			"count":2,
			"type":"VEC3"
		},
		{
			"bufferView":93,
			"componentType":5126,
			"count":34,
			"type":"VEC4"
		},
		{
			"bufferView":94,
			"componentType":5126,
			"count":2,
			"type":"VEC3"
		},
		{
			"bufferView":95,
			"componentType":5126,
			"count":2,
			"type":"VEC3"
		},
		{
			"bufferView":96,
			"componentType":5126,
			"count":34,
			"type":"VEC4"
		},
		{
			"bufferView":97,
			"componentType":5126,
			"count":2,
			"type":"VEC3"
		},
		{
			"bufferView":98,
			"componentType":5126,
			"count":2,
			"type":"VEC3"
		},
		{
			"bufferView":99,
			"componentType":5126,
			"count":34,
			"type":"VEC4"
		},
		{
			"bufferView":100,
			"componentType":5126,
			"count":2,
			"type":"VEC3"
		}
	],
	"bufferViews":[
		{
			"buffer":0,
			"byteLength":16992,
			"byteOffset":0,
			"target":34962
		},
		{
			"buffer":0,
			"byteLength":16992,
			"byteOffset":16992,
			"target":34962
		},
		{
			"buffer":0,
			"byteLength":11328,
			"byteOffset":33984,
			"target":34962
		},
		{
			"buffer":0,
			"byteLength":5664,
			"byteOffset":45312,
			"target":34962
		},
		{
			"buffer":0,
			"byteLength":22656,
			"byteOffset":50976,
			"target":34962
		},
		{
			"buffer":0,
			"byteLength":6408,
			"byteOffset":73632,
			"target":34963
		},
		{
			"buffer":0,
			"byteLength":96,
			"byteOffset":80040,
			"target":34962
		},
		{
			"buffer":0,
			"byteLength":96,
			"byteOffset":80136,
			"target":34962
		},
		{
			"buffer":0,
			"byteLength":64,
			"byteOffset":80232,
			"target":34962
		},
		{
			"buffer":0,
			"byteLength":32,
			"byteOffset":80296,
			"target":34962
		},
		{
			"buffer":0,
			"byteLength":128,
			"byteOffset":80328,
			"target":34962
		},
		{
			"buffer":0,
			"byteLength":24,
			"byteOffset":80456,
			"target":34963
		},
		{
			"buffer":0,
			"byteLength":640,
			"byteOffset":80480
		},
		{
			"buffer":0,
			"byteLength":144,
			"byteOffset":81120
		},
		{
			"buffer":0,
			"byteLength":432,
			"byteOffset":81264
		},
		{
			"buffer":0,
			"byteLength":8,
			"byteOffset":81696
		},
		{
			"buffer":0,
			"byteLength":32,
			"byteOffset":81704
		},
		{
			"buffer":0,
			"byteLength":24,
			"byteOffset":81736
		},
		{
			"buffer":0,
			"byteLength":24,
			"byteOffset":81760
		},
		{
			"buffer":0,
			"byteLength":32,
			"byteOffset":81784
		},
		{
			"buffer":0,
			"byteLength":24,
			"byteOffset":81816
		},
		{
			"buffer":0,
			"byteLength":24,
			"byteOffset":81840
		},
		{
			"buffer":0,
			"byteLength":32,
			"byteOffset":81864
		},
		{
			"buffer":0,
			"byteLength":24,
			"byteOffset":81896
		},
		{
			"buffer":0,
			"byteLength":24,
			"byteOffset":81920
		},
		{
			"buffer":0,
			"byteLength":32,
			"byteOffset":81944
		},
		{
			"buffer":0,
			"byteLength":24,
			"byteOffset":81976
		},
		{
			"buffer":0,
			"byteLength":24,
			"byteOffset":82000
		},
		{
			"buffer":0,
			"byteLength":576,
			"byteOffset":82024
		},
		{
			"buffer":0,
			"byteLength":24,
			"byteOffset":82600
		},
		{
			"buffer":0,
			"byteLength":24,
			"byteOffset":82624
		},
		{
			"buffer":0,
			"byteLength":576,
			"byteOffset":82648
		},
		{
			"buffer":0,
			"byteLength":24,
			"byteOffset":83224
		},
		{
			"buffer":0,
			"byteLength":24,
			"byteOffset":83248
		},
		{
			"buffer":0,
			"byteLength":576,
			"byteOffset":83272
		},
		{
			"buffer":0,
			"byteLength":24,
			"byteOffset":83848
		},
		{
			"buffer":0,
			"byteLength":24,
			"byteOffset":83872
		},
		{
			"buffer":0,
			"byteLength":576,
			"byteOffset":83896
		},
		{
			"buffer":0,
			"byteLength":24,
			"byteOffset":84472
		},
		{
			"buffer":0,
			"byteLength":24,
			"byteOffset":84496
		},
		{
			"buffer":0,
			"byteLength":576,
			"byteOffset":84520
		},
		{
			"buffer":0,
			"byteLength":24,
			"byteOffset":85096
		},
		{
			"buffer":0,
			"byteLength":24,
			"byteOffset":85120
		},
		{
			"buffer":0,
			"byteLength":576,
			"byteOffset":85144
		},
		{
			"buffer":0,
			"byteLength":24,
			"byteOffset":85720
		},
		{
			"buffer":0,
			"byteLength":48,
			"byteOffset":85744
		},
		{
			"buffer":0,
			"byteLength":144,
			"byteOffset":85792
		},
		{
			"buffer":0,
			"byteLength":192,
			"byteOffset":85936
		},
		{
			"buffer":0,
			"byteLength":8,
			"byteOffset":86128
		},
		{
			"buffer":0,
			"byteLength":24,
			"byteOffset":86136
		},
		{
			"buffer":0,
			"byteLength":24,
			"byteOffset":86160
		},
		{
			"buffer":0,
			"byteLength":32,
			"byteOffset":86184
		},
		{
			"buffer":0,
			"byteLength":24,
			"byteOffset":86216
		},
		{
			"buffer":0,
			"byteLength":24,
			"byteOffset":86240
		},
		{
			"buffer":0,
			"byteLength":32,
			"byteOffset":86264
		},
		{
			"buffer":0,
			"byteLength":24,
			"byteOffset":86296
		},
		{
			"buffer":0,
			"byteLength":24,
			"byteOffset":86320
		},
		{
			"buffer":0,
			"byteLength":32,
			"byteOffset":86344
		},
		{
			"buffer":0,
			"byteLength":24,
			"byteOffset":86376
		},
		{
			"buffer":0,
			"byteLength":24,
			"byteOffset":86400
		},
		{
			"buffer":0,
			"byteLength":192,
			"byteOffset":86424
		},
		{
			"buffer":0,
			"byteLength":24,
			"byteOffset":86616
		},
		{
			"buffer":0,
			"byteLength":24,
			"byteOffset":86640
		},
		{
			"buffer":0,
			"byteLength":192,
			"byteOffset":86664
		},
		{
			"buffer":0,
			"byteLength":24,
			"byteOffset":86856
		},
		{
			"buffer":0,
			"byteLength":24,
			"byteOffset":86880
		},
		{
			"buffer":0,
			"byteLength":192,
			"byteOffset":86904
		},
		{
			"buffer":0,
			"byteLength":24,
			"byteOffset":87096
		},
		{
			"buffer":0,
			"byteLength":24,
			"byteOffset":87120
		},
		{
			"buffer":0,
			"byteLength":192,
			"byteOffset":87144
		},
		{
			"buffer":0,
			"byteLength":24,
			"byteOffset":87336
		},
		{
			"buffer":0,
			"byteLength":24,
			"byteOffset":87360
		},
		{
			"buffer":0,
			"byteLength":192,
			"byteOffset":87384
		},
		{
			"buffer":0,
			"byteLength":24,
			"byteOffset":87576
		},
		{
			"buffer":0,
			"byteLength":24,
			"byteOffset":87600
		},
		{
			"buffer":0,
			"byteLength":192,
			"byteOffset":87624
		},
		{
			"buffer":0,
			"byteLength":24,
			"byteOffset":87816
		},
		{
			"buffer":0,
			"byteLength":8,
			"byteOffset":87840
		},
		{
			"buffer":0,
			"byteLength":24,
			"byteOffset":87848
		},
		{
			"buffer":0,
			"byteLength":24,
			"byteOffset":87872
		},
		{
			"buffer":0,
			"byteLength":24,
			"byteOffset":87896
		},
		{
			"buffer":0,
			"byteLength":24,
			"byteOffset":87920
		},
		{
			"buffer":0,
			"byteLength":24,
			"byteOffset":87944
		},
		{
			"buffer":0,
			"byteLength":136,
			"byteOffset":87968
		},
		{
			"buffer":0,
			"byteLength":544,
			"byteOffset":88104
		},
		{
			"buffer":0,
			"byteLength":24,
			"byteOffset":88648
		},
		{
			"buffer":0,
			"byteLength":24,
			"byteOffset":88672
		},
		{
			"buffer":0,
			"byteLength":544,
			"byteOffset":88696
		},
		{
			"buffer":0,
			"byteLength":24,
			"byteOffset":89240
		},
		{
			"buffer":0,
			"byteLength":24,
			"byteOffset":89264
		},
		{
			"buffer":0,
			"byteLength":544,
			"byteOffset":89288
		},
		{
			"buffer":0,
			"byteLength":24,
			"byteOffset":89832
		},
		{
			"buffer":0,
			"byteLength":24,
			"byteOffset":89856
		},
		{
			"buffer":0,
			"byteLength":544,
			"byteOffset":89880
		},
		{
			"buffer":0,
			"byteLength":24,
			"byteOffset":90424
		},
		{
			"buffer":0,
			"byteLength":24,
			"byteOffset":90448
		},
		{
			"buffer":0,
			"byteLength":544,
			"byteOffset":90472
		},
		{
			"buffer":0,
			"byteLength":24,
			"byteOffset":91016
		},
		{
			"buffer":0,
			"byteLength":24,
			"byteOffset":91040
		},
		{
			"buffer":0,
			"byteLength":544,
			"byteOffset":91064
		},
		{
			"buffer":0,
			"byteLength":24,
			"byteOffset":91608
		}
	],
	"samplers":[
		{
			"magFilter":9728,
			"minFilter":9984
		}
	],
	"buffers":[
		{
			"byteLength":91632,
			"uri":"Bleach-04025a2960e16eb2727ab7726938d8a1.bin"
		}
	]
}
