{
	"asset":{
		"generator":"Khronos glTF Blender I/O v5.1.19",
		"version":"2.0"
	},
	"scene":0,
	"scenes":[
		{
			"name":"Scene",
			"nodes":[
				32
			]
		}
	],
	"nodes":[
		{
			"name":"Head",
			"translation":[
				0,
				0.45483970642089844,
				0
			]
		},
		{
			"children":[
				0
			],
			"name":"\u041a\u043e\u0441\u0442\u044c.003",
			"translation":[
				0,
				1.2778825759887695,
				0
			]
		},
		{
			"name":"\u041a\u043e\u0441\u0442\u044c.009",
			"rotation":[
				-0.12313848733901978,
				-0.00936579518020153,
				0.023535922169685364,
				0.9920661449432373
			],
			"scale":[
				1,
				0.9999999403953552,
				1.0000001192092896
			],
			"translation":[
				-7.450580596923828e-09,
				1.436547040939331,
				-3.614047727751313e-07
			]
		},
		{
			"children":[
				2
			],
			"name":"\u041a\u043e\u0441\u0442\u044c.007",
			"rotation":[
				-0.9227334260940552,
				-0.04600546136498451,
				-0.01905597373843193,
				0.38220861554145813
			],
			"scale":[
				1,
				1,
				1.0000001192092896
			],
			"translation":[
				0.39334234595298767,
				0.8302631378173828,
				-1.0324134826660156
			]
		},
		{
			"name":"\u041a\u043e\u0441\u0442\u044c.010",
			"rotation":[
				0.1465582251548767,
				0.01101802196353674,
				0.02392837405204773,
				0.9888512492179871
			],
			"scale":[
				1,
				1,
				0.9999998807907104
			],
			"translation":[
				-7.82310962677002e-08,
				1.4423586130142212,
				-1.619175975520193e-07
			]
		},
		{
			"children":[
				4
			],
			"name":"\u041a\u043e\u0441\u0442\u044c.008",
			"rotation":[
				0.9165058732032776,
				0.0455106645822525,
				-0.01970839872956276,
				0.3969349265098572
			],
			"scale":[
				1,
				0.9999999403953552,
				0.9999997615814209
			],
			"translation":[
				0.39334234595298767,
				0.8447017669677734,
				1.0179741382598877
			]
		},
		{
			"name":"\u041a\u043e\u0441\u0442\u044c.028",
			"rotation":[
				-0.071990966796875,
				-0.06891754269599915,
				-0.22762995958328247,
				0.9686342477798462
			],
			"scale":[
				1,
				1,
				0.9999999403953552
			],
			"translation":[
				5.960464477539063e-08,
				2.1959218978881836,
				1.3785320334136486e-06
			]
		},
		{
			"children":[
				6
			],
			"name":"\u041a\u043e\u0441\u0442\u044c.027",
			"rotation":[
				0.0017025694251060486,
				0.0010688200127333403,
				-0.10269440710544586,
				0.9947109222412109
			],
			"translation":[
				1.1920928955078125e-07,
				2.831537961959839,
				5.453766789287329e-07
			]
		},
		{
			"children":[
				7
			],
			"name":"\u041a\u043e\u0441\u0442\u044c.025",
			"rotation":[
				0.5592398643493652,
				0.0998879075050354,
				-0.1456182301044464,
				0.809980571269989
			],
			"scale":[
				0.9999999403953552,
				1,
				1
			],
			"translation":[
				-0.6593163013458252,
				0.6196508407592773,
				0.39376360177993774
			]
		},
		{
			"name":"\u041a\u043e\u0441\u0442\u044c.030",
			"rotation":[
				0.014060769230127335,
				0.0039079259149730206,
				-0.1952029913663864,
				0.9806542992591858
			],
			"scale":[
				1,
				0.9999998807907104,
				1
			],
			"translation":[
				-5.960464477539063e-08,
				2.1076722145080566,
				8.903443813323975e-07
			]
		},
		{
			"children":[
				9
			],
			"name":"\u041a\u043e\u0441\u0442\u044c.029",
			"rotation":[
				0.04752780497074127,
				0.020286835730075836,
				-0.10896818339824677,
				0.9927011132240295
			],
			"scale":[
				1,
				0.9999999403953552,
				1
			],
			"translation":[
				2.9802322387695312e-08,
				2.8384361267089844,
				-1.1709635145962238e-06
			]
		},
		{
			"children":[
				10
			],
			"name":"\u041a\u043e\u0441\u0442\u044c.026",
			"rotation":[
				-0.5420172214508057,
				-0.0977783352136612,
				-0.1495135873556137,
				0.8211592435836792
			],
			"scale":[
				0.9999999403953552,
				1,
				0.9999999403953552
			],
			"translation":[
				-0.6593163013458252,
				0.6939373016357422,
				-0.5839455127716064
			]
		},
		{
			"children":[
				1,
				3,
				5,
				8,
				11
			],
			"name":"\u041a\u043e\u0441\u0442\u044c.002",
			"translation":[
				0,
				1.602766990661621,
				0
			]
		},
		{
			"name":"\u041a\u043e\u0441\u0442\u044c.024",
			"rotation":[
				-0.0020599898416548967,
				0.03628942742943764,
				-0.2576988935470581,
				0.9655413627624512
			],
			"scale":[
				1,
				0.9999999403953552,
				1
			],
			"translation":[
				-5.960464477539063e-08,
				2.4192707538604736,
				-9.685754776000977e-07
			]
		},
		{
			"children":[
				13
			],
			"name":"\u041a\u043e\u0441\u0442\u044c.021",
			"rotation":[
				-0.02091178484261036,
				-0.0017037660581991076,
				-0.08383585512638092,
				0.9962587356567383
			],
			"scale":[
				1,
				0.9999998211860657,
				0.9999999403953552
			],
			"translation":[
				2.9802322387695312e-08,
				2.482863664627075,
				1.7136335372924805e-07
			]
		},
		{
			"children":[
				14
			],
			"name":"\u041a\u043e\u0441\u0442\u044c.019",
			"rotation":[
				-0.6927766799926758,
				-0.17577512562274933,
				-0.05757081136107445,
				0.6970288157463074
			],
			"scale":[
				1,
				1,
				0.9999999403953552
			],
			"translation":[
				-0.5628199577331543,
				1.0530128479003906,
				-0.5402985215187073
			]
		},
		{
			"name":"\u041a\u043e\u0441\u0442\u044c.023",
			"rotation":[
				-0.11226127296686172,
				-0.04790163040161133,
				-0.20794959366321564,
				0.9704946279525757
			],
			"scale":[
				1,
				0.9999999403953552,
				0.9999998807907104
			],
			"translation":[
				1.1920928955078125e-07,
				2.455512046813965,
				1.2665987014770508e-06
			]
		},
		{
			"children":[
				16
			],
			"name":"\u041a\u043e\u0441\u0442\u044c.022",
			"rotation":[
				-0.017796453088521957,
				0.0032615310046821833,
				-0.09774255752563477,
				0.9950472712516785
			],
			"scale":[
				1.000000238418579,
				0.9999999403953552,
				1
			],
			"translation":[
				-3.2782554626464844e-07,
				2.391939640045166,
				1.043081283569336e-07
			]
		},
		{
			"children":[
				17
			],
			"name":"\u041a\u043e\u0441\u0442\u044c.020",
			"rotation":[
				0.6657949686050415,
				0.021087342873215675,
				-0.20744724571704865,
				0.7164063453674316
			],
			"scale":[
				0.9999999403953552,
				1,
				1
			],
			"translation":[
				-0.5919451713562012,
				1.0215978622436523,
				0.4142864942550659
			]
		},
		{
			"children":[
				12,
				15,
				18
			],
			"name":"\u041a\u043e\u0441\u0442\u044c.001",
			"translation":[
				0,
				1.5703544616699219,
				0
			]
		},
		{
			"name":"\u041a\u043e\u0441\u0442\u044c.012",
			"rotation":[
				-0.11017846316099167,
				0.006658725440502167,
				-0.00017920456593856215,
				0.9938895106315613
			],
			"scale":[
				1,
				1.0000001192092896,
				1
			],
			"translation":[
				-2.8870999813079834e-08,
				0.8080828189849854,
				-8.16071406006813e-08
			]
		},
		{
			"children":[
				20
			],
			"name":"\u041a\u043e\u0441\u0442\u044c.005",
			"rotation":[
				-0.8665454387664795,
				-0.0012659666826948524,
				0.0021980274468660355,
				0.49909183382987976
			],
			"scale":[
				1,
				0.9999999403953552,
				0.9999999403953552
			],
			"translation":[
				0.17034178972244263,
				1.7447562217712402,
				-0.8735806941986084
			]
		},
		{
			"name":"\u041a\u043e\u0441\u0442\u044c.011",
			"rotation":[
				0.116603784263134,
				0.006487805861979723,
				0.046551767736673355,
				0.9920657277107239
			],
			"scale":[
				0.9999999403953552,
				0.9999998807907104,
				1
			],
			"translation":[
				4.470348358154297e-08,
				0.8272773027420044,
				3.4924596548080444e-07
			]
		},
		{
			"children":[
				22
			],
			"name":"\u041a\u043e\u0441\u0442\u044c.006",
			"rotation":[
				0.8662421703338623,
				0.025219524279236794,
				-0.02401786483824253,
				0.49840909242630005
			],
			"scale":[
				1,
				0.9999999403953552,
				0.9999998807907104
			],
			"translation":[
				0.16785591840744019,
				1.7731056213378906,
				0.8663609623908997
			]
		},
		{
			"name":"\u041a\u043e\u0441\u0442\u044c.018",
			"rotation":[
				-2.449259000059101e-06,
				-6.284132325617975e-08,
				-0.6984338760375977,
				0.715674638748169
			],
			"translation":[
				1.2413465810823254e-08,
				2.566784381866455,
				8.785447391801426e-08
			]
		},
		{
			"children":[
				24
			],
			"name":"\u041a\u043e\u0441\u0442\u044c.016",
			"rotation":[
				-0.024654636159539223,
				-0.00033152787364088,
				0.12020613253116608,
				0.9924427270889282
			],
			"scale":[
				1,
				0.9999999403953552,
				1
			],
			"translation":[
				1.909211277961731e-08,
				2.987015962600708,
				5.985549478282337e-08
			]
		},
		{
			"children":[
				25
			],
			"name":"\u041a\u043e\u0441\u0442\u044c.013",
			"rotation":[
				-0.9974534511566162,
				-0.06692230701446533,
				-0.0016504761297255754,
				0.024602187797427177
			],
			"scale":[
				0.9999908208847046,
				0.9999997615814209,
				0.9999986886978149
			],
			"translation":[
				0,
				-0.040282249450683594,
				-0.432966947555542
			]
		},
		{
			"name":"\u041a\u043e\u0441\u0442\u044c.017",
			"rotation":[
				5.3170460887486115e-06,
				-1.8554712823970476e-06,
				-0.699191689491272,
				0.714934229850769
			],
			"scale":[
				0.9999998807907104,
				0.9999998807907104,
				0.9999999403953552
			],
			"translation":[
				3.5156688227289123e-08,
				2.5171988010406494,
				4.0309259929927066e-08
			]
		},
		{
			"children":[
				27
			],
			"name":"\u041a\u043e\u0441\u0442\u044c.015",
			"rotation":[
				0.026951026171445847,
				0.00030533986864611506,
				0.12020434439182281,
				0.9923832416534424
			],
			"translation":[
				-1.4901161193847656e-08,
				3.034470558166504,
				-1.2917155345348874e-07
			]
		},
		{
			"children":[
				28
			],
			"name":"\u041a\u043e\u0441\u0442\u044c.014",
			"rotation":[
				0.9974642992019653,
				0.06586717814207077,
				-0.0017731215339154005,
				0.02689554914832115
			],
			"scale":[
				0.9999879002571106,
				0.9999997615814209,
				0.9999979734420776
			],
			"translation":[
				0,
				-0.028736591339111328,
				0.44451263546943665
			]
		},
		{
			"children":[
				19,
				21,
				23,
				26,
				29
			],
			"name":"\u041a\u043e\u0441\u0442\u044c",
			"translation":[
				-0.5415596961975098,
				-1.8729491233825684,
				0.022258460521697998
			]
		},
		{
			"extras":{
				"asset_bridge":{}
			},
			"mesh":0,
			"name":"Character_base.002",
			"skin":0
		},
		{
			"children":[
				31,
				30
			],
			"name":"Bloody_skeleton",
			"translation":[
				0.02520606853067875,
				7.60599946975708,
				-0.15608566999435425
			]
		}
	],
	"animations":[
		{
			"channels":[
				{
					"sampler":0,
					"target":{
						"node":30,
						"path":"translation"
					}
				},
				{
					"sampler":1,
					"target":{
						"node":30,
						"path":"rotation"
					}
				},
				{
					"sampler":2,
					"target":{
						"node":30,
						"path":"scale"
					}
				},
				{
					"sampler":3,
					"target":{
						"node":19,
						"path":"translation"
					}
				},
				{
					"sampler":4,
					"target":{
						"node":19,
						"path":"rotation"
					}
				},
				{
					"sampler":5,
					"target":{
						"node":19,
						"path":"scale"
					}
				},
				{
					"sampler":6,
					"target":{
						"node":12,
						"path":"translation"
					}
				},
				{
					"sampler":7,
					"target":{
						"node":12,
						"path":"rotation"
					}
				},
				{
					"sampler":8,
					"target":{
						"node":12,
						"path":"scale"
					}
				},
				{
					"sampler":9,
					"target":{
						"node":1,
						"path":"translation"
					}
				},
				{
					"sampler":10,
					"target":{
						"node":1,
						"path":"rotation"
					}
				},
				{
					"sampler":11,
					"target":{
						"node":1,
						"path":"scale"
					}
				},
				{
					"sampler":12,
					"target":{
						"node":0,
						"path":"translation"
					}
				},
				{
					"sampler":13,
					"target":{
						"node":0,
						"path":"rotation"
					}
				},
				{
					"sampler":14,
					"target":{
						"node":0,
						"path":"scale"
					}
				},
				{
					"sampler":15,
					"target":{
						"node":3,
						"path":"translation"
					}
				},
				{
					"sampler":16,
					"target":{
						"node":3,
						"path":"rotation"
					}
				},
				{
					"sampler":17,
					"target":{
						"node":3,
						"path":"scale"
					}
				},
				{
					"sampler":18,
					"target":{
						"node":2,
						"path":"translation"
					}
				},
				{
					"sampler":19,
					"target":{
						"node":2,
						"path":"rotation"
					}
				},
				{
					"sampler":20,
					"target":{
						"node":2,
						"path":"scale"
					}
				},
				{
					"sampler":21,
					"target":{
						"node":5,
						"path":"translation"
					}
				},
				{
					"sampler":22,
					"target":{
						"node":5,
						"path":"rotation"
					}
				},
				{
					"sampler":23,
					"target":{
						"node":5,
						"path":"scale"
					}
				},
				{
					"sampler":24,
					"target":{
						"node":4,
						"path":"translation"
					}
				},
				{
					"sampler":25,
					"target":{
						"node":4,
						"path":"rotation"
					}
				},
				{
					"sampler":26,
					"target":{
						"node":4,
						"path":"scale"
					}
				},
				{
					"sampler":27,
					"target":{
						"node":8,
						"path":"translation"
					}
				},
				{
					"sampler":28,
					"target":{
						"node":8,
						"path":"rotation"
					}
				},
				{
					"sampler":29,
					"target":{
						"node":8,
						"path":"scale"
					}
				},
				{
					"sampler":30,
					"target":{
						"node":7,
						"path":"translation"
					}
				},
				{
					"sampler":31,
					"target":{
						"node":7,
						"path":"rotation"
					}
				},
				{
					"sampler":32,
					"target":{
						"node":7,
						"path":"scale"
					}
				},
				{
					"sampler":33,
					"target":{
						"node":6,
						"path":"translation"
					}
				},
				{
					"sampler":34,
					"target":{
						"node":6,
						"path":"rotation"
					}
				},
				{
					"sampler":35,
					"target":{
						"node":6,
						"path":"scale"
					}
				},
				{
					"sampler":36,
					"target":{
						"node":11,
						"path":"translation"
					}
				},
				{
					"sampler":37,
					"target":{
						"node":11,
						"path":"rotation"
					}
				},
				{
					"sampler":38,
					"target":{
						"node":11,
						"path":"scale"
					}
				},
				{
					"sampler":39,
					"target":{
						"node":10,
						"path":"translation"
					}
				},
				{
					"sampler":40,
					"target":{
						"node":10,
						"path":"rotation"
					}
				},
				{
					"sampler":41,
					"target":{
						"node":10,
						"path":"scale"
					}
				},
				{
					"sampler":42,
					"target":{
						"node":9,
						"path":"translation"
					}
				},
				{
					"sampler":43,
					"target":{
						"node":9,
						"path":"rotation"
					}
				},
				{
					"sampler":44,
					"target":{
						"node":9,
						"path":"scale"
					}
				},
				{
					"sampler":45,
					"target":{
						"node":15,
						"path":"translation"
					}
				},
				{
					"sampler":46,
					"target":{
						"node":15,
						"path":"rotation"
					}
				},
				{
					"sampler":47,
					"target":{
						"node":15,
						"path":"scale"
					}
				},
				{
					"sampler":48,
					"target":{
						"node":14,
						"path":"translation"
					}
				},
				{
					"sampler":49,
					"target":{
						"node":14,
						"path":"rotation"
					}
				},
				{
					"sampler":50,
					"target":{
						"node":14,
						"path":"scale"
					}
				},
				{
					"sampler":51,
					"target":{
						"node":13,
						"path":"translation"
					}
				},
				{
					"sampler":52,
					"target":{
						"node":13,
						"path":"rotation"
					}
				},
				{
					"sampler":53,
					"target":{
						"node":13,
						"path":"scale"
					}
				},
				{
					"sampler":54,
					"target":{
						"node":18,
						"path":"translation"
					}
				},
				{
					"sampler":55,
					"target":{
						"node":18,
						"path":"rotation"
					}
				},
				{
					"sampler":56,
					"target":{
						"node":18,
						"path":"scale"
					}
				},
				{
					"sampler":57,
					"target":{
						"node":17,
						"path":"translation"
					}
				},
				{
					"sampler":58,
					"target":{
						"node":17,
						"path":"rotation"
					}
				},
				{
					"sampler":59,
					"target":{
						"node":17,
						"path":"scale"
					}
				},
				{
					"sampler":60,
					"target":{
						"node":16,
						"path":"translation"
					}
				},
				{
					"sampler":61,
					"target":{
						"node":16,
						"path":"rotation"
					}
				},
				{
					"sampler":62,
					"target":{
						"node":16,
						"path":"scale"
					}
				},
				{
					"sampler":63,
					"target":{
						"node":21,
						"path":"translation"
					}
				},
				{
					"sampler":64,
					"target":{
						"node":21,
						"path":"rotation"
					}
				},
				{
					"sampler":65,
					"target":{
						"node":21,
						"path":"scale"
					}
				},
				{
					"sampler":66,
					"target":{
						"node":20,
						"path":"translation"
					}
				},
				{
					"sampler":67,
					"target":{
						"node":20,
						"path":"rotation"
					}
				},
				{
					"sampler":68,
					"target":{
						"node":20,
						"path":"scale"
					}
				},
				{
					"sampler":69,
					"target":{
						"node":23,
						"path":"translation"
					}
				},
				{
					"sampler":70,
					"target":{
						"node":23,
						"path":"rotation"
					}
				},
				{
					"sampler":71,
					"target":{
						"node":23,
						"path":"scale"
					}
				},
				{
					"sampler":72,
					"target":{
						"node":22,
						"path":"translation"
					}
				},
				{
					"sampler":73,
					"target":{
						"node":22,
						"path":"rotation"
					}
				},
				{
					"sampler":74,
					"target":{
						"node":22,
						"path":"scale"
					}
				},
				{
					"sampler":75,
					"target":{
						"node":26,
						"path":"translation"
					}
				},
				{
					"sampler":76,
					"target":{
						"node":26,
						"path":"rotation"
					}
				},
				{
					"sampler":77,
					"target":{
						"node":26,
						"path":"scale"
					}
				},
				{
					"sampler":78,
					"target":{
						"node":25,
						"path":"translation"
					}
				},
				{
					"sampler":79,
					"target":{
						"node":25,
						"path":"rotation"
					}
				},
				{
					"sampler":80,
					"target":{
						"node":25,
						"path":"scale"
					}
				},
				{
					"sampler":81,
					"target":{
						"node":24,
						"path":"translation"
					}
				},
				{
					"sampler":82,
					"target":{
						"node":24,
						"path":"rotation"
					}
				},
				{
					"sampler":83,
					"target":{
						"node":24,
						"path":"scale"
					}
				},
				{
					"sampler":84,
					"target":{
						"node":29,
						"path":"translation"
					}
				},
				{
					"sampler":85,
					"target":{
						"node":29,
						"path":"rotation"
					}
				},
				{
					"sampler":86,
					"target":{
						"node":29,
						"path":"scale"
					}
				},
				{
					"sampler":87,
					"target":{
						"node":28,
						"path":"translation"
					}
				},
				{
					"sampler":88,
					"target":{
						"node":28,
						"path":"rotation"
					}
				},
				{
					"sampler":89,
					"target":{
						"node":28,
						"path":"scale"
					}
				},
				{
					"sampler":90,
					"target":{
						"node":27,
						"path":"translation"
					}
				},
				{
					"sampler":91,
					"target":{
						"node":27,
						"path":"rotation"
					}
				},
				{
					"sampler":92,
					"target":{
						"node":27,
						"path":"scale"
					}
				}
			],
			"name":"Bloody_kill",
			"samplers":[
				{
					"input":17,
					"interpolation":"STEP",
					"output":18
				},
				{
					"input":17,
					"interpolation":"STEP",
					"output":19
				},
				{
					"input":17,
					"interpolation":"STEP",
					"output":20
				},
				{
					"input":17,
					"interpolation":"STEP",
					"output":21
				},
				{
					"input":17,
					"interpolation":"STEP",
					"output":19
				},
				{
					"input":17,
					"interpolation":"STEP",
					"output":20
				},
				{
					"input":17,
					"interpolation":"STEP",
					"output":22
				},
				{
					"input":17,
					"interpolation":"STEP",
					"output":19
				},
				{
					"input":17,
					"interpolation":"STEP",
					"output":20
				},
				{
					"input":17,
					"interpolation":"STEP",
					"output":23
				},
				{
					"input":24,
					"interpolation":"LINEAR",
					"output":25
				},
				{
					"input":17,
					"interpolation":"STEP",
					"output":20
				},
				{
					"input":17,
					"interpolation":"LINEAR",
					"output":26
				},
				{
					"input":24,
					"interpolation":"LINEAR",
					"output":27
				},
				{
					"input":17,
					"interpolation":"LINEAR",
					"output":28
				},
				{
					"input":17,
					"interpolation":"STEP",
					"output":29
				},
				{
					"input":24,
					"interpolation":"LINEAR",
					"output":30
				},
				{
					"input":17,
					"interpolation":"LINEAR",
					"output":31
				},
				{
					"input":17,
					"interpolation":"LINEAR",
					"output":32
				},
				{
					"input":24,
					"interpolation":"LINEAR",
					"output":33
				},
				{
					"input":17,
					"interpolation":"LINEAR",
					"output":34
				},
				{
					"input":17,
					"interpolation":"STEP",
					"output":35
				},
				{
					"input":24,
					"interpolation":"LINEAR",
					"output":36
				},
				{
					"input":17,
					"interpolation":"LINEAR",
					"output":37
				},
				{
					"input":17,
					"interpolation":"LINEAR",
					"output":38
				},
				{
					"input":24,
					"interpolation":"LINEAR",
					"output":39
				},
				{
					"input":17,
					"interpolation":"LINEAR",
					"output":40
				},
				{
					"input":17,
					"interpolation":"STEP",
					"output":41
				},
				{
					"input":24,
					"interpolation":"LINEAR",
					"output":42
				},
				{
					"input":17,
					"interpolation":"LINEAR",
					"output":43
				},
				{
					"input":17,
					"interpolation":"LINEAR",
					"output":44
				},
				{
					"input":24,
					"interpolation":"LINEAR",
					"output":45
				},
				{
					"input":17,
					"interpolation":"LINEAR",
					"output":46
				},
				{
					"input":17,
					"interpolation":"LINEAR",
					"output":47
				},
				{
					"input":24,
					"interpolation":"LINEAR",
					"output":48
				},
				{
					"input":17,
					"interpolation":"LINEAR",
					"output":49
				},
				{
					"input":17,
					"interpolation":"STEP",
					"output":50
				},
				{
					"input":24,
					"interpolation":"LINEAR",
					"output":51
				},
				{
					"input":17,
					"interpolation":"LINEAR",
					"output":52
				},
				{
					"input":17,
					"interpolation":"LINEAR",
					"output":53
				},
				{
					"input":24,
					"interpolation":"LINEAR",
					"output":54
				},
				{
					"input":17,
					"interpolation":"LINEAR",
					"output":55
				},
				{
					"input":17,
					"interpolation":"LINEAR",
					"output":56
				},
				{
					"input":24,
					"interpolation":"LINEAR",
					"output":57
				},
				{
					"input":17,
					"interpolation":"LINEAR",
					"output":58
				},
				{
					"input":17,
					"interpolation":"STEP",
					"output":59
				},
				{
					"input":24,
					"interpolation":"LINEAR",
					"output":60
				},
				{
					"input":17,
					"interpolation":"LINEAR",
					"output":61
				},
				{
					"input":17,
					"interpolation":"LINEAR",
					"output":62
				},
				{
					"input":24,
					"interpolation":"LINEAR",
					"output":63
				},
				{
					"input":17,
					"interpolation":"LINEAR",
					"output":64
				},
				{
					"input":17,
					"interpolation":"LINEAR",
					"output":65
				},
				{
					"input":24,
					"interpolation":"LINEAR",
					"output":66
				},
				{
					"input":17,
					"interpolation":"STEP",
					"output":67
				},
				{
					"input":17,
					"interpolation":"STEP",
					"output":68
				},
				{
					"input":24,
					"interpolation":"LINEAR",
					"output":69
				},
				{
					"input":17,
					"interpolation":"LINEAR",
					"output":70
				},
				{
					"input":17,
					"interpolation":"LINEAR",
					"output":71
				},
				{
					"input":24,
					"interpolation":"LINEAR",
					"output":72
				},
				{
					"input":17,
					"interpolation":"LINEAR",
					"output":73
				},
				{
					"input":17,
					"interpolation":"LINEAR",
					"output":74
				},
				{
					"input":24,
					"interpolation":"LINEAR",
					"output":75
				},
				{
					"input":17,
					"interpolation":"LINEAR",
					"output":76
				},
				{
					"input":17,
					"interpolation":"STEP",
					"output":77
				},
				{
					"input":24,
					"interpolation":"LINEAR",
					"output":78
				},
				{
					"input":17,
					"interpolation":"STEP",
					"output":79
				},
				{
					"input":17,
					"interpolation":"LINEAR",
					"output":80
				},
				{
					"input":24,
					"interpolation":"LINEAR",
					"output":81
				},
				{
					"input":17,
					"interpolation":"LINEAR",
					"output":82
				},
				{
					"input":17,
					"interpolation":"STEP",
					"output":83
				},
				{
					"input":24,
					"interpolation":"LINEAR",
					"output":84
				},
				{
					"input":17,
					"interpolation":"LINEAR",
					"output":85
				},
				{
					"input":17,
					"interpolation":"LINEAR",
					"output":86
				},
				{
					"input":24,
					"interpolation":"LINEAR",
					"output":87
				},
				{
					"input":17,
					"interpolation":"LINEAR",
					"output":88
				},
				{
					"input":17,
					"interpolation":"STEP",
					"output":89
				},
				{
					"input":17,
					"interpolation":"STEP",
					"output":90
				},
				{
					"input":17,
					"interpolation":"STEP",
					"output":91
				},
				{
					"input":17,
					"interpolation":"STEP",
					"output":92
				},
				{
					"input":17,
					"interpolation":"STEP",
					"output":93
				},
				{
					"input":17,
					"interpolation":"STEP",
					"output":94
				},
				{
					"input":17,
					"interpolation":"STEP",
					"output":95
				},
				{
					"input":17,
					"interpolation":"STEP",
					"output":96
				},
				{
					"input":17,
					"interpolation":"STEP",
					"output":97
				},
				{
					"input":17,
					"interpolation":"STEP",
					"output":98
				},
				{
					"input":17,
					"interpolation":"STEP",
					"output":99
				},
				{
					"input":17,
					"interpolation":"STEP",
					"output":100
				},
				{
					"input":17,
					"interpolation":"STEP",
					"output":101
				},
				{
					"input":17,
					"interpolation":"STEP",
					"output":102
				},
				{
					"input":17,
					"interpolation":"STEP",
					"output":103
				},
				{
					"input":17,
					"interpolation":"STEP",
					"output":104
				},
				{
					"input":17,
					"interpolation":"STEP",
					"output":105
				},
				{
					"input":17,
					"interpolation":"STEP",
					"output":106
				}
			]
		},
		{
			"channels":[
				{
					"sampler":0,
					"target":{
						"node":30,
						"path":"translation"
					}
				},
				{
					"sampler":1,
					"target":{
						"node":30,
						"path":"rotation"
					}
				},
				{
					"sampler":2,
					"target":{
						"node":30,
						"path":"scale"
					}
				},
				{
					"sampler":3,
					"target":{
						"node":19,
						"path":"translation"
					}
				},
				{
					"sampler":4,
					"target":{
						"node":19,
						"path":"rotation"
					}
				},
				{
					"sampler":5,
					"target":{
						"node":19,
						"path":"scale"
					}
				},
				{
					"sampler":6,
					"target":{
						"node":12,
						"path":"translation"
					}
				},
				{
					"sampler":7,
					"target":{
						"node":12,
						"path":"rotation"
					}
				},
				{
					"sampler":8,
					"target":{
						"node":12,
						"path":"scale"
					}
				},
				{
					"sampler":9,
					"target":{
						"node":1,
						"path":"translation"
					}
				},
				{
					"sampler":10,
					"target":{
						"node":1,
						"path":"rotation"
					}
				},
				{
					"sampler":11,
					"target":{
						"node":1,
						"path":"scale"
					}
				},
				{
					"sampler":12,
					"target":{
						"node":0,
						"path":"translation"
					}
				},
				{
					"sampler":13,
					"target":{
						"node":0,
						"path":"rotation"
					}
				},
				{
					"sampler":14,
					"target":{
						"node":0,
						"path":"scale"
					}
				},
				{
					"sampler":15,
					"target":{
						"node":3,
						"path":"translation"
					}
				},
				{
					"sampler":16,
					"target":{
						"node":3,
						"path":"rotation"
					}
				},
				{
					"sampler":17,
					"target":{
						"node":3,
						"path":"scale"
					}
				},
				{
					"sampler":18,
					"target":{
						"node":2,
						"path":"translation"
					}
				},
				{
					"sampler":19,
					"target":{
						"node":2,
						"path":"rotation"
					}
				},
				{
					"sampler":20,
					"target":{
						"node":2,
						"path":"scale"
					}
				},
				{
					"sampler":21,
					"target":{
						"node":5,
						"path":"translation"
					}
				},
				{
					"sampler":22,
					"target":{
						"node":5,
						"path":"rotation"
					}
				},
				{
					"sampler":23,
					"target":{
						"node":5,
						"path":"scale"
					}
				},
				{
					"sampler":24,
					"target":{
						"node":4,
						"path":"translation"
					}
				},
				{
					"sampler":25,
					"target":{
						"node":4,
						"path":"rotation"
					}
				},
				{
					"sampler":26,
					"target":{
						"node":4,
						"path":"scale"
					}
				},
				{
					"sampler":27,
					"target":{
						"node":8,
						"path":"translation"
					}
				},
				{
					"sampler":28,
					"target":{
						"node":8,
						"path":"rotation"
					}
				},
				{
					"sampler":29,
					"target":{
						"node":8,
						"path":"scale"
					}
				},
				{
					"sampler":30,
					"target":{
						"node":7,
						"path":"translation"
					}
				},
				{
					"sampler":31,
					"target":{
						"node":7,
						"path":"rotation"
					}
				},
				{
					"sampler":32,
					"target":{
						"node":7,
						"path":"scale"
					}
				},
				{
					"sampler":33,
					"target":{
						"node":6,
						"path":"translation"
					}
				},
				{
					"sampler":34,
					"target":{
						"node":6,
						"path":"rotation"
					}
				},
				{
					"sampler":35,
					"target":{
						"node":6,
						"path":"scale"
					}
				},
				{
					"sampler":36,
					"target":{
						"node":11,
						"path":"translation"
					}
				},
				{
					"sampler":37,
					"target":{
						"node":11,
						"path":"rotation"
					}
				},
				{
					"sampler":38,
					"target":{
						"node":11,
						"path":"scale"
					}
				},
				{
					"sampler":39,
					"target":{
						"node":10,
						"path":"translation"
					}
				},
				{
					"sampler":40,
					"target":{
						"node":10,
						"path":"rotation"
					}
				},
				{
					"sampler":41,
					"target":{
						"node":10,
						"path":"scale"
					}
				},
				{
					"sampler":42,
					"target":{
						"node":9,
						"path":"translation"
					}
				},
				{
					"sampler":43,
					"target":{
						"node":9,
						"path":"rotation"
					}
				},
				{
					"sampler":44,
					"target":{
						"node":9,
						"path":"scale"
					}
				},
				{
					"sampler":45,
					"target":{
						"node":15,
						"path":"translation"
					}
				},
				{
					"sampler":46,
					"target":{
						"node":15,
						"path":"rotation"
					}
				},
				{
					"sampler":47,
					"target":{
						"node":15,
						"path":"scale"
					}
				},
				{
					"sampler":48,
					"target":{
						"node":14,
						"path":"translation"
					}
				},
				{
					"sampler":49,
					"target":{
						"node":14,
						"path":"rotation"
					}
				},
				{
					"sampler":50,
					"target":{
						"node":14,
						"path":"scale"
					}
				},
				{
					"sampler":51,
					"target":{
						"node":13,
						"path":"translation"
					}
				},
				{
					"sampler":52,
					"target":{
						"node":13,
						"path":"rotation"
					}
				},
				{
					"sampler":53,
					"target":{
						"node":13,
						"path":"scale"
					}
				},
				{
					"sampler":54,
					"target":{
						"node":18,
						"path":"translation"
					}
				},
				{
					"sampler":55,
					"target":{
						"node":18,
						"path":"rotation"
					}
				},
				{
					"sampler":56,
					"target":{
						"node":18,
						"path":"scale"
					}
				},
				{
					"sampler":57,
					"target":{
						"node":17,
						"path":"translation"
					}
				},
				{
					"sampler":58,
					"target":{
						"node":17,
						"path":"rotation"
					}
				},
				{
					"sampler":59,
					"target":{
						"node":17,
						"path":"scale"
					}
				},
				{
					"sampler":60,
					"target":{
						"node":16,
						"path":"translation"
					}
				},
				{
					"sampler":61,
					"target":{
						"node":16,
						"path":"rotation"
					}
				},
				{
					"sampler":62,
					"target":{
						"node":16,
						"path":"scale"
					}
				},
				{
					"sampler":63,
					"target":{
						"node":21,
						"path":"translation"
					}
				},
				{
					"sampler":64,
					"target":{
						"node":21,
						"path":"rotation"
					}
				},
				{
					"sampler":65,
					"target":{
						"node":21,
						"path":"scale"
					}
				},
				{
					"sampler":66,
					"target":{
						"node":20,
						"path":"translation"
					}
				},
				{
					"sampler":67,
					"target":{
						"node":20,
						"path":"rotation"
					}
				},
				{
					"sampler":68,
					"target":{
						"node":20,
						"path":"scale"
					}
				},
				{
					"sampler":69,
					"target":{
						"node":23,
						"path":"translation"
					}
				},
				{
					"sampler":70,
					"target":{
						"node":23,
						"path":"rotation"
					}
				},
				{
					"sampler":71,
					"target":{
						"node":23,
						"path":"scale"
					}
				},
				{
					"sampler":72,
					"target":{
						"node":22,
						"path":"translation"
					}
				},
				{
					"sampler":73,
					"target":{
						"node":22,
						"path":"rotation"
					}
				},
				{
					"sampler":74,
					"target":{
						"node":22,
						"path":"scale"
					}
				},
				{
					"sampler":75,
					"target":{
						"node":26,
						"path":"translation"
					}
				},
				{
					"sampler":76,
					"target":{
						"node":26,
						"path":"rotation"
					}
				},
				{
					"sampler":77,
					"target":{
						"node":26,
						"path":"scale"
					}
				},
				{
					"sampler":78,
					"target":{
						"node":25,
						"path":"translation"
					}
				},
				{
					"sampler":79,
					"target":{
						"node":25,
						"path":"rotation"
					}
				},
				{
					"sampler":80,
					"target":{
						"node":25,
						"path":"scale"
					}
				},
				{
					"sampler":81,
					"target":{
						"node":24,
						"path":"translation"
					}
				},
				{
					"sampler":82,
					"target":{
						"node":24,
						"path":"rotation"
					}
				},
				{
					"sampler":83,
					"target":{
						"node":24,
						"path":"scale"
					}
				},
				{
					"sampler":84,
					"target":{
						"node":29,
						"path":"translation"
					}
				},
				{
					"sampler":85,
					"target":{
						"node":29,
						"path":"rotation"
					}
				},
				{
					"sampler":86,
					"target":{
						"node":29,
						"path":"scale"
					}
				},
				{
					"sampler":87,
					"target":{
						"node":28,
						"path":"translation"
					}
				},
				{
					"sampler":88,
					"target":{
						"node":28,
						"path":"rotation"
					}
				},
				{
					"sampler":89,
					"target":{
						"node":28,
						"path":"scale"
					}
				},
				{
					"sampler":90,
					"target":{
						"node":27,
						"path":"translation"
					}
				},
				{
					"sampler":91,
					"target":{
						"node":27,
						"path":"rotation"
					}
				},
				{
					"sampler":92,
					"target":{
						"node":27,
						"path":"scale"
					}
				}
			],
			"name":"Bloody_moving",
			"samplers":[
				{
					"input":17,
					"interpolation":"STEP",
					"output":18
				},
				{
					"input":17,
					"interpolation":"STEP",
					"output":19
				},
				{
					"input":17,
					"interpolation":"STEP",
					"output":20
				},
				{
					"input":17,
					"interpolation":"STEP",
					"output":21
				},
				{
					"input":17,
					"interpolation":"STEP",
					"output":19
				},
				{
					"input":17,
					"interpolation":"STEP",
					"output":20
				},
				{
					"input":17,
					"interpolation":"STEP",
					"output":22
				},
				{
					"input":17,
					"interpolation":"STEP",
					"output":19
				},
				{
					"input":17,
					"interpolation":"STEP",
					"output":20
				},
				{
					"input":17,
					"interpolation":"STEP",
					"output":23
				},
				{
					"input":17,
					"interpolation":"STEP",
					"output":19
				},
				{
					"input":17,
					"interpolation":"STEP",
					"output":20
				},
				{
					"input":17,
					"interpolation":"STEP",
					"output":107
				},
				{
					"input":17,
					"interpolation":"STEP",
					"output":19
				},
				{
					"input":17,
					"interpolation":"STEP",
					"output":20
				},
				{
					"input":17,
					"interpolation":"STEP",
					"output":29
				},
				{
					"input":24,
					"interpolation":"LINEAR",
					"output":108
				},
				{
					"input":17,
					"interpolation":"LINEAR",
					"output":109
				},
				{
					"input":17,
					"interpolation":"LINEAR",
					"output":110
				},
				{
					"input":24,
					"interpolation":"LINEAR",
					"output":111
				},
				{
					"input":17,
					"interpolation":"LINEAR",
					"output":112
				},
				{
					"input":17,
					"interpolation":"STEP",
					"output":35
				},
				{
					"input":24,
					"interpolation":"LINEAR",
					"output":113
				},
				{
					"input":17,
					"interpolation":"STEP",
					"output":114
				},
				{
					"input":17,
					"interpolation":"LINEAR",
					"output":115
				},
				{
					"input":24,
					"interpolation":"LINEAR",
					"output":116
				},
				{
					"input":17,
					"interpolation":"STEP",
					"output":117
				},
				{
					"input":17,
					"interpolation":"STEP",
					"output":41
				},
				{
					"input":24,
					"interpolation":"LINEAR",
					"output":118
				},
				{
					"input":17,
					"interpolation":"LINEAR",
					"output":119
				},
				{
					"input":17,
					"interpolation":"LINEAR",
					"output":120
				},
				{
					"input":24,
					"interpolation":"LINEAR",
					"output":121
				},
				{
					"input":17,
					"interpolation":"LINEAR",
					"output":122
				},
				{
					"input":17,
					"interpolation":"LINEAR",
					"output":123
				},
				{
					"input":24,
					"interpolation":"LINEAR",
					"output":124
				},
				{
					"input":17,
					"interpolation":"STEP",
					"output":125
				},
				{
					"input":17,
					"interpolation":"STEP",
					"output":50
				},
				{
					"input":24,
					"interpolation":"LINEAR",
					"output":126
				},
				{
					"input":17,
					"interpolation":"STEP",
					"output":127
				},
				{
					"input":17,
					"interpolation":"LINEAR",
					"output":128
				},
				{
					"input":24,
					"interpolation":"LINEAR",
					"output":129
				},
				{
					"input":17,
					"interpolation":"STEP",
					"output":130
				},
				{
					"input":17,
					"interpolation":"LINEAR",
					"output":131
				},
				{
					"input":24,
					"interpolation":"LINEAR",
					"output":132
				},
				{
					"input":17,
					"interpolation":"LINEAR",
					"output":133
				},
				{
					"input":17,
					"interpolation":"STEP",
					"output":59
				},
				{
					"input":24,
					"interpolation":"LINEAR",
					"output":134
				},
				{
					"input":17,
					"interpolation":"LINEAR",
					"output":135
				},
				{
					"input":17,
					"interpolation":"LINEAR",
					"output":136
				},
				{
					"input":24,
					"interpolation":"LINEAR",
					"output":137
				},
				{
					"input":17,
					"interpolation":"STEP",
					"output":138
				},
				{
					"input":17,
					"interpolation":"LINEAR",
					"output":139
				},
				{
					"input":24,
					"interpolation":"LINEAR",
					"output":140
				},
				{
					"input":17,
					"interpolation":"STEP",
					"output":141
				},
				{
					"input":17,
					"interpolation":"STEP",
					"output":68
				},
				{
					"input":24,
					"interpolation":"LINEAR",
					"output":142
				},
				{
					"input":17,
					"interpolation":"STEP",
					"output":143
				},
				{
					"input":17,
					"interpolation":"LINEAR",
					"output":144
				},
				{
					"input":24,
					"interpolation":"LINEAR",
					"output":145
				},
				{
					"input":17,
					"interpolation":"LINEAR",
					"output":146
				},
				{
					"input":17,
					"interpolation":"LINEAR",
					"output":147
				},
				{
					"input":24,
					"interpolation":"LINEAR",
					"output":148
				},
				{
					"input":17,
					"interpolation":"STEP",
					"output":149
				},
				{
					"input":17,
					"interpolation":"STEP",
					"output":77
				},
				{
					"input":24,
					"interpolation":"LINEAR",
					"output":150
				},
				{
					"input":17,
					"interpolation":"STEP",
					"output":151
				},
				{
					"input":17,
					"interpolation":"LINEAR",
					"output":152
				},
				{
					"input":24,
					"interpolation":"LINEAR",
					"output":153
				},
				{
					"input":17,
					"interpolation":"LINEAR",
					"output":154
				},
				{
					"input":17,
					"interpolation":"STEP",
					"output":83
				},
				{
					"input":24,
					"interpolation":"LINEAR",
					"output":155
				},
				{
					"input":17,
					"interpolation":"STEP",
					"output":156
				},
				{
					"input":17,
					"interpolation":"LINEAR",
					"output":157
				},
				{
					"input":24,
					"interpolation":"LINEAR",
					"output":158
				},
				{
					"input":17,
					"interpolation":"LINEAR",
					"output":159
				},
				{
					"input":17,
					"interpolation":"STEP",
					"output":89
				},
				{
					"input":24,
					"interpolation":"LINEAR",
					"output":160
				},
				{
					"input":17,
					"interpolation":"STEP",
					"output":161
				},
				{
					"input":17,
					"interpolation":"LINEAR",
					"output":162
				},
				{
					"input":24,
					"interpolation":"LINEAR",
					"output":163
				},
				{
					"input":17,
					"interpolation":"LINEAR",
					"output":164
				},
				{
					"input":17,
					"interpolation":"LINEAR",
					"output":165
				},
				{
					"input":24,
					"interpolation":"LINEAR",
					"output":166
				},
				{
					"input":17,
					"interpolation":"LINEAR",
					"output":167
				},
				{
					"input":17,
					"interpolation":"STEP",
					"output":98
				},
				{
					"input":24,
					"interpolation":"LINEAR",
					"output":168
				},
				{
					"input":17,
					"interpolation":"LINEAR",
					"output":169
				},
				{
					"input":17,
					"interpolation":"LINEAR",
					"output":170
				},
				{
					"input":24,
					"interpolation":"LINEAR",
					"output":171
				},
				{
					"input":17,
					"interpolation":"LINEAR",
					"output":172
				},
				{
					"input":17,
					"interpolation":"LINEAR",
					"output":173
				},
				{
					"input":24,
					"interpolation":"LINEAR",
					"output":174
				},
				{
					"input":17,
					"interpolation":"LINEAR",
					"output":175
				}
			]
		}
	],
	"materials":[
		{
			"doubleSided":true,
			"name":"Bloody",
			"pbrMetallicRoughness":{
				"baseColorTexture":{
					"index":0
				},
				"metallicFactor":0,
				"roughnessFactor":0.40454545617103577
			}
		},
		{
			"doubleSided":true,
			"name":"Meat",
			"pbrMetallicRoughness":{
				"baseColorTexture":{
					"index":1
				},
				"metallicFactor":0,
				"roughnessFactor":0.37727275490760803
			}
		}
	],
	"meshes":[
		{
			"name":"\u041a\u0443\u0431.009",
			"primitives":[
				{
					"attributes":{
						"POSITION":0,
						"NORMAL":1,
						"TEXCOORD_0":2,
						"JOINTS_0":3,
						"JOINTS_1":4,
						"WEIGHTS_0":5,
						"WEIGHTS_1":6
					},
					"indices":7,
					"material":0
				},
				{
					"attributes":{
						"POSITION":8,
						"NORMAL":9,
						"TEXCOORD_0":10,
						"JOINTS_0":11,
						"JOINTS_1":12,
						"WEIGHTS_0":13,
						"WEIGHTS_1":14
					},
					"indices":15,
					"material":1
				}
			]
		}
	],
	"textures":[
		{
			"sampler":0,
			"source":0
		},
		{
			"sampler":0,
			"source":1
		}
	],
	"images":[
		{
			"mimeType":"image/png",
			"name":"Bloody_txtr",
			"uri":"../../models/enemies/textures/Bloody_txtr.png"
		},
		{
			"mimeType":"image/png",
			"name":"Meat_bake",
			"uri":"../../models/enemies/textures/Meat_bake.png"
		}
	],
	"skins":[
		{
			"inverseBindMatrices":16,
			"joints":[
				30,
				19,
				12,
				1,
				0,
				3,
				2,
				5,
				4,
				8,
				7,
				6,
				11,
				10,
				9,
				15,
				14,
				13,
				18,
				17,
				16,
				21,
				20,
				23,
				22,
				26,
				25,
				24,
				29,
				28,
				27
			],
			"name":"Bloody_skeleton"
		}
	],
	"accessors":[
		{
			"bufferView":0,
			"componentType":5126,
			"count":754,
			"max":[
				1.0721051692962646,
				12.16867446899414,
				2.913411855697632
			],
			"min":[
				-1.4147274494171143,
				-0.056801795959472656,
				-3.1651055812835693
			],
			"type":"VEC3"
		},
		{
			"bufferView":1,
			"componentType":5126,
			"count":754,
			"type":"VEC3"
		},
		{
			"bufferView":2,
			"componentType":5126,
			"count":754,
			"type":"VEC2"
		},
		{
			"bufferView":3,
			"componentType":5121,
			"count":754,
			"type":"VEC4"
		},
		{
			"bufferView":4,
			"componentType":5121,
			"count":754,
			"type":"VEC4"
		},
		{
			"bufferView":5,
			"componentType":5126,
			"count":754,
			"type":"VEC4"
		},
		{
			"bufferView":6,
			"componentType":5126,
			"count":754,
			"type":"VEC4"
		},
		{
			"bufferView":7,
			"componentType":5123,
			"count":1110,
			"type":"SCALAR"
		},
		{
			"bufferView":8,
			"componentType":5126,
			"count":512,
			"max":[
				2.596440076828003,
				12.05816650390625,
				5.713996887207031
			],
			"min":[
				-1.320334553718567,
				8.13414478302002,
				-6.16134786605835
			],
			"type":"VEC3"
		},
		{
			"bufferView":9,
			"componentType":5126,
			"count":512,
			"type":"VEC3"
		},
		{
			"bufferView":10,
			"componentType":5126,
			"count":512,
			"type":"VEC2"
		},
		{
			"bufferView":11,
			"componentType":5121,
			"count":512,
			"type":"VEC4"
		},
		{
			"bufferView":12,
			"componentType":5121,
			"count":512,
			"type":"VEC4"
		},
		{
			"bufferView":13,
			"componentType":5126,
			"count":512,
			"type":"VEC4"
		},
		{
			"bufferView":14,
			"componentType":5126,
			"count":512,
			"type":"VEC4"
		},
		{
			"bufferView":15,
			"componentType":5123,
			"count":744,
			"type":"SCALAR"
		},
		{
			"bufferView":16,
			"componentType":5126,
			"count":31,
			"type":"MAT4"
		},
		{
			"bufferView":17,
			"componentType":5126,
			"count":2,
			"max":[
				0.7083333333333334
			],
			"min":[
				0.041666666666666664
			],
			"type":"SCALAR"
		},
		{
			"bufferView":18,
			"componentType":5126,
			"count":2,
			"type":"VEC3"
		},
		{
			"bufferView":19,
			"componentType":5126,
			"count":2,
			"type":"VEC4"
		},
		{
			"bufferView":20,
			"componentType":5126,
			"count":2,
			"type":"VEC3"
		},
		{
			"bufferView":21,
			"componentType":5126,
			"count":2,
			"type":"VEC3"
		},
		{
			"bufferView":22,
			"componentType":5126,
			"count":2,
			"type":"VEC3"
		},
		{
			"bufferView":23,
			"componentType":5126,
			"count":2,
			"type":"VEC3"
		},
		{
			"bufferView":24,
			"componentType":5126,
			"count":17,
			"max":[
				0.7083333333333334
			],
			"min":[
				0.041666666666666664
			],
			"type":"SCALAR"
		},
		{
			"bufferView":25,
			"componentType":5126,
			"count":17,
			"type":"VEC4"
		},
		{
			"bufferView":26,
			"componentType":5126,
			"count":2,
			"type":"VEC3"
		},
		{
			"bufferView":27,
			"componentType":5126,
			"count":17,
			"type":"VEC4"
		},
		{
			"bufferView":28,
			"componentType":5126,
			"count":2,
			"type":"VEC3"
		},
		{
			"bufferView":29,
			"componentType":5126,
			"count":2,
			"type":"VEC3"
		},
		{
			"bufferView":30,
			"componentType":5126,
			"count":17,
			"type":"VEC4"
		},
		{
			"bufferView":31,
			"componentType":5126,
			"count":2,
			"type":"VEC3"
		},
		{
			"bufferView":32,
			"componentType":5126,
			"count":2,
			"type":"VEC3"
		},
		{
			"bufferView":33,
			"componentType":5126,
			"count":17,
			"type":"VEC4"
		},
		{
			"bufferView":34,
			"componentType":5126,
			"count":2,
			"type":"VEC3"
		},
		{
			"bufferView":35,
			"componentType":5126,
			"count":2,
			"type":"VEC3"
		},
		{
			"bufferView":36,
			"componentType":5126,
			"count":17,
			"type":"VEC4"
		},
		{
			"bufferView":37,
			"componentType":5126,
			"count":2,
			"type":"VEC3"
		},
		{
			"bufferView":38,
			"componentType":5126,
			"count":2,
			"type":"VEC3"
		},
		{
			"bufferView":39,
			"componentType":5126,
			"count":17,
			"type":"VEC4"
		},
		{
			"bufferView":40,
			"componentType":5126,
			"count":2,
			"type":"VEC3"
		},
		{
			"bufferView":41,
			"componentType":5126,
			"count":2,
			"type":"VEC3"
		},
		{
			"bufferView":42,
			"componentType":5126,
			"count":17,
			"type":"VEC4"
		},
		{
			"bufferView":43,
			"componentType":5126,
			"count":2,
			"type":"VEC3"
		},
		{
			"bufferView":44,
			"componentType":5126,
			"count":2,
			"type":"VEC3"
		},
		{
			"bufferView":45,
			"componentType":5126,
			"count":17,
			"type":"VEC4"
		},
		{
			"bufferView":46,
			"componentType":5126,
			"count":2,
			"type":"VEC3"
		},
		{
			"bufferView":47,
			"componentType":5126,
			"count":2,
			"type":"VEC3"
		},
		{
			"bufferView":48,
			"componentType":5126,
			"count":17,
			"type":"VEC4"
		},
		{
			"bufferView":49,
			"componentType":5126,
			"count":2,
			"type":"VEC3"
		},
		{
			"bufferView":50,
			"componentType":5126,
			"count":2,
			"type":"VEC3"
		},
		{
			"bufferView":51,
			"componentType":5126,
			"count":17,
			"type":"VEC4"
		},
		{
			"bufferView":52,
			"componentType":5126,
			"count":2,
			"type":"VEC3"
		},
		{
			"bufferView":53,
			"componentType":5126,
			"count":2,
			"type":"VEC3"
		},
		{
			"bufferView":54,
			"componentType":5126,
			"count":17,
			"type":"VEC4"
		},
		{
			"bufferView":55,
			"componentType":5126,
			"count":2,
			"type":"VEC3"
		},
		{
			"bufferView":56,
			"componentType":5126,
			"count":2,
			"type":"VEC3"
		},
		{
			"bufferView":57,
			"componentType":5126,
			"count":17,
			"type":"VEC4"
		},
		{
			"bufferView":58,
			"componentType":5126,
			"count":2,
			"type":"VEC3"
		},
		{
			"bufferView":59,
			"componentType":5126,
			"count":2,
			"type":"VEC3"
		},
		{
			"bufferView":60,
			"componentType":5126,
			"count":17,
			"type":"VEC4"
		},
		{
			"bufferView":61,
			"componentType":5126,
			"count":2,
			"type":"VEC3"
		},
		{
			"bufferView":62,
			"componentType":5126,
			"count":2,
			"type":"VEC3"
		},
		{
			"bufferView":63,
			"componentType":5126,
			"count":17,
			"type":"VEC4"
		},
		{
			"bufferView":64,
			"componentType":5126,
			"count":2,
			"type":"VEC3"
		},
		{
			"bufferView":65,
			"componentType":5126,
			"count":2,
			"type":"VEC3"
		},
		{
			"bufferView":66,
			"componentType":5126,
			"count":17,
			"type":"VEC4"
		},
		{
			"bufferView":67,
			"componentType":5126,
			"count":2,
			"type":"VEC3"
		},
		{
			"bufferView":68,
			"componentType":5126,
			"count":2,
			"type":"VEC3"
		},
		{
			"bufferView":69,
			"componentType":5126,
			"count":17,
			"type":"VEC4"
		},
		{
			"bufferView":70,
			"componentType":5126,
			"count":2,
			"type":"VEC3"
		},
		{
			"bufferView":71,
			"componentType":5126,
			"count":2,
			"type":"VEC3"
		},
		{
			"bufferView":72,
			"componentType":5126,
			"count":17,
			"type":"VEC4"
		},
		{
			"bufferView":73,
			"componentType":5126,
			"count":2,
			"type":"VEC3"
		},
		{
			"bufferView":74,
			"componentType":5126,
			"count":2,
			"type":"VEC3"
		},
		{
			"bufferView":75,
			"componentType":5126,
			"count":17,
			"type":"VEC4"
		},
		{
			"bufferView":76,
			"componentType":5126,
			"count":2,
			"type":"VEC3"
		},
		{
			"bufferView":77,
			"componentType":5126,
			"count":2,
			"type":"VEC3"
		},
		{
			"bufferView":78,
			"componentType":5126,
			"count":17,
			"type":"VEC4"
		},
		{
			"bufferView":79,
			"componentType":5126,
			"count":2,
			"type":"VEC3"
		},
		{
			"bufferView":80,
			"componentType":5126,
			"count":2,
			"type":"VEC3"
		},
		{
			"bufferView":81,
			"componentType":5126,
			"count":17,
			"type":"VEC4"
		},
		{
			"bufferView":82,
			"componentType":5126,
			"count":2,
			"type":"VEC3"
		},
		{
			"bufferView":83,
			"componentType":5126,
			"count":2,
			"type":"VEC3"
		},
		{
			"bufferView":84,
			"componentType":5126,
			"count":17,
			"type":"VEC4"
		},
		{
			"bufferView":85,
			"componentType":5126,
			"count":2,
			"type":"VEC3"
		},
		{
			"bufferView":86,
			"componentType":5126,
			"count":2,
			"type":"VEC3"
		},
		{
			"bufferView":87,
			"componentType":5126,
			"count":17,
			"type":"VEC4"
		},
		{
			"bufferView":88,
			"componentType":5126,
			"count":2,
			"type":"VEC3"
		},
		{
			"bufferView":89,
			"componentType":5126,
			"count":2,
			"type":"VEC3"
		},
		{
			"bufferView":90,
			"componentType":5126,
			"count":2,
			"type":"VEC4"
		},
		{
			"bufferView":91,
			"componentType":5126,
			"count":2,
			"type":"VEC3"
		},
		{
			"bufferView":92,
			"componentType":5126,
			"count":2,
			"type":"VEC3"
		},
		{
			"bufferView":93,
			"componentType":5126,
			"count":2,
			"type":"VEC4"
		},
		{
			"bufferView":94,
			"componentType":5126,
			"count":2,
			"type":"VEC3"
		},
		{
			"bufferView":95,
			"componentType":5126,
			"count":2,
			"type":"VEC3"
		},
		{
			"bufferView":96,
			"componentType":5126,
			"count":2,
			"type":"VEC4"
		},
		{
			"bufferView":97,
			"componentType":5126,
			"count":2,
			"type":"VEC3"
		},
		{
			"bufferView":98,
			"componentType":5126,
			"count":2,
			"type":"VEC3"
		},
		{
			"bufferView":99,
			"componentType":5126,
			"count":2,
			"type":"VEC4"
		},
		{
			"bufferView":100,
			"componentType":5126,
			"count":2,
			"type":"VEC3"
		},
		{
			"bufferView":101,
			"componentType":5126,
			"count":2,
			"type":"VEC3"
		},
		{
			"bufferView":102,
			"componentType":5126,
			"count":2,
			"type":"VEC4"
		},
		{
			"bufferView":103,
			"componentType":5126,
			"count":2,
			"type":"VEC3"
		},
		{
			"bufferView":104,
			"componentType":5126,
			"count":2,
			"type":"VEC3"
		},
		{
			"bufferView":105,
			"componentType":5126,
			"count":2,
			"type":"VEC4"
		},
		{
			"bufferView":106,
			"componentType":5126,
			"count":2,
			"type":"VEC3"
		},
		{
			"bufferView":107,
			"componentType":5126,
			"count":2,
			"type":"VEC3"
		},
		{
			"bufferView":108,
			"componentType":5126,
			"count":17,
			"type":"VEC4"
		},
		{
			"bufferView":109,
			"componentType":5126,
			"count":2,
			"type":"VEC3"
		},
		{
			"bufferView":110,
			"componentType":5126,
			"count":2,
			"type":"VEC3"
		},
		{
			"bufferView":111,
			"componentType":5126,
			"count":17,
			"type":"VEC4"
		},
		{
			"bufferView":112,
			"componentType":5126,
			"count":2,
			"type":"VEC3"
		},
		{
			"bufferView":113,
			"componentType":5126,
			"count":17,
			"type":"VEC4"
		},
		{
			"bufferView":114,
			"componentType":5126,
			"count":2,
			"type":"VEC3"
		},
		{
			"bufferView":115,
			"componentType":5126,
			"count":2,
			"type":"VEC3"
		},
		{
			"bufferView":116,
			"componentType":5126,
			"count":17,
			"type":"VEC4"
		},
		{
			"bufferView":117,
			"componentType":5126,
			"count":2,
			"type":"VEC3"
		},
		{
			"bufferView":118,
			"componentType":5126,
			"count":17,
			"type":"VEC4"
		},
		{
			"bufferView":119,
			"componentType":5126,
			"count":2,
			"type":"VEC3"
		},
		{
			"bufferView":120,
			"componentType":5126,
			"count":2,
			"type":"VEC3"
		},
		{
			"bufferView":121,
			"componentType":5126,
			"count":17,
			"type":"VEC4"
		},
		{
			"bufferView":122,
			"componentType":5126,
			"count":2,
			"type":"VEC3"
		},
		{
			"bufferView":123,
			"componentType":5126,
			"count":2,
			"type":"VEC3"
		},
		{
			"bufferView":124,
			"componentType":5126,
			"count":17,
			"type":"VEC4"
		},
		{
			"bufferView":125,
			"componentType":5126,
			"count":2,
			"type":"VEC3"
		},
		{
			"bufferView":126,
			"componentType":5126,
			"count":17,
			"type":"VEC4"
		},
		{
			"bufferView":127,
			"componentType":5126,
			"count":2,
			"type":"VEC3"
		},
		{
			"bufferView":128,
			"componentType":5126,
			"count":2,
			"type":"VEC3"
		},
		{
			"bufferView":129,
			"componentType":5126,
			"count":17,
			"type":"VEC4"
		},
		{
			"bufferView":130,
			"componentType":5126,
			"count":2,
			"type":"VEC3"
		},
		{
			"bufferView":131,
			"componentType":5126,
			"count":2,
			"type":"VEC3"
		},
		{
			"bufferView":132,
			"componentType":5126,
			"count":17,
			"type":"VEC4"
		},
		{
			"bufferView":133,
			"componentType":5126,
			"count":2,
			"type":"VEC3"
		},
		{
			"bufferView":134,
			"componentType":5126,
			"count":17,
			"type":"VEC4"
		},
		{
			"bufferView":135,
			"componentType":5126,
			"count":2,
			"type":"VEC3"
		},
		{
			"bufferView":136,
			"componentType":5126,
			"count":2,
			"type":"VEC3"
		},
		{
			"bufferView":137,
			"componentType":5126,
			"count":17,
			"type":"VEC4"
		},
		{
			"bufferView":138,
			"componentType":5126,
			"count":2,
			"type":"VEC3"
		},
		{
			"bufferView":139,
			"componentType":5126,
			"count":2,
			"type":"VEC3"
		},
		{
			"bufferView":140,
			"componentType":5126,
			"count":17,
			"type":"VEC4"
		},
		{
			"bufferView":141,
			"componentType":5126,
			"count":2,
			"type":"VEC3"
		},
		{
			"bufferView":142,
			"componentType":5126,
			"count":17,
			"type":"VEC4"
		},
		{
			"bufferView":143,
			"componentType":5126,
			"count":2,
			"type":"VEC3"
		},
		{
			"bufferView":144,
			"componentType":5126,
			"count":2,
			"type":"VEC3"
		},
		{
			"bufferView":145,
			"componentType":5126,
			"count":17,
			"type":"VEC4"
		},
		{
			"bufferView":146,
			"componentType":5126,
			"count":2,
			"type":"VEC3"
		},
		{
			"bufferView":147,
			"componentType":5126,
			"count":2,
			"type":"VEC3"
		},
		{
			"bufferView":148,
			"componentType":5126,
			"count":17,
			"type":"VEC4"
		},
		{
			"bufferView":149,
			"componentType":5126,
			"count":2,
			"type":"VEC3"
		},
		{
			"bufferView":150,
			"componentType":5126,
			"count":17,
			"type":"VEC4"
		},
		{
			"bufferView":151,
			"componentType":5126,
			"count":2,
			"type":"VEC3"
		},
		{
			"bufferView":152,
			"componentType":5126,
			"count":2,
			"type":"VEC3"
		},
		{
			"bufferView":153,
			"componentType":5126,
			"count":17,
			"type":"VEC4"
		},
		{
			"bufferView":154,
			"componentType":5126,
			"count":2,
			"type":"VEC3"
		},
		{
			"bufferView":155,
			"componentType":5126,
			"count":17,
			"type":"VEC4"
		},
		{
			"bufferView":156,
			"componentType":5126,
			"count":2,
			"type":"VEC3"
		},
		{
			"bufferView":157,
			"componentType":5126,
			"count":2,
			"type":"VEC3"
		},
		{
			"bufferView":158,
			"componentType":5126,
			"count":17,
			"type":"VEC4"
		},
		{
			"bufferView":159,
			"componentType":5126,
			"count":2,
			"type":"VEC3"
		},
		{
			"bufferView":160,
			"componentType":5126,
			"count":17,
			"type":"VEC4"
		},
		{
			"bufferView":161,
			"componentType":5126,
			"count":2,
			"type":"VEC3"
		},
		{
			"bufferView":162,
			"componentType":5126,
			"count":2,
			"type":"VEC3"
		},
		{
			"bufferView":163,
			"componentType":5126,
			"count":17,
			"type":"VEC4"
		},
		{
			"bufferView":164,
			"componentType":5126,
			"count":2,
			"type":"VEC3"
		},
		{
			"bufferView":165,
			"componentType":5126,
			"count":2,
			"type":"VEC3"
		},
		{
			"bufferView":166,
			"componentType":5126,
			"count":17,
			"type":"VEC4"
		},
		{
			"bufferView":167,
			"componentType":5126,
			"count":2,
			"type":"VEC3"
		},
		{
			"bufferView":168,
			"componentType":5126,
			"count":17,
			"type":"VEC4"
		},
		{
			"bufferView":169,
			"componentType":5126,
			"count":2,
			"type":"VEC3"
		},
		{
			"bufferView":170,
			"componentType":5126,
			"count":2,
			"type":"VEC3"
		},
		{
			"bufferView":171,
			"componentType":5126,
			"count":17,
			"type":"VEC4"
		},
		{
			"bufferView":172,
			"componentType":5126,
			"count":2,
			"type":"VEC3"
		},
		{
			"bufferView":173,
			"componentType":5126,
			"count":2,
			"type":"VEC3"
		},
		{
			"bufferView":174,
			"componentType":5126,
			"count":17,
			"type":"VEC4"
		},
		{
			"bufferView":175,
			"componentType":5126,
			"count":2,
			"type":"VEC3"
		}
	],
	"bufferViews":[
		{
			"buffer":0,
			"byteLength":9048,
			"byteOffset":0,
			"target":34962
		},
		{
			"buffer":0,
			"byteLength":9048,
			"byteOffset":9048,
			"target":34962
		},
		{
			"buffer":0,
			"byteLength":6032,
			"byteOffset":18096,
			"target":34962
		},
		{
			"buffer":0,
			"byteLength":3016,
			"byteOffset":24128,
			"target":34962
		},
		{
			"buffer":0,
			"byteLength":3016,
			"byteOffset":27144,
			"target":34962
		},
		{
			"buffer":0,
			"byteLength":12064,
			"byteOffset":30160,
			"target":34962
		},
		{
			"buffer":0,
			"byteLength":12064,
			"byteOffset":42224,
			"target":34962
		},
		{
			"buffer":0,
			"byteLength":2220,
			"byteOffset":54288,
			"target":34963
		},
		{
			"buffer":0,
			"byteLength":6144,
			"byteOffset":56508,
			"target":34962
		},
		{
			"buffer":0,
			"byteLength":6144,
			"byteOffset":62652,
			"target":34962
		},
		{
			"buffer":0,
			"byteLength":4096,
			"byteOffset":68796,
			"target":34962
		},
		{
			"buffer":0,
			"byteLength":2048,
			"byteOffset":72892,
			"target":34962
		},
		{
			"buffer":0,
			"byteLength":2048,
			"byteOffset":74940,
			"target":34962
		},
		{
			"buffer":0,
			"byteLength":8192,
			"byteOffset":76988,
			"target":34962
		},
		{
			"buffer":0,
			"byteLength":8192,
			"byteOffset":85180,
			"target":34962
		},
		{
			"buffer":0,
			"byteLength":1488,
			"byteOffset":93372,
			"target":34963
		},
		{
			"buffer":0,
			"byteLength":1984,
			"byteOffset":94860
		},
		{
			"buffer":0,
			"byteLength":8,
			"byteOffset":96844
		},
		{
			"buffer":0,
			"byteLength":24,
			"byteOffset":96852
		},
		{
			"buffer":0,
			"byteLength":32,
			"byteOffset":96876
		},
		{
			"buffer":0,
			"byteLength":24,
			"byteOffset":96908
		},
		{
			"buffer":0,
			"byteLength":24,
			"byteOffset":96932
		},
		{
			"buffer":0,
			"byteLength":24,
			"byteOffset":96956
		},
		{
			"buffer":0,
			"byteLength":24,
			"byteOffset":96980
		},
		{
			"buffer":0,
			"byteLength":68,
			"byteOffset":97004
		},
		{
			"buffer":0,
			"byteLength":272,
			"byteOffset":97072
		},
		{
			"buffer":0,
			"byteLength":24,
			"byteOffset":97344
		},
		{
			"buffer":0,
			"byteLength":272,
			"byteOffset":97368
		},
		{
			"buffer":0,
			"byteLength":24,
			"byteOffset":97640
		},
		{
			"buffer":0,
			"byteLength":24,
			"byteOffset":97664
		},
		{
			"buffer":0,
			"byteLength":272,
			"byteOffset":97688
		},
		{
			"buffer":0,
			"byteLength":24,
			"byteOffset":97960
		},
		{
			"buffer":0,
			"byteLength":24,
			"byteOffset":97984
		},
		{
			"buffer":0,
			"byteLength":272,
			"byteOffset":98008
		},
		{
			"buffer":0,
			"byteLength":24,
			"byteOffset":98280
		},
		{
			"buffer":0,
			"byteLength":24,
			"byteOffset":98304
		},
		{
			"buffer":0,
			"byteLength":272,
			"byteOffset":98328
		},
		{
			"buffer":0,
			"byteLength":24,
			"byteOffset":98600
		},
		{
			"buffer":0,
			"byteLength":24,
			"byteOffset":98624
		},
		{
			"buffer":0,
			"byteLength":272,
			"byteOffset":98648
		},
		{
			"buffer":0,
			"byteLength":24,
			"byteOffset":98920
		},
		{
			"buffer":0,
			"byteLength":24,
			"byteOffset":98944
		},
		{
			"buffer":0,
			"byteLength":272,
			"byteOffset":98968
		},
		{
			"buffer":0,
			"byteLength":24,
			"byteOffset":99240
		},
		{
			"buffer":0,
			"byteLength":24,
			"byteOffset":99264
		},
		{
			"buffer":0,
			"byteLength":272,
			"byteOffset":99288
		},
		{
			"buffer":0,
			"byteLength":24,
			"byteOffset":99560
		},
		{
			"buffer":0,
			"byteLength":24,
			"byteOffset":99584
		},
		{
			"buffer":0,
			"byteLength":272,
			"byteOffset":99608
		},
		{
			"buffer":0,
			"byteLength":24,
			"byteOffset":99880
		},
		{
			"buffer":0,
			"byteLength":24,
			"byteOffset":99904
		},
		{
			"buffer":0,
			"byteLength":272,
			"byteOffset":99928
		},
		{
			"buffer":0,
			"byteLength":24,
			"byteOffset":100200
		},
		{
			"buffer":0,
			"byteLength":24,
			"byteOffset":100224
		},
		{
			"buffer":0,
			"byteLength":272,
			"byteOffset":100248
		},
		{
			"buffer":0,
			"byteLength":24,
			"byteOffset":100520
		},
		{
			"buffer":0,
			"byteLength":24,
			"byteOffset":100544
		},
		{
			"buffer":0,
			"byteLength":272,
			"byteOffset":100568
		},
		{
			"buffer":0,
			"byteLength":24,
			"byteOffset":100840
		},
		{
			"buffer":0,
			"byteLength":24,
			"byteOffset":100864
		},
		{
			"buffer":0,
			"byteLength":272,
			"byteOffset":100888
		},
		{
			"buffer":0,
			"byteLength":24,
			"byteOffset":101160
		},
		{
			"buffer":0,
			"byteLength":24,
			"byteOffset":101184
		},
		{
			"buffer":0,
			"byteLength":272,
			"byteOffset":101208
		},
		{
			"buffer":0,
			"byteLength":24,
			"byteOffset":101480
		},
		{
			"buffer":0,
			"byteLength":24,
			"byteOffset":101504
		},
		{
			"buffer":0,
			"byteLength":272,
			"byteOffset":101528
		},
		{
			"buffer":0,
			"byteLength":24,
			"byteOffset":101800
		},
		{
			"buffer":0,
			"byteLength":24,
			"byteOffset":101824
		},
		{
			"buffer":0,
			"byteLength":272,
			"byteOffset":101848
		},
		{
			"buffer":0,
			"byteLength":24,
			"byteOffset":102120
		},
		{
			"buffer":0,
			"byteLength":24,
			"byteOffset":102144
		},
		{
			"buffer":0,
			"byteLength":272,
			"byteOffset":102168
		},
		{
			"buffer":0,
			"byteLength":24,
			"byteOffset":102440
		},
		{
			"buffer":0,
			"byteLength":24,
			"byteOffset":102464
		},
		{
			"buffer":0,
			"byteLength":272,
			"byteOffset":102488
		},
		{
			"buffer":0,
			"byteLength":24,
			"byteOffset":102760
		},
		{
			"buffer":0,
			"byteLength":24,
			"byteOffset":102784
		},
		{
			"buffer":0,
			"byteLength":272,
			"byteOffset":102808
		},
		{
			"buffer":0,
			"byteLength":24,
			"byteOffset":103080
		},
		{
			"buffer":0,
			"byteLength":24,
			"byteOffset":103104
		},
		{
			"buffer":0,
			"byteLength":272,
			"byteOffset":103128
		},
		{
			"buffer":0,
			"byteLength":24,
			"byteOffset":103400
		},
		{
			"buffer":0,
			"byteLength":24,
			"byteOffset":103424
		},
		{
			"buffer":0,
			"byteLength":272,
			"byteOffset":103448
		},
		{
			"buffer":0,
			"byteLength":24,
			"byteOffset":103720
		},
		{
			"buffer":0,
			"byteLength":24,
			"byteOffset":103744
		},
		{
			"buffer":0,
			"byteLength":272,
			"byteOffset":103768
		},
		{
			"buffer":0,
			"byteLength":24,
			"byteOffset":104040
		},
		{
			"buffer":0,
			"byteLength":24,
			"byteOffset":104064
		},
		{
			"buffer":0,
			"byteLength":32,
			"byteOffset":104088
		},
		{
			"buffer":0,
			"byteLength":24,
			"byteOffset":104120
		},
		{
			"buffer":0,
			"byteLength":24,
			"byteOffset":104144
		},
		{
			"buffer":0,
			"byteLength":32,
			"byteOffset":104168
		},
		{
			"buffer":0,
			"byteLength":24,
			"byteOffset":104200
		},
		{
			"buffer":0,
			"byteLength":24,
			"byteOffset":104224
		},
		{
			"buffer":0,
			"byteLength":32,
			"byteOffset":104248
		},
		{
			"buffer":0,
			"byteLength":24,
			"byteOffset":104280
		},
		{
			"buffer":0,
			"byteLength":24,
			"byteOffset":104304
		},
		{
			"buffer":0,
			"byteLength":32,
			"byteOffset":104328
		},
		{
			"buffer":0,
			"byteLength":24,
			"byteOffset":104360
		},
		{
			"buffer":0,
			"byteLength":24,
			"byteOffset":104384
		},
		{
			"buffer":0,
			"byteLength":32,
			"byteOffset":104408
		},
		{
			"buffer":0,
			"byteLength":24,
			"byteOffset":104440
		},
		{
			"buffer":0,
			"byteLength":24,
			"byteOffset":104464
		},
		{
			"buffer":0,
			"byteLength":32,
			"byteOffset":104488
		},
		{
			"buffer":0,
			"byteLength":24,
			"byteOffset":104520
		},
		{
			"buffer":0,
			"byteLength":24,
			"byteOffset":104544
		},
		{
			"buffer":0,
			"byteLength":272,
			"byteOffset":104568
		},
		{
			"buffer":0,
			"byteLength":24,
			"byteOffset":104840
		},
		{
			"buffer":0,
			"byteLength":24,
			"byteOffset":104864
		},
		{
			"buffer":0,
			"byteLength":272,
			"byteOffset":104888
		},
		{
			"buffer":0,
			"byteLength":24,
			"byteOffset":105160
		},
		{
			"buffer":0,
			"byteLength":272,
			"byteOffset":105184
		},
		{
			"buffer":0,
			"byteLength":24,
			"byteOffset":105456
		},
		{
			"buffer":0,
			"byteLength":24,
			"byteOffset":105480
		},
		{
			"buffer":0,
			"byteLength":272,
			"byteOffset":105504
		},
		{
			"buffer":0,
			"byteLength":24,
			"byteOffset":105776
		},
		{
			"buffer":0,
			"byteLength":272,
			"byteOffset":105800
		},
		{
			"buffer":0,
			"byteLength":24,
			"byteOffset":106072
		},
		{
			"buffer":0,
			"byteLength":24,
			"byteOffset":106096
		},
		{
			"buffer":0,
			"byteLength":272,
			"byteOffset":106120
		},
		{
			"buffer":0,
			"byteLength":24,
			"byteOffset":106392
		},
		{
			"buffer":0,
			"byteLength":24,
			"byteOffset":106416
		},
		{
			"buffer":0,
			"byteLength":272,
			"byteOffset":106440
		},
		{
			"buffer":0,
			"byteLength":24,
			"byteOffset":106712
		},
		{
			"buffer":0,
			"byteLength":272,
			"byteOffset":106736
		},
		{
			"buffer":0,
			"byteLength":24,
			"byteOffset":107008
		},
		{
			"buffer":0,
			"byteLength":24,
			"byteOffset":107032
		},
		{
			"buffer":0,
			"byteLength":272,
			"byteOffset":107056
		},
		{
			"buffer":0,
			"byteLength":24,
			"byteOffset":107328
		},
		{
			"buffer":0,
			"byteLength":24,
			"byteOffset":107352
		},
		{
			"buffer":0,
			"byteLength":272,
			"byteOffset":107376
		},
		{
			"buffer":0,
			"byteLength":24,
			"byteOffset":107648
		},
		{
			"buffer":0,
			"byteLength":272,
			"byteOffset":107672
		},
		{
			"buffer":0,
			"byteLength":24,
			"byteOffset":107944
		},
		{
			"buffer":0,
			"byteLength":24,
			"byteOffset":107968
		},
		{
			"buffer":0,
			"byteLength":272,
			"byteOffset":107992
		},
		{
			"buffer":0,
			"byteLength":24,
			"byteOffset":108264
		},
		{
			"buffer":0,
			"byteLength":24,
			"byteOffset":108288
		},
		{
			"buffer":0,
			"byteLength":272,
			"byteOffset":108312
		},
		{
			"buffer":0,
			"byteLength":24,
			"byteOffset":108584
		},
		{
			"buffer":0,
			"byteLength":272,
			"byteOffset":108608
		},
		{
			"buffer":0,
			"byteLength":24,
			"byteOffset":108880
		},
		{
			"buffer":0,
			"byteLength":24,
			"byteOffset":108904
		},
		{
			"buffer":0,
			"byteLength":272,
			"byteOffset":108928
		},
		{
			"buffer":0,
			"byteLength":24,
			"byteOffset":109200
		},
		{
			"buffer":0,
			"byteLength":24,
			"byteOffset":109224
		},
		{
			"buffer":0,
			"byteLength":272,
			"byteOffset":109248
		},
		{
			"buffer":0,
			"byteLength":24,
			"byteOffset":109520
		},
		{
			"buffer":0,
			"byteLength":272,
			"byteOffset":109544
		},
		{
			"buffer":0,
			"byteLength":24,
			"byteOffset":109816
		},
		{
			"buffer":0,
			"byteLength":24,
			"byteOffset":109840
		},
		{
			"buffer":0,
			"byteLength":272,
			"byteOffset":109864
		},
		{
			"buffer":0,
			"byteLength":24,
			"byteOffset":110136
		},
		{
			"buffer":0,
			"byteLength":272,
			"byteOffset":110160
		},
		{
			"buffer":0,
			"byteLength":24,
			"byteOffset":110432
		},
		{
			"buffer":0,
			"byteLength":24,
			"byteOffset":110456
		},
		{
			"buffer":0,
			"byteLength":272,
			"byteOffset":110480
		},
		{
			"buffer":0,
			"byteLength":24,
			"byteOffset":110752
		},
		{
			"buffer":0,
			"byteLength":272,
			"byteOffset":110776
		},
		{
			"buffer":0,
			"byteLength":24,
			"byteOffset":111048
		},
		{
			"buffer":0,
			"byteLength":24,
			"byteOffset":111072
		},
		{
			"buffer":0,
			"byteLength":272,
			"byteOffset":111096
		},
		{
			"buffer":0,
			"byteLength":24,
			"byteOffset":111368
		},
		{
			"buffer":0,
			"byteLength":24,
			"byteOffset":111392
		},
		{
			"buffer":0,
			"byteLength":272,
			"byteOffset":111416
		},
		{
			"buffer":0,
			"byteLength":24,
			"byteOffset":111688
		},
		{
			"buffer":0,
			"byteLength":272,
			"byteOffset":111712
		},
		{
			"buffer":0,
			"byteLength":24,
			"byteOffset":111984
		},
		{
			"buffer":0,
			"byteLength":24,
			"byteOffset":112008
		},
		{
			"buffer":0,
			"byteLength":272,
			"byteOffset":112032
		},
		{
			"buffer":0,
			"byteLength":24,
			"byteOffset":112304
		},
		{
			"buffer":0,
			"byteLength":24,
			"byteOffset":112328
		},
		{
			"buffer":0,
			"byteLength":272,
			"byteOffset":112352
		},
		{
			"buffer":0,
			"byteLength":24,
			"byteOffset":112624
		}
	],
	"samplers":[
		{
			"magFilter":9729,
			"minFilter":9987
		}
	],
	"buffers":[
		{
			"byteLength":112648,
			"uri":"Bloody-061fe3fcc145f196ca517739933d8303.bin"
		}
	]
}
