{
	"asset":{
		"generator":"Khronos glTF Blender I/O v5.1.19",
		"version":"2.0"
	},
	"scene":0,
	"scenes":[
		{
			"name":"Scene",
			"nodes":[
				10
			]
		}
	],
	"nodes":[
		{
			"name":"Head",
			"rotation":[
				1.4612526744173238e-09,
				-1.857438469698991e-08,
				0.003357976907864213,
				0.9999943971633911
			],
			"translation":[
				7.916993283174634e-09,
				1.5114808082580566,
				1.467412857891759e-10
			]
		},
		{
			"children":[
				0
			],
			"name":"\u041a\u043e\u0441\u0442\u044c.001",
			"rotation":[
				-6.484520298499774e-08,
				-1.530606397182055e-07,
				0.032966095954179764,
				0.999456524848938
			],
			"scale":[
				1,
				1.0000001192092896,
				1
			],
			"translation":[
				-2.870325310766475e-08,
				0.9131790399551392,
				-3.2872904398573155e-10
			]
		},
		{
			"name":"\u041a\u043e\u0441\u0442\u044c.007",
			"rotation":[
				0.018475187942385674,
				9.517187322671816e-07,
				-0.6475299596786499,
				0.7618160247802734
			],
			"scale":[
				1,
				1.0000001192092896,
				1
			],
			"translation":[
				1.862645149230957e-09,
				2.4166414737701416,
				9.057112038135529e-08
			]
		},
		{
			"children":[
				2
			],
			"name":"\u041a\u043e\u0441\u0442\u044c.006",
			"rotation":[
				-0.02372659556567669,
				-0.00014141052088234574,
				0.11948899179697037,
				0.9925520420074463
			],
			"translation":[
				1.862645149230957e-08,
				2.229943037033081,
				5.477340891957283e-08
			]
		},
		{
			"children":[
				3
			],
			"name":"\u041a\u043e\u0441\u0442\u044c.003",
			"rotation":[
				-0.9964287281036377,
				-0.07808350026607513,
				-0.017144756391644478,
				0.02718275599181652
			],
			"scale":[
				0.9999925494194031,
				0.9999997019767761,
				0.9999991655349731
			],
			"translation":[
				0.030320236459374428,
				-0.03798093646764755,
				-0.4727908968925476
			]
		},
		{
			"name":"\u041a\u043e\u0441\u0442\u044c.008",
			"rotation":[
				-0.02016308158636093,
				6.155252663120336e-07,
				-0.6474722027778625,
				0.7618223428726196
			],
			"scale":[
				1.0000001192092896,
				0.9999999403953552,
				1
			],
			"translation":[
				0,
				2.4164621829986572,
				-2.8405338525772095e-08
			]
		},
		{
			"children":[
				5
			],
			"name":"\u041a\u043e\u0441\u0442\u044c.005",
			"rotation":[
				0.03645390644669533,
				0.0001945497642736882,
				0.11877036839723587,
				0.9922522902488708
			],
			"scale":[
				1,
				1,
				1.0000001192092896
			],
			"translation":[
				3.5390257835388184e-08,
				2.2406606674194336,
				1.6298145055770874e-09
			]
		},
		{
			"children":[
				6
			],
			"name":"\u041a\u043e\u0441\u0442\u044c.004",
			"rotation":[
				0.9962555766105652,
				0.07767263054847717,
				-0.017073657363653183,
				0.033915333449840546
			],
			"scale":[
				1.0000041723251343,
				1.0000001192092896,
				1.0000007152557373
			],
			"translation":[
				0.03012721985578537,
				-0.03192266449332237,
				0.4667295217514038
			]
		},
		{
			"children":[
				1,
				4,
				7
			],
			"name":"\u041a\u043e\u0441\u0442\u044c",
			"rotation":[
				1.6678612269060977e-08,
				-5.500223920762437e-08,
				-0.015932532027363777,
				0.9998731017112732
			],
			"scale":[
				0.9999999403953552,
				1,
				1
			]
		},
		{
			"extras":{
				"asset_bridge":{}
			},
			"mesh":0,
			"name":"Hypno",
			"skin":0
		},
		{
			"children":[
				9,
				8
			],
			"name":"Hypno_skeleton",
			"translation":[
				-0.2805972695350647,
				5.076709747314453,
				0.01013230811804533
			]
		}
	],
	"animations":[
		{
			"channels":[
				{
					"sampler":0,
					"target":{
						"node":8,
						"path":"translation"
					}
				},
				{
					"sampler":1,
					"target":{
						"node":8,
						"path":"rotation"
					}
				},
				{
					"sampler":2,
					"target":{
						"node":8,
						"path":"scale"
					}
				},
				{
					"sampler":3,
					"target":{
						"node":1,
						"path":"translation"
					}
				},
				{
					"sampler":4,
					"target":{
						"node":1,
						"path":"rotation"
					}
				},
				{
					"sampler":5,
					"target":{
						"node":1,
						"path":"scale"
					}
				},
				{
					"sampler":6,
					"target":{
						"node":0,
						"path":"translation"
					}
				},
				{
					"sampler":7,
					"target":{
						"node":0,
						"path":"rotation"
					}
				},
				{
					"sampler":8,
					"target":{
						"node":0,
						"path":"scale"
					}
				},
				{
					"sampler":9,
					"target":{
						"node":4,
						"path":"translation"
					}
				},
				{
					"sampler":10,
					"target":{
						"node":4,
						"path":"rotation"
					}
				},
				{
					"sampler":11,
					"target":{
						"node":4,
						"path":"scale"
					}
				},
				{
					"sampler":12,
					"target":{
						"node":3,
						"path":"translation"
					}
				},
				{
					"sampler":13,
					"target":{
						"node":3,
						"path":"rotation"
					}
				},
				{
					"sampler":14,
					"target":{
						"node":3,
						"path":"scale"
					}
				},
				{
					"sampler":15,
					"target":{
						"node":2,
						"path":"translation"
					}
				},
				{
					"sampler":16,
					"target":{
						"node":2,
						"path":"rotation"
					}
				},
				{
					"sampler":17,
					"target":{
						"node":2,
						"path":"scale"
					}
				},
				{
					"sampler":18,
					"target":{
						"node":7,
						"path":"translation"
					}
				},
				{
					"sampler":19,
					"target":{
						"node":7,
						"path":"rotation"
					}
				},
				{
					"sampler":20,
					"target":{
						"node":7,
						"path":"scale"
					}
				},
				{
					"sampler":21,
					"target":{
						"node":6,
						"path":"translation"
					}
				},
				{
					"sampler":22,
					"target":{
						"node":6,
						"path":"rotation"
					}
				},
				{
					"sampler":23,
					"target":{
						"node":6,
						"path":"scale"
					}
				},
				{
					"sampler":24,
					"target":{
						"node":5,
						"path":"translation"
					}
				},
				{
					"sampler":25,
					"target":{
						"node":5,
						"path":"rotation"
					}
				},
				{
					"sampler":26,
					"target":{
						"node":5,
						"path":"scale"
					}
				}
			],
			"name":"Hypno_kill",
			"samplers":[
				{
					"input":7,
					"interpolation":"STEP",
					"output":8
				},
				{
					"input":7,
					"interpolation":"STEP",
					"output":9
				},
				{
					"input":7,
					"interpolation":"STEP",
					"output":10
				},
				{
					"input":7,
					"interpolation":"STEP",
					"output":11
				},
				{
					"input":7,
					"interpolation":"STEP",
					"output":12
				},
				{
					"input":7,
					"interpolation":"STEP",
					"output":13
				},
				{
					"input":7,
					"interpolation":"STEP",
					"output":14
				},
				{
					"input":15,
					"interpolation":"LINEAR",
					"output":16
				},
				{
					"input":7,
					"interpolation":"STEP",
					"output":17
				},
				{
					"input":7,
					"interpolation":"STEP",
					"output":18
				},
				{
					"input":7,
					"interpolation":"STEP",
					"output":19
				},
				{
					"input":7,
					"interpolation":"STEP",
					"output":20
				},
				{
					"input":7,
					"interpolation":"STEP",
					"output":21
				},
				{
					"input":7,
					"interpolation":"STEP",
					"output":22
				},
				{
					"input":7,
					"interpolation":"STEP",
					"output":23
				},
				{
					"input":7,
					"interpolation":"STEP",
					"output":24
				},
				{
					"input":7,
					"interpolation":"STEP",
					"output":25
				},
				{
					"input":7,
					"interpolation":"STEP",
					"output":26
				},
				{
					"input":7,
					"interpolation":"STEP",
					"output":27
				},
				{
					"input":7,
					"interpolation":"STEP",
					"output":28
				},
				{
					"input":7,
					"interpolation":"STEP",
					"output":29
				},
				{
					"input":7,
					"interpolation":"STEP",
					"output":30
				},
				{
					"input":7,
					"interpolation":"STEP",
					"output":31
				},
				{
					"input":7,
					"interpolation":"STEP",
					"output":32
				},
				{
					"input":7,
					"interpolation":"STEP",
					"output":33
				},
				{
					"input":7,
					"interpolation":"STEP",
					"output":34
				},
				{
					"input":7,
					"interpolation":"STEP",
					"output":35
				}
			]
		},
		{
			"channels":[
				{
					"sampler":0,
					"target":{
						"node":8,
						"path":"translation"
					}
				},
				{
					"sampler":1,
					"target":{
						"node":8,
						"path":"rotation"
					}
				},
				{
					"sampler":2,
					"target":{
						"node":8,
						"path":"scale"
					}
				},
				{
					"sampler":3,
					"target":{
						"node":1,
						"path":"translation"
					}
				},
				{
					"sampler":4,
					"target":{
						"node":1,
						"path":"rotation"
					}
				},
				{
					"sampler":5,
					"target":{
						"node":1,
						"path":"scale"
					}
				},
				{
					"sampler":6,
					"target":{
						"node":0,
						"path":"translation"
					}
				},
				{
					"sampler":7,
					"target":{
						"node":0,
						"path":"rotation"
					}
				},
				{
					"sampler":8,
					"target":{
						"node":0,
						"path":"scale"
					}
				},
				{
					"sampler":9,
					"target":{
						"node":4,
						"path":"translation"
					}
				},
				{
					"sampler":10,
					"target":{
						"node":4,
						"path":"rotation"
					}
				},
				{
					"sampler":11,
					"target":{
						"node":4,
						"path":"scale"
					}
				},
				{
					"sampler":12,
					"target":{
						"node":3,
						"path":"translation"
					}
				},
				{
					"sampler":13,
					"target":{
						"node":3,
						"path":"rotation"
					}
				},
				{
					"sampler":14,
					"target":{
						"node":3,
						"path":"scale"
					}
				},
				{
					"sampler":15,
					"target":{
						"node":2,
						"path":"translation"
					}
				},
				{
					"sampler":16,
					"target":{
						"node":2,
						"path":"rotation"
					}
				},
				{
					"sampler":17,
					"target":{
						"node":2,
						"path":"scale"
					}
				},
				{
					"sampler":18,
					"target":{
						"node":7,
						"path":"translation"
					}
				},
				{
					"sampler":19,
					"target":{
						"node":7,
						"path":"rotation"
					}
				},
				{
					"sampler":20,
					"target":{
						"node":7,
						"path":"scale"
					}
				},
				{
					"sampler":21,
					"target":{
						"node":6,
						"path":"translation"
					}
				},
				{
					"sampler":22,
					"target":{
						"node":6,
						"path":"rotation"
					}
				},
				{
					"sampler":23,
					"target":{
						"node":6,
						"path":"scale"
					}
				},
				{
					"sampler":24,
					"target":{
						"node":5,
						"path":"translation"
					}
				},
				{
					"sampler":25,
					"target":{
						"node":5,
						"path":"rotation"
					}
				},
				{
					"sampler":26,
					"target":{
						"node":5,
						"path":"scale"
					}
				}
			],
			"name":"Hypno_moving",
			"samplers":[
				{
					"input":7,
					"interpolation":"STEP",
					"output":8
				},
				{
					"input":7,
					"interpolation":"STEP",
					"output":9
				},
				{
					"input":7,
					"interpolation":"STEP",
					"output":10
				},
				{
					"input":7,
					"interpolation":"STEP",
					"output":11
				},
				{
					"input":15,
					"interpolation":"LINEAR",
					"output":36
				},
				{
					"input":7,
					"interpolation":"STEP",
					"output":37
				},
				{
					"input":7,
					"interpolation":"LINEAR",
					"output":38
				},
				{
					"input":15,
					"interpolation":"LINEAR",
					"output":39
				},
				{
					"input":7,
					"interpolation":"STEP",
					"output":40
				},
				{
					"input":7,
					"interpolation":"LINEAR",
					"output":41
				},
				{
					"input":15,
					"interpolation":"LINEAR",
					"output":42
				},
				{
					"input":7,
					"interpolation":"LINEAR",
					"output":43
				},
				{
					"input":7,
					"interpolation":"LINEAR",
					"output":44
				},
				{
					"input":15,
					"interpolation":"LINEAR",
					"output":45
				},
				{
					"input":7,
					"interpolation":"STEP",
					"output":46
				},
				{
					"input":7,
					"interpolation":"LINEAR",
					"output":47
				},
				{
					"input":15,
					"interpolation":"LINEAR",
					"output":48
				},
				{
					"input":7,
					"interpolation":"LINEAR",
					"output":49
				},
				{
					"input":7,
					"interpolation":"STEP",
					"output":27
				},
				{
					"input":15,
					"interpolation":"LINEAR",
					"output":50
				},
				{
					"input":7,
					"interpolation":"STEP",
					"output":51
				},
				{
					"input":7,
					"interpolation":"LINEAR",
					"output":52
				},
				{
					"input":15,
					"interpolation":"LINEAR",
					"output":53
				},
				{
					"input":7,
					"interpolation":"LINEAR",
					"output":54
				},
				{
					"input":7,
					"interpolation":"LINEAR",
					"output":55
				},
				{
					"input":15,
					"interpolation":"LINEAR",
					"output":56
				},
				{
					"input":7,
					"interpolation":"STEP",
					"output":57
				}
			]
		}
	],
	"materials":[
		{
			"doubleSided":true,
			"name":"Meat",
			"pbrMetallicRoughness":{
				"baseColorTexture":{
					"index":0
				},
				"metallicFactor":0,
				"roughnessFactor":0.37727275490760803
			}
		}
	],
	"meshes":[
		{
			"name":"\u041a\u0443\u0431.008",
			"primitives":[
				{
					"attributes":{
						"POSITION":0,
						"NORMAL":1,
						"TEXCOORD_0":2,
						"JOINTS_0":3,
						"WEIGHTS_0":4
					},
					"indices":5,
					"material":0
				}
			]
		}
	],
	"textures":[
		{
			"sampler":0,
			"source":0
		}
	],
	"images":[
		{
			"mimeType":"image/png",
			"name":"Meat_bake",
			"uri":"../../models/enemies/textures/Meat_bake.png"
		}
	],
	"skins":[
		{
			"inverseBindMatrices":6,
			"joints":[
				8,
				1,
				0,
				4,
				3,
				2,
				7,
				6,
				5
			],
			"name":"Hypno_skeleton"
		}
	],
	"accessors":[
		{
			"bufferView":0,
			"componentType":5126,
			"count":598,
			"max":[
				1.3154373168945312,
				11.304439544677734,
				2.0590901374816895
			],
			"min":[
				-2.2479991912841797,
				-0.05934429168701172,
				-2.0556087493896484
			],
			"type":"VEC3"
		},
		{
			"bufferView":1,
			"componentType":5126,
			"count":598,
			"type":"VEC3"
		},
		{
			"bufferView":2,
			"componentType":5126,
			"count":598,
			"type":"VEC2"
		},
		{
			"bufferView":3,
			"componentType":5121,
			"count":598,
			"type":"VEC4"
		},
		{
			"bufferView":4,
			"componentType":5126,
			"count":598,
			"type":"VEC4"
		},
		{
			"bufferView":5,
			"componentType":5123,
			"count":864,
			"type":"SCALAR"
		},
		{
			"bufferView":6,
			"componentType":5126,
			"count":9,
			"type":"MAT4"
		},
		{
			"bufferView":7,
			"componentType":5126,
			"count":2,
			"max":[
				0.8333333333333334
			],
			"min":[
				0.041666666666666664
			],
			"type":"SCALAR"
		},
		{
			"bufferView":8,
			"componentType":5126,
			"count":2,
			"type":"VEC3"
		},
		{
			"bufferView":9,
			"componentType":5126,
			"count":2,
			"type":"VEC4"
		},
		{
			"bufferView":10,
			"componentType":5126,
			"count":2,
			"type":"VEC3"
		},
		{
			"bufferView":11,
			"componentType":5126,
			"count":2,
			"type":"VEC3"
		},
		{
			"bufferView":12,
			"componentType":5126,
			"count":2,
			"type":"VEC4"
		},
		{
			"bufferView":13,
			"componentType":5126,
			"count":2,
			"type":"VEC3"
		},
		{
			"bufferView":14,
			"componentType":5126,
			"count":2,
			"type":"VEC3"
		},
		{
			"bufferView":15,
			"componentType":5126,
			"count":20,
			"max":[
				0.8333333333333334
			],
			"min":[
				0.041666666666666664
			],
			"type":"SCALAR"
		},
		{
			"bufferView":16,
			"componentType":5126,
			"count":20,
			"type":"VEC4"
		},
		{
			"bufferView":17,
			"componentType":5126,
			"count":2,
			"type":"VEC3"
		},
		{
			"bufferView":18,
			"componentType":5126,
			"count":2,
			"type":"VEC3"
		},
		{
			"bufferView":19,
			"componentType":5126,
			"count":2,
			"type":"VEC4"
		},
		{
			"bufferView":20,
			"componentType":5126,
			"count":2,
			"type":"VEC3"
		},
		{
			"bufferView":21,
			"componentType":5126,
			"count":2,
			"type":"VEC3"
		},
		{
			"bufferView":22,
			"componentType":5126,
			"count":2,
			"type":"VEC4"
		},
		{
			"bufferView":23,
			"componentType":5126,
			"count":2,
			"type":"VEC3"
		},
		{
			"bufferView":24,
			"componentType":5126,
			"count":2,
			"type":"VEC3"
		},
		{
			"bufferView":25,
			"componentType":5126,
			"count":2,
			"type":"VEC4"
		},
		{
			"bufferView":26,
			"componentType":5126,
			"count":2,
			"type":"VEC3"
		},
		{
			"bufferView":27,
			"componentType":5126,
			"count":2,
			"type":"VEC3"
		},
		{
			"bufferView":28,
			"componentType":5126,
			"count":2,
			"type":"VEC4"
		},
		{
			"bufferView":29,
			"componentType":5126,
			"count":2,
			"type":"VEC3"
		},
		{
			"bufferView":30,
			"componentType":5126,
			"count":2,
			"type":"VEC3"
		},
		{
			"bufferView":31,
			"componentType":5126,
			"count":2,
			"type":"VEC4"
		},
		{
			"bufferView":32,
			"componentType":5126,
			"count":2,
			"type":"VEC3"
		},
		{
			"bufferView":33,
			"componentType":5126,
			"count":2,
			"type":"VEC3"
		},
		{
			"bufferView":34,
			"componentType":5126,
			"count":2,
			"type":"VEC4"
		},
		{
			"bufferView":35,
			"componentType":5126,
			"count":2,
			"type":"VEC3"
		},
		{
			"bufferView":36,
			"componentType":5126,
			"count":20,
			"type":"VEC4"
		},
		{
			"bufferView":37,
			"componentType":5126,
			"count":2,
			"type":"VEC3"
		},
		{
			"bufferView":38,
			"componentType":5126,
			"count":2,
			"type":"VEC3"
		},
		{
			"bufferView":39,
			"componentType":5126,
			"count":20,
			"type":"VEC4"
		},
		{
			"bufferView":40,
			"componentType":5126,
			"count":2,
			"type":"VEC3"
		},
		{
			"bufferView":41,
			"componentType":5126,
			"count":2,
			"type":"VEC3"
		},
		{
			"bufferView":42,
			"componentType":5126,
			"count":20,
			"type":"VEC4"
		},
		{
			"bufferView":43,
			"componentType":5126,
			"count":2,
			"type":"VEC3"
		},
		{
			"bufferView":44,
			"componentType":5126,
			"count":2,
			"type":"VEC3"
		},
		{
			"bufferView":45,
			"componentType":5126,
			"count":20,
			"type":"VEC4"
		},
		{
			"bufferView":46,
			"componentType":5126,
			"count":2,
			"type":"VEC3"
		},
		{
			"bufferView":47,
			"componentType":5126,
			"count":2,
			"type":"VEC3"
		},
		{
			"bufferView":48,
			"componentType":5126,
			"count":20,
			"type":"VEC4"
		},
		{
			"bufferView":49,
			"componentType":5126,
			"count":2,
			"type":"VEC3"
		},
		{
			"bufferView":50,
			"componentType":5126,
			"count":20,
			"type":"VEC4"
		},
		{
			"bufferView":51,
			"componentType":5126,
			"count":2,
			"type":"VEC3"
		},
		{
			"bufferView":52,
			"componentType":5126,
			"count":2,
			"type":"VEC3"
		},
		{
			"bufferView":53,
			"componentType":5126,
			"count":20,
			"type":"VEC4"
		},
		{
			"bufferView":54,
			"componentType":5126,
			"count":2,
			"type":"VEC3"
		},
		{
			"bufferView":55,
			"componentType":5126,
			"count":2,
			"type":"VEC3"
		},
		{
			"bufferView":56,
			"componentType":5126,
			"count":20,
			"type":"VEC4"
		},
		{
			"bufferView":57,
			"componentType":5126,
			"count":2,
			"type":"VEC3"
		}
	],
	"bufferViews":[
		{
			"buffer":0,
			"byteLength":7176,
			"byteOffset":0,
			"target":34962
		},
		{
			"buffer":0,
			"byteLength":7176,
			"byteOffset":7176,
			"target":34962
		},
		{
			"buffer":0,
			"byteLength":4784,
			"byteOffset":14352,
			"target":34962
		},
		{
			"buffer":0,
			"byteLength":2392,
			"byteOffset":19136,
			"target":34962
		},
		{
			"buffer":0,
			"byteLength":9568,
			"byteOffset":21528,
			"target":34962
		},
		{
			"buffer":0,
			"byteLength":1728,
			"byteOffset":31096,
			"target":34963
		},
		{
			"buffer":0,
			"byteLength":576,
			"byteOffset":32824
		},
		{
			"buffer":0,
			"byteLength":8,
			"byteOffset":33400
		},
		{
			"buffer":0,
			"byteLength":24,
			"byteOffset":33408
		},
		{
			"buffer":0,
			"byteLength":32,
			"byteOffset":33432
		},
		{
			"buffer":0,
			"byteLength":24,
			"byteOffset":33464
		},
		{
			"buffer":0,
			"byteLength":24,
			"byteOffset":33488
		},
		{
			"buffer":0,
			"byteLength":32,
			"byteOffset":33512
		},
		{
			"buffer":0,
			"byteLength":24,
			"byteOffset":33544
		},
		{
			"buffer":0,
			"byteLength":24,
			"byteOffset":33568
		},
		{
			"buffer":0,
			"byteLength":80,
			"byteOffset":33592
		},
		{
			"buffer":0,
			"byteLength":320,
			"byteOffset":33672
		},
		{
			"buffer":0,
			"byteLength":24,
			"byteOffset":33992
		},
		{
			"buffer":0,
			"byteLength":24,
			"byteOffset":34016
		},
		{
			"buffer":0,
			"byteLength":32,
			"byteOffset":34040
		},
		{
			"buffer":0,
			"byteLength":24,
			"byteOffset":34072
		},
		{
			"buffer":0,
			"byteLength":24,
			"byteOffset":34096
		},
		{
			"buffer":0,
			"byteLength":32,
			"byteOffset":34120
		},
		{
			"buffer":0,
			"byteLength":24,
			"byteOffset":34152
		},
		{
			"buffer":0,
			"byteLength":24,
			"byteOffset":34176
		},
		{
			"buffer":0,
			"byteLength":32,
			"byteOffset":34200
		},
		{
			"buffer":0,
			"byteLength":24,
			"byteOffset":34232
		},
		{
			"buffer":0,
			"byteLength":24,
			"byteOffset":34256
		},
		{
			"buffer":0,
			"byteLength":32,
			"byteOffset":34280
		},
		{
			"buffer":0,
			"byteLength":24,
			"byteOffset":34312
		},
		{
			"buffer":0,
			"byteLength":24,
			"byteOffset":34336
		},
		{
			"buffer":0,
			"byteLength":32,
			"byteOffset":34360
		},
		{
			"buffer":0,
			"byteLength":24,
			"byteOffset":34392
		},
		{
			"buffer":0,
			"byteLength":24,
			"byteOffset":34416
		},
		{
			"buffer":0,
			"byteLength":32,
			"byteOffset":34440
		},
		{
			"buffer":0,
			"byteLength":24,
			"byteOffset":34472
		},
		{
			"buffer":0,
			"byteLength":320,
			"byteOffset":34496
		},
		{
			"buffer":0,
			"byteLength":24,
			"byteOffset":34816
		},
		{
			"buffer":0,
			"byteLength":24,
			"byteOffset":34840
		},
		{
			"buffer":0,
			"byteLength":320,
			"byteOffset":34864
		},
		{
			"buffer":0,
			"byteLength":24,
			"byteOffset":35184
		},
		{
			"buffer":0,
			"byteLength":24,
			"byteOffset":35208
		},
		{
			"buffer":0,
			"byteLength":320,
			"byteOffset":35232
		},
		{
			"buffer":0,
			"byteLength":24,
			"byteOffset":35552
		},
		{
			"buffer":0,
			"byteLength":24,
			"byteOffset":35576
		},
		{
			"buffer":0,
			"byteLength":320,
			"byteOffset":35600
		},
		{
			"buffer":0,
			"byteLength":24,
			"byteOffset":35920
		},
		{
			"buffer":0,
			"byteLength":24,
			"byteOffset":35944
		},
		{
			"buffer":0,
			"byteLength":320,
			"byteOffset":35968
		},
		{
			"buffer":0,
			"byteLength":24,
			"byteOffset":36288
		},
		{
			"buffer":0,
			"byteLength":320,
			"byteOffset":36312
		},
		{
			"buffer":0,
			"byteLength":24,
			"byteOffset":36632
		},
		{
			"buffer":0,
			"byteLength":24,
			"byteOffset":36656
		},
		{
			"buffer":0,
			"byteLength":320,
			"byteOffset":36680
		},
		{
			"buffer":0,
			"byteLength":24,
			"byteOffset":37000
		},
		{
			"buffer":0,
			"byteLength":24,
			"byteOffset":37024
		},
		{
			"buffer":0,
			"byteLength":320,
			"byteOffset":37048
		},
		{
			"buffer":0,
			"byteLength":24,
			"byteOffset":37368
		}
	],
	"samplers":[
		{
			"magFilter":9729,
			"minFilter":9987
		}
	],
	"buffers":[
		{
			"byteLength":37392,
			"uri":"Hypno-14bc359aba7d854d5ff13fa1728ac3ff.bin"
		}
	]
}
