{
	"asset":{
		"generator":"Khronos glTF Blender I/O v5.1.19",
		"version":"2.0"
	},
	"scene":0,
	"scenes":[
		{
			"name":"Scene",
			"nodes":[
				0,
				1
			]
		}
	],
	"nodes":[
		{
			"mesh":0,
			"name":"\u041f\u043b\u043e\u0441\u043a\u043e\u0441\u0442\u044c"
		},
		{
			"mesh":1,
			"name":"\u0421\u0444\u0435\u0440\u0430",
			"scale":[
				0.22349797189235687,
				0.22349797189235687,
				0.22349797189235687
			],
			"translation":[
				0,
				0.16464054584503174,
				1.887252688407898
			]
		}
	],
	"materials":[
		{
			"alphaMode":"BLEND",
			"doubleSided":true,
			"name":"Lamp",
			"pbrMetallicRoughness":{
				"baseColorTexture":{
					"index":0
				},
				"metallicFactor":0.6727272868156433,
				"roughnessFactor":0.8136363625526428
			}
		},
		{
			"doubleSided":true,
			"name":"Cord",
			"pbrMetallicRoughness":{
				"baseColorFactor":[
					0,
					0,
					0,
					1
				],
				"metallicFactor":0,
				"roughnessFactor":0.3227272629737854
			}
		},
		{
			"alphaMode":"BLEND",
			"doubleSided":true,
			"name":"\u041c\u0430\u0442\u0435\u0440\u0438\u0430\u043b",
			"pbrMetallicRoughness":{
				"baseColorFactor":[
					0.800000011920929,
					0.800000011920929,
					0.800000011920929,
					0.5636363625526428
				],
				"metallicFactor":0,
				"roughnessFactor":0.5
			}
		}
	],
	"meshes":[
		{
			"name":"\u041f\u043b\u043e\u0441\u043a\u043e\u0441\u0442\u044c",
			"primitives":[
				{
					"attributes":{
						"POSITION":0,
						"NORMAL":1,
						"TEXCOORD_0":2,
						"TANGENT":3
					},
					"indices":4,
					"material":0
				}
			]
		},
		{
			"name":"\u0421\u0444\u0435\u0440\u0430",
			"primitives":[
				{
					"attributes":{
						"POSITION":5,
						"NORMAL":6,
						"TEXCOORD_0":7,
						"TANGENT":8
					},
					"indices":9,
					"material":1
				},
				{
					"attributes":{
						"POSITION":10,
						"NORMAL":11,
						"TEXCOORD_0":12,
						"TANGENT":13
					},
					"indices":14,
					"material":2
				}
			]
		}
	],
	"textures":[
		{
			"sampler":0,
			"source":0
		}
	],
	"images":[
		{
			"mimeType":"image/png",
			"name":"Lamp",
			"uri":"../../models/map/textures/Lamp.png"
		}
	],
	"accessors":[
		{
			"bufferView":0,
			"componentType":5126,
			"count":20,
			"max":[
				1,
				0.35243579745292664,
				1
			],
			"min":[
				-1,
				0,
				-1
			],
			"type":"VEC3"
		},
		{
			"bufferView":1,
			"componentType":5126,
			"count":20,
			"type":"VEC3"
		},
		{
			"bufferView":2,
			"componentType":5126,
			"count":20,
			"type":"VEC2"
		},
		{
			"bufferView":3,
			"componentType":5126,
			"count":20,
			"type":"VEC4"
		},
		{
			"bufferView":4,
			"componentType":5123,
			"count":30,
			"type":"SCALAR"
		},
		{
			"bufferView":5,
			"componentType":5126,
			"count":35,
			"max":[
				0.23307964205741882,
				21.18191909790039,
				0.19826942682266235
			],
			"min":[
				-0.2330796718597412,
				1.7384501695632935,
				-0.24507442116737366
			],
			"type":"VEC3"
		},
		{
			"bufferView":6,
			"componentType":5126,
			"count":35,
			"type":"VEC3"
		},
		{
			"bufferView":7,
			"componentType":5126,
			"count":35,
			"type":"VEC2"
		},
		{
			"bufferView":8,
			"componentType":5126,
			"count":35,
			"type":"VEC4"
		},
		{
			"bufferView":9,
			"componentType":5123,
			"count":45,
			"type":"SCALAR"
		},
		{
			"bufferView":10,
			"componentType":5126,
			"count":109,
			"max":[
				0.9045085310935974,
				1.7384501695632935,
				0.7694209218025208
			],
			"min":[
				-0.9045085906982422,
				-1,
				-0.9510565400123596
			],
			"type":"VEC3"
		},
		{
			"bufferView":11,
			"componentType":5126,
			"count":109,
			"type":"VEC3"
		},
		{
			"bufferView":12,
			"componentType":5126,
			"count":109,
			"type":"VEC2"
		},
		{
			"bufferView":13,
			"componentType":5126,
			"count":109,
			"type":"VEC4"
		},
		{
			"bufferView":14,
			"componentType":5123,
			"count":165,
			"type":"SCALAR"
		}
	],
	"bufferViews":[
		{
			"buffer":0,
			"byteLength":240,
			"byteOffset":0,
			"target":34962
		},
		{
			"buffer":0,
			"byteLength":240,
			"byteOffset":240,
			"target":34962
		},
		{
			"buffer":0,
			"byteLength":160,
			"byteOffset":480,
			"target":34962
		},
		{
			"buffer":0,
			"byteLength":320,
			"byteOffset":640,
			"target":34962
		},
		{
			"buffer":0,
			"byteLength":60,
			"byteOffset":960,
			"target":34963
		},
		{
			"buffer":0,
			"byteLength":420,
			"byteOffset":1020,
			"target":34962
		},
		{
			"buffer":0,
			"byteLength":420,
			"byteOffset":1440,
			"target":34962
		},
		{
			"buffer":0,
			"byteLength":280,
			"byteOffset":1860,
			"target":34962
		},
		{
			"buffer":0,
			"byteLength":560,
			"byteOffset":2140,
			"target":34962
		},
		{
			"buffer":0,
			"byteLength":90,
			"byteOffset":2700,
			"target":34963
		},
		{
			"buffer":0,
			"byteLength":1308,
			"byteOffset":2792,
			"target":34962
		},
		{
			"buffer":0,
			"byteLength":1308,
			"byteOffset":4100,
			"target":34962
		},
		{
			"buffer":0,
			"byteLength":872,
			"byteOffset":5408,
			"target":34962
		},
		{
			"buffer":0,
			"byteLength":1744,
			"byteOffset":6280,
			"target":34962
		},
		{
			"buffer":0,
			"byteLength":330,
			"byteOffset":8024,
			"target":34963
		}
	],
	"samplers":[
		{
			"magFilter":9729,
			"minFilter":9987
		}
	],
	"buffers":[
		{
			"byteLength":8356,
			"uri":"Lamp-25f462e7103fb8e3c2443d8508cfa0c9.bin"
		}
	]
}
