{
	"asset":{
		"generator":"Khronos glTF Blender I/O v5.1.19",
		"version":"2.0"
	},
	"extensionsUsed":[
		"KHR_materials_unlit"
	],
	"scene":0,
	"scenes":[
		{
			"extras":{
				"vr_landmarks":[
					{
						"type":0,
						"base_scale":1.0
					}
				],
				"td":{
					"units":0,
					"uv_space":"545.1531",
					"density":"0.254",
					"texture_size":0,
					"selected_faces":1,
					"checker_method":1,
					"checker_type":0,
					"checker_uv_scale":"1.0",
					"density_set":"1.28",
					"set_method":0,
					"rescale_anchor":0,
					"select_mode":0,
					"select_type":0,
					"select_value":"1.0",
					"select_threshold":"0.1",
					"bake_vc_mode":0,
					"bake_vc_auto_min_max":1,
					"bake_vc_min_td":"0.64",
					"bake_vc_max_td":"10.24",
					"bake_vc_show_gradient":0,
					"initialized":1
				}
			},
			"name":"Scene",
			"nodes":[
				0,
				1,
				2,
				3,
				4,
				5,
				6,
				7,
				8,
				24,
				25,
				26,
				27,
				28,
				29
			]
		}
	],
	"nodes":[
		{
			"extras":{
				"asset_bridge":{}
			},
			"mesh":0,
			"name":"Whole_map",
			"translation":[
				42.0351676940918,
				0,
				-36.80296325683594
			]
		},
		{
			"extras":{
				"asset_bridge":{}
			},
			"mesh":1,
			"name":"Office_chair",
			"rotation":[
				0,
				-0.7071068286895752,
				0,
				0.7071068286895752
			],
			"translation":[
				-16.68723487854004,
				3.8205296993255615,
				40.304508209228516
			]
		},
		{
			"extras":{
				"asset_bridge":{}
			},
			"mesh":2,
			"name":"Door",
			"translation":[
				65.48880767822266,
				6.244512557983398,
				46.60056686401367
			]
		},
		{
			"extras":{
				"asset_bridge":{}
			},
			"mesh":3,
			"name":"Multi-vent",
			"scale":[
				0.05989295244216919,
				1,
				1
			],
			"translation":[
				61.495269775390625,
				10.999811172485352,
				51.9879150390625
			]
		},
		{
			"extras":{
				"asset_bridge":{}
			},
			"mesh":4,
			"name":"Ripper_vent",
			"rotation":[
				-1,
				0,
				0,
				1.6292068494294654e-07
			],
			"scale":[
				0.05989295244216919,
				1,
				1
			],
			"translation":[
				61.495269775390625,
				10.999811172485352,
				55.025577545166016
			]
		},
		{
			"extras":{
				"asset_bridge":{}
			},
			"mesh":5,
			"name":"Crematory_door",
			"rotation":[
				-1,
				0,
				0,
				1.6292068494294654e-07
			],
			"scale":[
				0.11488933861255646,
				1.91824471950531,
				1.91824471950531
			],
			"translation":[
				61.495269775390625,
				10.999811172485352,
				60.76125717163086
			]
		},
		{
			"extras":{
				"asset_bridge":{}
			},
			"mesh":6,
			"name":"Window",
			"translation":[
				42.0351676940918,
				0,
				-36.80296325683594
			]
		},
		{
			"extras":{
				"asset_bridge":{}
			},
			"mesh":7,
			"name":"Vent_main",
			"translation":[
				-36.29283142089844,
				7.049124717712402,
				39.929466247558594
			]
		},
		{
			"extras":{
				"asset_bridge":{}
			},
			"mesh":8,
			"name":"Table",
			"scale":[
				3.4503588676452637,
				0.14131909608840942,
				1.7287927865982056
			],
			"translation":[
				-16.68723487854004,
				3.8205296993255615,
				37.27842712402344
			]
		},
		{
			"name":"\u041a\u043e\u0441\u0442\u044c.002",
			"rotation":[
				0,
				7.105427357601002e-15,
				0,
				1
			],
			"translation":[
				-1.7097221416406683e-08,
				0.5844573974609375,
				-1.002263161353767e-09
			]
		},
		{
			"children":[
				9
			],
			"name":"\u041a\u043e\u0441\u0442\u044c.001",
			"rotation":[
				0,
				1.1920927533992653e-07,
				0,
				1
			],
			"scale":[
				1,
				0.9999999403953552,
				1
			],
			"translation":[
				0,
				1.6157817840576172,
				0
			]
		},
		{
			"name":"\u041a\u043e\u0441\u0442\u044c.007",
			"rotation":[
				4.72891947822518e-08,
				-4.5915324875522856e-08,
				-0.057471584528684616,
				0.9983471632003784
			],
			"scale":[
				0.9999999403953552,
				0.9999999403953552,
				1
			],
			"translation":[
				2.3156530915002804e-06,
				1.6993002891540527,
				-5.951278581051156e-09
			]
		},
		{
			"children":[
				11
			],
			"name":"\u041a\u043e\u0441\u0442\u044c.005",
			"rotation":[
				2.2223662199394312e-07,
				2.696658327749901e-07,
				-0.3854454755783081,
				0.9227306246757507
			],
			"scale":[
				0.9999999403953552,
				1,
				1
			],
			"translation":[
				-2.999597725761305e-08,
				0.9667700529098511,
				6.847699296486098e-09
			]
		},
		{
			"children":[
				12
			],
			"name":"\u041a\u043e\u0441\u0442\u044c.003",
			"rotation":[
				1.4994351715813536e-07,
				1.4589340935344808e-07,
				-0.7335978746414185,
				0.6795837879180908
			],
			"translation":[
				0,
				1.6157817840576172,
				0
			]
		},
		{
			"name":"\u041a\u043e\u0441\u0442\u044c.008",
			"rotation":[
				1.5896111094093612e-08,
				-1.0086208845905276e-07,
				0.09253381192684174,
				0.9957095384597778
			],
			"translation":[
				-1.895746891023009e-06,
				1.5932087898254395,
				-1.6851799955475144e-09
			]
		},
		{
			"children":[
				14
			],
			"name":"\u041a\u043e\u0441\u0442\u044c.006",
			"rotation":[
				6.301294486199538e-10,
				-6.440961897169473e-08,
				0.34688687324523926,
				0.9379069805145264
			],
			"scale":[
				1,
				0.9999999403953552,
				1
			],
			"translation":[
				-1.0681069397833198e-06,
				1.0028862953186035,
				4.6497916628140956e-11
			]
		},
		{
			"children":[
				15
			],
			"name":"\u041a\u043e\u0441\u0442\u044c.004",
			"rotation":[
				1.9729368361254274e-08,
				-2.7922231637944606e-08,
				0.746650218963623,
				0.665216863155365
			],
			"scale":[
				0.9999999403953552,
				0.9999999403953552,
				1
			],
			"translation":[
				0,
				1.6157817840576172,
				0
			]
		},
		{
			"children":[
				10,
				13,
				16
			],
			"name":"\u041a\u043e\u0441\u0442\u044c.009",
			"translation":[
				0,
				1.6157817840576172,
				0
			]
		},
		{
			"name":"\u041a\u043e\u0441\u0442\u044c.013",
			"rotation":[
				0.07449193298816681,
				6.055893564393955e-10,
				0.0027396169025450945,
				0.9972178339958191
			],
			"scale":[
				1,
				1,
				0.9999999403953552
			],
			"translation":[
				-1.8879686649597716e-06,
				2.458686351776123,
				4.0978193283081055e-08
			]
		},
		{
			"children":[
				18
			],
			"name":"\u041a\u043e\u0441\u0442\u044c.012",
			"rotation":[
				0.9972178936004639,
				0.002724229358136654,
				0.00020651523664128035,
				0.0744919627904892
			],
			"scale":[
				1,
				0.9999998807907104,
				0.9999857544898987
			],
			"translation":[
				0.61102294921875,
				0,
				0
			]
		},
		{
			"name":"\u041a\u043e\u0441\u0442\u044c.015",
			"rotation":[
				0.07449193298816681,
				6.055893564393955e-10,
				0.0027396169025450945,
				0.9972178339958191
			],
			"scale":[
				1,
				1,
				0.9999999403953552
			],
			"translation":[
				5.7414258662902284e-06,
				2.458686113357544,
				1.3783574104309082e-07
			]
		},
		{
			"children":[
				20
			],
			"name":"\u041a\u043e\u0441\u0442\u044c.014",
			"rotation":[
				0.9972178936004639,
				0.002724229358136654,
				0.00020651523664128035,
				0.0744919627904892
			],
			"scale":[
				1,
				0.9999998807907104,
				0.9999857544898987
			],
			"translation":[
				-0.5764923095703125,
				0,
				0
			]
		},
		{
			"children":[
				17,
				19,
				21
			],
			"name":"\u041a\u043e\u0441\u0442\u044c"
		},
		{
			"extras":{
				"asset_bridge":{}
			},
			"mesh":9,
			"name":"Character_base",
			"skin":0
		},
		{
			"children":[
				23,
				22
			],
			"extras":{
				"asset_bridge":{}
			},
			"name":"\u0410\u0440\u043c\u0430\u0442\u0443\u0440\u0430",
			"translation":[
				72.77705383300781,
				6.636247634887695,
				0.07171095162630081
			]
		},
		{
			"extras":{
				"asset_bridge":{}
			},
			"mesh":10,
			"name":"Vent_right",
			"translation":[
				42.0351676940918,
				0,
				-36.80296325683594
			]
		},
		{
			"extras":{
				"asset_bridge":{}
			},
			"mesh":11,
			"name":"Vent_back",
			"translation":[
				42.0351676940918,
				0,
				-36.80296325683594
			]
		},
		{
			"extras":{
				"asset_bridge":{}
			},
			"mesh":12,
			"name":"Cube.002",
			"translation":[
				62.60694885253906,
				10.951807022094727,
				65.58363342285156
			]
		},
		{
			"extras":{
				"asset_bridge":{}
			},
			"mesh":13,
			"name":"Ripper_vent.002",
			"rotation":[
				-1,
				0,
				0,
				1.6292068494294654e-07
			],
			"scale":[
				0.05989295244216919,
				1,
				1
			],
			"translation":[
				-35.340999603271484,
				7.049125671386719,
				38.86002731323242
			]
		},
		{
			"extras":{
				"asset_bridge":{}
			},
			"name":"\u041f\u0443\u0441\u0442\u044b\u0448\u043a\u0430",
			"scale":[
				25.93623924255371,
				25.93623924255371,
				25.93623924255371
			],
			"translation":[
				0,
				-1.2456258535385132,
				0
			]
		}
	],
	"materials":[
		{
			"doubleSided":true,
			"extras":{
				"asset_bridge":{}
			},
			"name":"Voron",
			"pbrMetallicRoughness":{
				"metallicFactor":0,
				"roughnessFactor":0.5
			}
		},
		{
			"alphaMode":"BLEND",
			"doubleSided":true,
			"extras":{
				"asset_bridge":{}
			},
			"name":"\u041c\u0430\u0442\u0435\u0440\u0438\u0430\u043b",
			"pbrMetallicRoughness":{
				"baseColorFactor":[
					1,
					1,
					1,
					0.4363636374473572
				],
				"metallicFactor":0,
				"roughnessFactor":0.5
			}
		},
		{
			"doubleSided":true,
			"extras":{
				"asset_bridge":{}
			},
			"name":"black",
			"pbrMetallicRoughness":{
				"baseColorFactor":[
					0.033348448574543,
					0.033348448574543,
					0.033348448574543,
					1
				],
				"metallicFactor":0,
				"roughnessFactor":0.5
			}
		},
		{
			"doubleSided":true,
			"extensions":{
				"KHR_materials_unlit":{}
			},
			"extras":{
				"asset_bridge":{}
			},
			"name":"Material.003",
			"pbrMetallicRoughness":{
				"metallicFactor":0,
				"roughnessFactor":0.9
			}
		}
	],
	"meshes":[
		{
			"name":"\u041f\u043b\u043e\u0441\u043a\u043e\u0441\u0442\u044c.004",
			"primitives":[
				{
					"attributes":{
						"POSITION":0,
						"NORMAL":1,
						"TEXCOORD_0":2
					},
					"indices":3,
					"material":0
				}
			]
		},
		{
			"name":"\u041a\u0443\u0431.012",
			"primitives":[
				{
					"attributes":{
						"POSITION":4,
						"NORMAL":5,
						"TEXCOORD_0":6
					},
					"indices":7
				}
			]
		},
		{
			"name":"\u041f\u043b\u043e\u0441\u043a\u043e\u0441\u0442\u044c.003",
			"primitives":[
				{
					"attributes":{
						"POSITION":8,
						"NORMAL":9,
						"TEXCOORD_0":10,
						"TANGENT":11
					},
					"indices":12
				}
			]
		},
		{
			"name":"\u041a\u0443\u0431.001",
			"primitives":[
				{
					"attributes":{
						"POSITION":13,
						"NORMAL":14,
						"TEXCOORD_0":15,
						"TANGENT":16
					},
					"indices":17
				}
			]
		},
		{
			"name":"\u041a\u0443\u0431.002",
			"primitives":[
				{
					"attributes":{
						"POSITION":18,
						"NORMAL":19,
						"TEXCOORD_0":20,
						"TANGENT":21
					},
					"indices":22
				}
			]
		},
		{
			"name":"\u041a\u0443\u0431.005",
			"primitives":[
				{
					"attributes":{
						"POSITION":23,
						"NORMAL":24,
						"TEXCOORD_0":25,
						"TANGENT":26
					},
					"indices":22
				}
			]
		},
		{
			"name":"\u041f\u043b\u043e\u0441\u043a\u043e\u0441\u0442\u044c.001",
			"primitives":[
				{
					"attributes":{
						"POSITION":27,
						"NORMAL":28,
						"TEXCOORD_0":29,
						"TANGENT":30
					},
					"indices":31,
					"material":1
				}
			]
		},
		{
			"name":"\u041a\u0443\u0431.003",
			"primitives":[
				{
					"attributes":{
						"POSITION":32,
						"NORMAL":33,
						"TEXCOORD_0":34,
						"TANGENT":35
					},
					"indices":36,
					"material":2
				}
			]
		},
		{
			"name":"\u041a\u0443\u0431.008",
			"primitives":[
				{
					"attributes":{
						"POSITION":37,
						"NORMAL":38,
						"TEXCOORD_0":39,
						"TANGENT":40
					},
					"indices":41
				}
			]
		},
		{
			"name":"\u041a\u0443\u0431",
			"primitives":[
				{
					"attributes":{
						"POSITION":42,
						"NORMAL":43,
						"TEXCOORD_0":44,
						"JOINTS_0":45,
						"JOINTS_1":46,
						"WEIGHTS_0":47,
						"WEIGHTS_1":48
					},
					"indices":49
				}
			]
		},
		{
			"name":"\u041f\u043b\u043e\u0441\u043a\u043e\u0441\u0442\u044c.005",
			"primitives":[
				{
					"attributes":{
						"POSITION":51,
						"NORMAL":52,
						"TEXCOORD_0":53,
						"TANGENT":54
					},
					"indices":55,
					"material":2
				}
			]
		},
		{
			"name":"\u041f\u043b\u043e\u0441\u043a\u043e\u0441\u0442\u044c.002",
			"primitives":[
				{
					"attributes":{
						"POSITION":56,
						"NORMAL":57,
						"TEXCOORD_0":58,
						"TANGENT":59
					},
					"indices":60,
					"material":2
				}
			]
		},
		{
			"name":"Cube.003",
			"primitives":[
				{
					"attributes":{
						"POSITION":61,
						"NORMAL":62,
						"TEXCOORD_0":63,
						"TANGENT":64
					},
					"indices":65,
					"material":3
				}
			]
		},
		{
			"name":"\u041a\u0443\u0431.006",
			"primitives":[
				{
					"attributes":{
						"POSITION":66,
						"NORMAL":67,
						"TEXCOORD_0":68,
						"TANGENT":69
					},
					"indices":22,
					"material":2
				}
			]
		}
	],
	"skins":[
		{
			"inverseBindMatrices":50,
			"joints":[
				22,
				17,
				10,
				9,
				13,
				12,
				11,
				16,
				15,
				14,
				19,
				18,
				21,
				20
			],
			"name":"\u0410\u0440\u043c\u0430\u0442\u0443\u0440\u0430"
		}
	],
	"accessors":[
		{
			"bufferView":0,
			"componentType":5126,
			"count":1314,
			"max":[
				11.22989273071289,
				115.93891143798828,
				156.64236450195312
			],
			"min":[
				-95.33012390136719,
				0,
				-21.713382720947266
			],
			"type":"VEC3"
		},
		{
			"bufferView":1,
			"componentType":5126,
			"count":1314,
			"type":"VEC3"
		},
		{
			"bufferView":2,
			"componentType":5126,
			"count":1314,
			"type":"VEC2"
		},
		{
			"bufferView":3,
			"componentType":5123,
			"count":3432,
			"type":"SCALAR"
		},
		{
			"bufferView":4,
			"componentType":5126,
			"count":963,
			"max":[
				1.9642219543457031,
				2.578812837600708,
				2.2615888118743896
			],
			"min":[
				-2.253448963165283,
				-4.008960723876953,
				-2.199176788330078
			],
			"type":"VEC3"
		},
		{
			"bufferView":5,
			"componentType":5126,
			"count":963,
			"type":"VEC3"
		},
		{
			"bufferView":6,
			"componentType":5126,
			"count":963,
			"type":"VEC2"
		},
		{
			"bufferView":7,
			"componentType":5123,
			"count":1614,
			"type":"SCALAR"
		},
		{
			"bufferView":8,
			"componentType":5126,
			"count":48,
			"max":[
				0.49999991059303284,
				5.950450897216797,
				4.570075988769531
			],
			"min":[
				0,
				-5.9504547119140625,
				-4.570075988769531
			],
			"type":"VEC3"
		},
		{
			"bufferView":9,
			"componentType":5126,
			"count":48,
			"type":"VEC3"
		},
		{
			"bufferView":10,
			"componentType":5126,
			"count":48,
			"type":"VEC2"
		},
		{
			"bufferView":11,
			"componentType":5126,
			"count":48,
			"type":"VEC4"
		},
		{
			"bufferView":12,
			"componentType":5123,
			"count":72,
			"type":"SCALAR"
		},
		{
			"bufferView":13,
			"componentType":5126,
			"count":64,
			"max":[
				1,
				1,
				1
			],
			"min":[
				-1,
				-1,
				-1
			],
			"type":"VEC3"
		},
		{
			"bufferView":14,
			"componentType":5126,
			"count":64,
			"type":"VEC3"
		},
		{
			"bufferView":15,
			"componentType":5126,
			"count":64,
			"type":"VEC2"
		},
		{
			"bufferView":16,
			"componentType":5126,
			"count":64,
			"type":"VEC4"
		},
		{
			"bufferView":17,
			"componentType":5123,
			"count":126,
			"type":"SCALAR"
		},
		{
			"bufferView":18,
			"componentType":5126,
			"count":201,
			"max":[
				2.3223440647125244,
				1,
				1.0694401264190674
			],
			"min":[
				-1.7183434963226318,
				-1,
				-1.2774685621261597
			],
			"type":"VEC3"
		},
		{
			"bufferView":19,
			"componentType":5126,
			"count":201,
			"type":"VEC3"
		},
		{
			"bufferView":20,
			"componentType":5126,
			"count":201,
			"type":"VEC2"
		},
		{
			"bufferView":21,
			"componentType":5126,
			"count":201,
			"type":"VEC4"
		},
		{
			"bufferView":22,
			"componentType":5123,
			"count":384,
			"type":"SCALAR"
		},
		{
			"bufferView":23,
			"componentType":5126,
			"count":201,
			"max":[
				2.3223440647125244,
				1,
				1.0694401264190674
			],
			"min":[
				-1.7183434963226318,
				-1,
				-1.2774685621261597
			],
			"type":"VEC3"
		},
		{
			"bufferView":24,
			"componentType":5126,
			"count":201,
			"type":"VEC3"
		},
		{
			"bufferView":25,
			"componentType":5126,
			"count":201,
			"type":"VEC2"
		},
		{
			"bufferView":26,
			"componentType":5126,
			"count":201,
			"type":"VEC4"
		},
		{
			"bufferView":27,
			"componentType":5126,
			"count":56,
			"max":[
				-47.29756164550781,
				11.963671684265137,
				70.30079650878906
			],
			"min":[
				-70.71312713623047,
				1.5746077299118042,
				69.62095642089844
			],
			"type":"VEC3"
		},
		{
			"bufferView":28,
			"componentType":5126,
			"count":56,
			"type":"VEC3"
		},
		{
			"bufferView":29,
			"componentType":5126,
			"count":56,
			"type":"VEC2"
		},
		{
			"bufferView":30,
			"componentType":5126,
			"count":56,
			"type":"VEC4"
		},
		{
			"bufferView":31,
			"componentType":5123,
			"count":84,
			"type":"SCALAR"
		},
		{
			"bufferView":32,
			"componentType":5126,
			"count":218,
			"max":[
				1,
				1,
				2.365680694580078
			],
			"min":[
				-22.727558135986328,
				-7.049124717712402,
				-49.13082504272461
			],
			"type":"VEC3"
		},
		{
			"bufferView":33,
			"componentType":5126,
			"count":218,
			"type":"VEC3"
		},
		{
			"bufferView":34,
			"componentType":5126,
			"count":218,
			"type":"VEC2"
		},
		{
			"bufferView":35,
			"componentType":5126,
			"count":218,
			"type":"VEC4"
		},
		{
			"bufferView":36,
			"componentType":5123,
			"count":438,
			"type":"SCALAR"
		},
		{
			"bufferView":37,
			"componentType":5126,
			"count":124,
			"max":[
				1,
				9.105730056762695,
				1
			],
			"min":[
				-1,
				-28.23612403869629,
				-1
			],
			"type":"VEC3"
		},
		{
			"bufferView":38,
			"componentType":5126,
			"count":124,
			"type":"VEC3"
		},
		{
			"bufferView":39,
			"componentType":5126,
			"count":124,
			"type":"VEC2"
		},
		{
			"bufferView":40,
			"componentType":5126,
			"count":124,
			"type":"VEC4"
		},
		{
			"bufferView":41,
			"componentType":5123,
			"count":276,
			"type":"SCALAR"
		},
		{
			"bufferView":42,
			"componentType":5126,
			"count":1942,
			"max":[
				76.01657104492188,
				11.96148681640625,
				1.1978020668029785
			],
			"min":[
				69.53787231445312,
				1.341714859008789,
				-0.6394447684288025
			],
			"type":"VEC3"
		},
		{
			"bufferView":43,
			"componentType":5126,
			"count":1942,
			"type":"VEC3"
		},
		{
			"bufferView":44,
			"componentType":5126,
			"count":1942,
			"type":"VEC2"
		},
		{
			"bufferView":45,
			"componentType":5121,
			"count":1942,
			"type":"VEC4"
		},
		{
			"bufferView":46,
			"componentType":5121,
			"count":1942,
			"type":"VEC4"
		},
		{
			"bufferView":47,
			"componentType":5126,
			"count":1942,
			"type":"VEC4"
		},
		{
			"bufferView":48,
			"componentType":5126,
			"count":1942,
			"type":"VEC4"
		},
		{
			"bufferView":49,
			"componentType":5123,
			"count":2934,
			"type":"SCALAR"
		},
		{
			"bufferView":50,
			"componentType":5126,
			"count":14,
			"type":"MAT4"
		},
		{
			"bufferView":51,
			"componentType":5126,
			"count":132,
			"max":[
				14.772167205810547,
				2.0005640983581543,
				85.028564453125
			],
			"min":[
				-39.139652252197266,
				0,
				-19.87921142578125
			],
			"type":"VEC3"
		},
		{
			"bufferView":52,
			"componentType":5126,
			"count":132,
			"type":"VEC3"
		},
		{
			"bufferView":53,
			"componentType":5126,
			"count":132,
			"type":"VEC2"
		},
		{
			"bufferView":54,
			"componentType":5126,
			"count":132,
			"type":"VEC4"
		},
		{
			"bufferView":55,
			"componentType":5123,
			"count":252,
			"type":"SCALAR"
		},
		{
			"bufferView":56,
			"componentType":5126,
			"count":156,
			"max":[
				-11.229890823364258,
				2.0005640983581543,
				-8.954282760620117
			],
			"min":[
				-80.12274169921875,
				0,
				-29.543367385864258
			],
			"type":"VEC3"
		},
		{
			"bufferView":57,
			"componentType":5126,
			"count":156,
			"type":"VEC3"
		},
		{
			"bufferView":58,
			"componentType":5126,
			"count":156,
			"type":"VEC2"
		},
		{
			"bufferView":59,
			"componentType":5126,
			"count":156,
			"type":"VEC4"
		},
		{
			"bufferView":60,
			"componentType":5123,
			"count":318,
			"type":"SCALAR"
		},
		{
			"bufferView":61,
			"componentType":5126,
			"count":24,
			"max":[
				1,
				1,
				1
			],
			"min":[
				-1,
				-1,
				-1
			],
			"type":"VEC3"
		},
		{
			"bufferView":62,
			"componentType":5126,
			"count":24,
			"type":"VEC3"
		},
		{
			"bufferView":63,
			"componentType":5126,
			"count":24,
			"type":"VEC2"
		},
		{
			"bufferView":64,
			"componentType":5126,
			"count":24,
			"type":"VEC4"
		},
		{
			"bufferView":65,
			"componentType":5123,
			"count":36,
			"type":"SCALAR"
		},
		{
			"bufferView":66,
			"componentType":5126,
			"count":201,
			"max":[
				4.040666580200195,
				1.0000004768371582,
				1.1920928955078125e-06
			],
			"min":[
				-2.0742416381835938e-05,
				-0.9999995231628418,
				-2.346907615661621
			],
			"type":"VEC3"
		},
		{
			"bufferView":67,
			"componentType":5126,
			"count":201,
			"type":"VEC3"
		},
		{
			"bufferView":68,
			"componentType":5126,
			"count":201,
			"type":"VEC2"
		},
		{
			"bufferView":69,
			"componentType":5126,
			"count":201,
			"type":"VEC4"
		}
	],
	"bufferViews":[
		{
			"buffer":0,
			"byteLength":15768,
			"byteOffset":0,
			"target":34962
		},
		{
			"buffer":0,
			"byteLength":15768,
			"byteOffset":15768,
			"target":34962
		},
		{
			"buffer":0,
			"byteLength":10512,
			"byteOffset":31536,
			"target":34962
		},
		{
			"buffer":0,
			"byteLength":6864,
			"byteOffset":42048,
			"target":34963
		},
		{
			"buffer":0,
			"byteLength":11556,
			"byteOffset":48912,
			"target":34962
		},
		{
			"buffer":0,
			"byteLength":11556,
			"byteOffset":60468,
			"target":34962
		},
		{
			"buffer":0,
			"byteLength":7704,
			"byteOffset":72024,
			"target":34962
		},
		{
			"buffer":0,
			"byteLength":3228,
			"byteOffset":79728,
			"target":34963
		},
		{
			"buffer":0,
			"byteLength":576,
			"byteOffset":82956,
			"target":34962
		},
		{
			"buffer":0,
			"byteLength":576,
			"byteOffset":83532,
			"target":34962
		},
		{
			"buffer":0,
			"byteLength":384,
			"byteOffset":84108,
			"target":34962
		},
		{
			"buffer":0,
			"byteLength":768,
			"byteOffset":84492,
			"target":34962
		},
		{
			"buffer":0,
			"byteLength":144,
			"byteOffset":85260,
			"target":34963
		},
		{
			"buffer":0,
			"byteLength":768,
			"byteOffset":85404,
			"target":34962
		},
		{
			"buffer":0,
			"byteLength":768,
			"byteOffset":86172,
			"target":34962
		},
		{
			"buffer":0,
			"byteLength":512,
			"byteOffset":86940,
			"target":34962
		},
		{
			"buffer":0,
			"byteLength":1024,
			"byteOffset":87452,
			"target":34962
		},
		{
			"buffer":0,
			"byteLength":252,
			"byteOffset":88476,
			"target":34963
		},
		{
			"buffer":0,
			"byteLength":2412,
			"byteOffset":88728,
			"target":34962
		},
		{
			"buffer":0,
			"byteLength":2412,
			"byteOffset":91140,
			"target":34962
		},
		{
			"buffer":0,
			"byteLength":1608,
			"byteOffset":93552,
			"target":34962
		},
		{
			"buffer":0,
			"byteLength":3216,
			"byteOffset":95160,
			"target":34962
		},
		{
			"buffer":0,
			"byteLength":768,
			"byteOffset":98376,
			"target":34963
		},
		{
			"buffer":0,
			"byteLength":2412,
			"byteOffset":99144,
			"target":34962
		},
		{
			"buffer":0,
			"byteLength":2412,
			"byteOffset":101556,
			"target":34962
		},
		{
			"buffer":0,
			"byteLength":1608,
			"byteOffset":103968,
			"target":34962
		},
		{
			"buffer":0,
			"byteLength":3216,
			"byteOffset":105576,
			"target":34962
		},
		{
			"buffer":0,
			"byteLength":672,
			"byteOffset":108792,
			"target":34962
		},
		{
			"buffer":0,
			"byteLength":672,
			"byteOffset":109464,
			"target":34962
		},
		{
			"buffer":0,
			"byteLength":448,
			"byteOffset":110136,
			"target":34962
		},
		{
			"buffer":0,
			"byteLength":896,
			"byteOffset":110584,
			"target":34962
		},
		{
			"buffer":0,
			"byteLength":168,
			"byteOffset":111480,
			"target":34963
		},
		{
			"buffer":0,
			"byteLength":2616,
			"byteOffset":111648,
			"target":34962
		},
		{
			"buffer":0,
			"byteLength":2616,
			"byteOffset":114264,
			"target":34962
		},
		{
			"buffer":0,
			"byteLength":1744,
			"byteOffset":116880,
			"target":34962
		},
		{
			"buffer":0,
			"byteLength":3488,
			"byteOffset":118624,
			"target":34962
		},
		{
			"buffer":0,
			"byteLength":876,
			"byteOffset":122112,
			"target":34963
		},
		{
			"buffer":0,
			"byteLength":1488,
			"byteOffset":122988,
			"target":34962
		},
		{
			"buffer":0,
			"byteLength":1488,
			"byteOffset":124476,
			"target":34962
		},
		{
			"buffer":0,
			"byteLength":992,
			"byteOffset":125964,
			"target":34962
		},
		{
			"buffer":0,
			"byteLength":1984,
			"byteOffset":126956,
			"target":34962
		},
		{
			"buffer":0,
			"byteLength":552,
			"byteOffset":128940,
			"target":34963
		},
		{
			"buffer":0,
			"byteLength":23304,
			"byteOffset":129492,
			"target":34962
		},
		{
			"buffer":0,
			"byteLength":23304,
			"byteOffset":152796,
			"target":34962
		},
		{
			"buffer":0,
			"byteLength":15536,
			"byteOffset":176100,
			"target":34962
		},
		{
			"buffer":0,
			"byteLength":7768,
			"byteOffset":191636,
			"target":34962
		},
		{
			"buffer":0,
			"byteLength":7768,
			"byteOffset":199404,
			"target":34962
		},
		{
			"buffer":0,
			"byteLength":31072,
			"byteOffset":207172,
			"target":34962
		},
		{
			"buffer":0,
			"byteLength":31072,
			"byteOffset":238244,
			"target":34962
		},
		{
			"buffer":0,
			"byteLength":5868,
			"byteOffset":269316,
			"target":34963
		},
		{
			"buffer":0,
			"byteLength":896,
			"byteOffset":275184
		},
		{
			"buffer":0,
			"byteLength":1584,
			"byteOffset":276080,
			"target":34962
		},
		{
			"buffer":0,
			"byteLength":1584,
			"byteOffset":277664,
			"target":34962
		},
		{
			"buffer":0,
			"byteLength":1056,
			"byteOffset":279248,
			"target":34962
		},
		{
			"buffer":0,
			"byteLength":2112,
			"byteOffset":280304,
			"target":34962
		},
		{
			"buffer":0,
			"byteLength":504,
			"byteOffset":282416,
			"target":34963
		},
		{
			"buffer":0,
			"byteLength":1872,
			"byteOffset":282920,
			"target":34962
		},
		{
			"buffer":0,
			"byteLength":1872,
			"byteOffset":284792,
			"target":34962
		},
		{
			"buffer":0,
			"byteLength":1248,
			"byteOffset":286664,
			"target":34962
		},
		{
			"buffer":0,
			"byteLength":2496,
			"byteOffset":287912,
			"target":34962
		},
		{
			"buffer":0,
			"byteLength":636,
			"byteOffset":290408,
			"target":34963
		},
		{
			"buffer":0,
			"byteLength":288,
			"byteOffset":291044,
			"target":34962
		},
		{
			"buffer":0,
			"byteLength":288,
			"byteOffset":291332,
			"target":34962
		},
		{
			"buffer":0,
			"byteLength":192,
			"byteOffset":291620,
			"target":34962
		},
		{
			"buffer":0,
			"byteLength":384,
			"byteOffset":291812,
			"target":34962
		},
		{
			"buffer":0,
			"byteLength":72,
			"byteOffset":292196,
			"target":34963
		},
		{
			"buffer":0,
			"byteLength":2412,
			"byteOffset":292268,
			"target":34962
		},
		{
			"buffer":0,
			"byteLength":2412,
			"byteOffset":294680,
			"target":34962
		},
		{
			"buffer":0,
			"byteLength":1608,
			"byteOffset":297092,
			"target":34962
		},
		{
			"buffer":0,
			"byteLength":3216,
			"byteOffset":298700,
			"target":34962
		}
	],
	"buffers":[
		{
			"byteLength":301916,
			"uri":"Map%20copy-4dd91840c0a8ca0c05bbd9d0841e2fda.bin"
		}
	]
}
