{
	"asset":{
		"generator":"Khronos glTF Blender I/O v5.1.19",
		"version":"2.0"
	},
	"scene":0,
	"scenes":[
		{
			"name":"Scene",
			"nodes":[
				0,
				1
			]
		}
	],
	"nodes":[
		{
			"mesh":0,
			"name":"\u041a\u0443\u0431.019",
			"scale":[
				36.500370025634766,
				36.500370025634766,
				36.500370025634766
			],
			"translation":[
				-42.6622314453125,
				38.45167922973633,
				38.84250259399414
			]
		},
		{
			"mesh":1,
			"name":"\u041a\u0443\u0431.016",
			"scale":[
				14.798910140991211,
				14.798910140991211,
				14.798910140991211
			],
			"translation":[
				23.647384643554688,
				15.472654342651367,
				38.84250259399414
			]
		}
	],
	"materials":[
		{
			"doubleSided":true,
			"extras":{
				"asset_bridge":{}
			},
			"name":"Rust",
			"pbrMetallicRoughness":{
				"baseColorTexture":{
					"index":0
				},
				"metallicFactor":0,
				"roughnessFactor":0.5545454621315002
			}
		},
		{
			"doubleSided":true,
			"name":"Black_metal",
			"pbrMetallicRoughness":{
				"baseColorFactor":[
					0.09330222010612488,
					0.09330222010612488,
					0.09330222010612488,
					1
				],
				"roughnessFactor":0.2818180024623871
			}
		},
		{
			"doubleSided":true,
			"name":"\u041a\u043e\u0441\u0442\u04381",
			"pbrMetallicRoughness":{
				"baseColorTexture":{
					"index":1
				},
				"metallicFactor":0,
				"roughnessFactor":0.37727275490760803
			}
		},
		{
			"alphaMode":"BLEND",
			"doubleSided":true,
			"name":"Blood_1",
			"pbrMetallicRoughness":{
				"baseColorTexture":{
					"index":2
				},
				"metallicFactor":0,
				"roughnessFactor":0.831818163394928
			}
		}
	],
	"meshes":[
		{
			"name":"\u041a\u0443\u0431.062",
			"primitives":[
				{
					"attributes":{
						"POSITION":0,
						"NORMAL":1,
						"TEXCOORD_0":2
					},
					"indices":3,
					"material":0
				},
				{
					"attributes":{
						"POSITION":4,
						"NORMAL":5,
						"TEXCOORD_0":6
					},
					"indices":7,
					"material":1
				}
			]
		},
		{
			"name":"\u041a\u0443\u0431.059",
			"primitives":[
				{
					"attributes":{
						"POSITION":8,
						"NORMAL":9,
						"TEXCOORD_0":10,
						"TANGENT":11
					},
					"indices":12,
					"material":0
				},
				{
					"attributes":{
						"POSITION":13,
						"NORMAL":14,
						"TEXCOORD_0":15,
						"TANGENT":16
					},
					"indices":17,
					"material":2
				},
				{
					"attributes":{
						"POSITION":18,
						"NORMAL":19,
						"TEXCOORD_0":20,
						"TANGENT":21
					},
					"indices":22,
					"material":3
				}
			]
		}
	],
	"textures":[
		{
			"sampler":0,
			"source":0
		},
		{
			"sampler":1,
			"source":1
		},
		{
			"sampler":0,
			"source":2
		}
	],
	"images":[
		{
			"mimeType":"image/png",
			"name":"Rust_bake.001",
			"uri":"../../models/map/textures/Rust_bake.001.png"
		},
		{
			"mimeType":"image/png",
			"name":"\u041a\u043e\u0441\u0442\u0438_1",
			"uri":"../../models/map/textures/%D0%9A%D0%BE%D1%81%D1%82%D0%B8_1.png"
		},
		{
			"mimeType":"image/png",
			"name":"Blood_1",
			"uri":"../../models/map/textures/Blood_1.png"
		}
	],
	"accessors":[
		{
			"bufferView":0,
			"componentType":5126,
			"count":28,
			"max":[
				1,
				1,
				1
			],
			"min":[
				-1,
				-1,
				-1
			],
			"type":"VEC3"
		},
		{
			"bufferView":1,
			"componentType":5126,
			"count":28,
			"type":"VEC3"
		},
		{
			"bufferView":2,
			"componentType":5126,
			"count":28,
			"type":"VEC2"
		},
		{
			"bufferView":3,
			"componentType":5123,
			"count":42,
			"type":"SCALAR"
		},
		{
			"bufferView":4,
			"componentType":5126,
			"count":3756,
			"max":[
				0.8575154542922974,
				-0.21836942434310913,
				1.0064762830734253
			],
			"min":[
				-0.24610267579555511,
				-0.9915657043457031,
				0.9448734521865845
			],
			"type":"VEC3"
		},
		{
			"bufferView":5,
			"componentType":5126,
			"count":3756,
			"type":"VEC3"
		},
		{
			"bufferView":6,
			"componentType":5126,
			"count":3756,
			"type":"VEC2"
		},
		{
			"bufferView":7,
			"componentType":5123,
			"count":6444,
			"type":"SCALAR"
		},
		{
			"bufferView":8,
			"componentType":5126,
			"count":24,
			"max":[
				1,
				1,
				1
			],
			"min":[
				-1,
				-1,
				-1
			],
			"type":"VEC3"
		},
		{
			"bufferView":9,
			"componentType":5126,
			"count":24,
			"type":"VEC3"
		},
		{
			"bufferView":10,
			"componentType":5126,
			"count":24,
			"type":"VEC2"
		},
		{
			"bufferView":11,
			"componentType":5126,
			"count":24,
			"type":"VEC4"
		},
		{
			"bufferView":12,
			"componentType":5123,
			"count":36,
			"type":"SCALAR"
		},
		{
			"bufferView":13,
			"componentType":5126,
			"count":192,
			"max":[
				0.012213855981826782,
				-0.9604368805885315,
				0.14032651484012604
			],
			"min":[
				-0.14715558290481567,
				-1.006725788116455,
				-0.019008390605449677
			],
			"type":"VEC3"
		},
		{
			"bufferView":14,
			"componentType":5126,
			"count":192,
			"type":"VEC3"
		},
		{
			"bufferView":15,
			"componentType":5126,
			"count":192,
			"type":"VEC2"
		},
		{
			"bufferView":16,
			"componentType":5126,
			"count":192,
			"type":"VEC4"
		},
		{
			"bufferView":17,
			"componentType":5123,
			"count":288,
			"type":"SCALAR"
		},
		{
			"bufferView":18,
			"componentType":5126,
			"count":4,
			"max":[
				0.2544211149215698,
				-0.9920680522918701,
				0.36245858669281006
			],
			"min":[
				-0.3282231092453003,
				-0.9920680522918701,
				-0.22018563747406006
			],
			"type":"VEC3"
		},
		{
			"bufferView":19,
			"componentType":5126,
			"count":4,
			"type":"VEC3"
		},
		{
			"bufferView":20,
			"componentType":5126,
			"count":4,
			"type":"VEC2"
		},
		{
			"bufferView":21,
			"componentType":5126,
			"count":4,
			"type":"VEC4"
		},
		{
			"bufferView":22,
			"componentType":5123,
			"count":6,
			"type":"SCALAR"
		}
	],
	"bufferViews":[
		{
			"buffer":0,
			"byteLength":336,
			"byteOffset":0,
			"target":34962
		},
		{
			"buffer":0,
			"byteLength":336,
			"byteOffset":336,
			"target":34962
		},
		{
			"buffer":0,
			"byteLength":224,
			"byteOffset":672,
			"target":34962
		},
		{
			"buffer":0,
			"byteLength":84,
			"byteOffset":896,
			"target":34963
		},
		{
			"buffer":0,
			"byteLength":45072,
			"byteOffset":980,
			"target":34962
		},
		{
			"buffer":0,
			"byteLength":45072,
			"byteOffset":46052,
			"target":34962
		},
		{
			"buffer":0,
			"byteLength":30048,
			"byteOffset":91124,
			"target":34962
		},
		{
			"buffer":0,
			"byteLength":12888,
			"byteOffset":121172,
			"target":34963
		},
		{
			"buffer":0,
			"byteLength":288,
			"byteOffset":134060,
			"target":34962
		},
		{
			"buffer":0,
			"byteLength":288,
			"byteOffset":134348,
			"target":34962
		},
		{
			"buffer":0,
			"byteLength":192,
			"byteOffset":134636,
			"target":34962
		},
		{
			"buffer":0,
			"byteLength":384,
			"byteOffset":134828,
			"target":34962
		},
		{
			"buffer":0,
			"byteLength":72,
			"byteOffset":135212,
			"target":34963
		},
		{
			"buffer":0,
			"byteLength":2304,
			"byteOffset":135284,
			"target":34962
		},
		{
			"buffer":0,
			"byteLength":2304,
			"byteOffset":137588,
			"target":34962
		},
		{
			"buffer":0,
			"byteLength":1536,
			"byteOffset":139892,
			"target":34962
		},
		{
			"buffer":0,
			"byteLength":3072,
			"byteOffset":141428,
			"target":34962
		},
		{
			"buffer":0,
			"byteLength":576,
			"byteOffset":144500,
			"target":34963
		},
		{
			"buffer":0,
			"byteLength":48,
			"byteOffset":145076,
			"target":34962
		},
		{
			"buffer":0,
			"byteLength":48,
			"byteOffset":145124,
			"target":34962
		},
		{
			"buffer":0,
			"byteLength":32,
			"byteOffset":145172,
			"target":34962
		},
		{
			"buffer":0,
			"byteLength":64,
			"byteOffset":145204,
			"target":34962
		},
		{
			"buffer":0,
			"byteLength":12,
			"byteOffset":145268,
			"target":34963
		}
	],
	"samplers":[
		{
			"magFilter":9728,
			"minFilter":9984
		},
		{
			"magFilter":9729,
			"minFilter":9987
		}
	],
	"buffers":[
		{
			"byteLength":145280,
			"uri":"Menus-10000b009e32421ffb0fc23915376fb5.bin"
		}
	]
}
