{
	"asset":{
		"generator":"Khronos glTF Blender I/O v5.1.19",
		"version":"2.0"
	},
	"scene":0,
	"scenes":[
		{
			"name":"Scene",
			"nodes":[
				16
			]
		}
	],
	"nodes":[
		{
			"name":"\u041a\u043e\u0441\u0442\u044c.006",
			"rotation":[
				0.021415473893284798,
				0.004041082691401243,
				0.0091767692938447,
				0.9997203946113586
			],
			"scale":[
				1,
				0.9999999403953552,
				1
			],
			"translation":[
				-2.1979212760925293e-07,
				1.130425214767456,
				3.939494490623474e-07
			]
		},
		{
			"children":[
				0
			],
			"name":"\u041a\u043e\u0441\u0442\u044c.005",
			"rotation":[
				-0.1686316579580307,
				-0.01677594892680645,
				-0.09373129159212112,
				0.981069028377533
			],
			"scale":[
				0.9999999403953552,
				1,
				1
			],
			"translation":[
				-0.012822022661566734,
				1.8978066444396973,
				-0.6588315963745117
			]
		},
		{
			"name":"\u041a\u043e\u0441\u0442\u044c.011",
			"rotation":[
				0.015865633264183998,
				0.0026492360047996044,
				0.0037990568671375513,
				0.9998633861541748
			],
			"scale":[
				1,
				1.0000001192092896,
				0.9999999403953552
			],
			"translation":[
				6.100162863731384e-07,
				1.42738676071167,
				-1.7462298274040222e-08
			]
		},
		{
			"children":[
				2
			],
			"name":"\u041a\u043e\u0441\u0442\u044c.007",
			"rotation":[
				-0.06432338804006577,
				-0.005525939632207155,
				-0.08478040993213654,
				0.9943059086799622
			],
			"scale":[
				1,
				0.9999998807907104,
				1
			],
			"translation":[
				0.0005966335884295404,
				1.9825879335403442,
				-0.24502578377723694
			]
		},
		{
			"name":"\u041a\u043e\u0441\u0442\u044c.012",
			"rotation":[
				-0.009630284272134304,
				-0.001528664375655353,
				-0.016239862889051437,
				0.9998205900192261
			],
			"scale":[
				1.0000001192092896,
				1.0000001192092896,
				1
			],
			"translation":[
				-1.4709075912833214e-07,
				1.6678681373596191,
				8.847564458847046e-08
			]
		},
		{
			"children":[
				4
			],
			"name":"\u041a\u043e\u0441\u0442\u044c.008",
			"rotation":[
				-0.003661464201286435,
				-0.00024610775290057063,
				-0.07086491584777832,
				0.9974792003631592
			],
			"scale":[
				0.9999998807907104,
				0.9999998807907104,
				1
			],
			"translation":[
				0.00043684133561328053,
				2.019408941268921,
				0.07287481427192688
			]
		},
		{
			"name":"\u041a\u043e\u0441\u0442\u044c.013",
			"rotation":[
				-0.014908839017152786,
				-0.0022455714643001556,
				-0.03980764374136925,
				0.9990936517715454
			],
			"translation":[
				-3.986060619354248e-07,
				1.5982294082641602,
				7.329508662223816e-07
			]
		},
		{
			"children":[
				6
			],
			"name":"\u041a\u043e\u0441\u0442\u044c.009",
			"rotation":[
				0.08001374453306198,
				0.004943124018609524,
				-0.06121109426021576,
				0.9949002861976624
			],
			"scale":[
				0.9999999403953552,
				1.0000001192092896,
				1
			],
			"translation":[
				0.0001992593170143664,
				1.948010802268982,
				0.3706991374492645
			]
		},
		{
			"name":"\u041a\u043e\u0441\u0442\u044c.014",
			"rotation":[
				-0.19811813533306122,
				-0.052580129355192184,
				-0.04544278606772423,
				0.9777113795280457
			],
			"scale":[
				0.9999999403953552,
				1,
				1
			],
			"translation":[
				4.470348358154297e-08,
				0.6332370042800903,
				2.2351741790771484e-08
			]
		},
		{
			"children":[
				8
			],
			"name":"\u041a\u043e\u0441\u0442\u044c.010",
			"rotation":[
				0.29898837208747864,
				0.029275139793753624,
				-0.11066124588251114,
				0.9473663568496704
			],
			"scale":[
				0.9999999403953552,
				1,
				1
			],
			"translation":[
				-0.00012832018546760082,
				1.757680892944336,
				0.653993546962738
			]
		},
		{
			"children":[
				1,
				3,
				5,
				7,
				9
			],
			"name":"\u041a\u043e\u0441\u0442\u044c.004",
			"rotation":[
				0.002600379753857851,
				0.00020613630476873368,
				-0.01273811049759388,
				0.9999154806137085
			],
			"translation":[
				-1.1757219908758998e-07,
				2.163571357727051,
				-2.4156179279088974e-08
			]
		},
		{
			"children":[
				10
			],
			"name":"\u041a\u043e\u0441\u0442\u044c.003",
			"rotation":[
				-0.0024319447111338377,
				1.4451124116021674e-05,
				0.0040648942813277245,
				0.9999887943267822
			],
			"translation":[
				1.390899342368357e-07,
				4.174783229827881,
				1.280568540096283e-09
			]
		},
		{
			"children":[
				11
			],
			"name":"\u041a\u043e\u0441\u0442\u044c.002",
			"rotation":[
				-0.014291110448539257,
				-0.0005629545194096863,
				-0.01982136070728302,
				0.9997012615203857
			],
			"scale":[
				0.9999998211860657,
				0.9999999403953552,
				0.9999998807907104
			],
			"translation":[
				-4.2259534893673845e-07,
				8.540044784545898,
				-6.705522537231445e-08
			]
		},
		{
			"children":[
				12
			],
			"name":"\u041a\u043e\u0441\u0442\u044c.001",
			"rotation":[
				0.02109571360051632,
				0.000738340662792325,
				0.03578128293156624,
				0.9991366863250732
			],
			"translation":[
				-3.681727775983745e-07,
				38.14083480834961,
				-4.439692347091295e-08
			]
		},
		{
			"children":[
				13
			],
			"name":"Root",
			"rotation":[
				-1.4508604095908595e-08,
				9.843252968266825e-08,
				-0.006876316387206316,
				0.999976396560669
			],
			"scale":[
				0.9999999403953552,
				0.9999999403953552,
				0.9999999403953552
			],
			"translation":[
				-0.08210230618715286,
				-51.73426055908203,
				-0.44407957792282104
			]
		},
		{
			"extras":{
				"asset_bridge":{}
			},
			"mesh":0,
			"name":"Ripper",
			"skin":0
		},
		{
			"children":[
				15,
				14
			],
			"name":"Ripper_skeleton",
			"rotation":[
				0,
				0,
				-0.7071068286895752,
				0.7071068286895752
			],
			"translation":[
				-24.112205505371094,
				6.943330764770508,
				0.19372332096099854
			]
		}
	],
	"animations":[
		{
			"channels":[
				{
					"sampler":0,
					"target":{
						"node":14,
						"path":"translation"
					}
				},
				{
					"sampler":1,
					"target":{
						"node":14,
						"path":"rotation"
					}
				},
				{
					"sampler":2,
					"target":{
						"node":14,
						"path":"scale"
					}
				},
				{
					"sampler":3,
					"target":{
						"node":13,
						"path":"translation"
					}
				},
				{
					"sampler":4,
					"target":{
						"node":13,
						"path":"rotation"
					}
				},
				{
					"sampler":5,
					"target":{
						"node":13,
						"path":"scale"
					}
				},
				{
					"sampler":6,
					"target":{
						"node":12,
						"path":"translation"
					}
				},
				{
					"sampler":7,
					"target":{
						"node":12,
						"path":"rotation"
					}
				},
				{
					"sampler":8,
					"target":{
						"node":12,
						"path":"scale"
					}
				},
				{
					"sampler":9,
					"target":{
						"node":11,
						"path":"translation"
					}
				},
				{
					"sampler":10,
					"target":{
						"node":11,
						"path":"rotation"
					}
				},
				{
					"sampler":11,
					"target":{
						"node":11,
						"path":"scale"
					}
				},
				{
					"sampler":12,
					"target":{
						"node":10,
						"path":"translation"
					}
				},
				{
					"sampler":13,
					"target":{
						"node":10,
						"path":"rotation"
					}
				},
				{
					"sampler":14,
					"target":{
						"node":10,
						"path":"scale"
					}
				},
				{
					"sampler":15,
					"target":{
						"node":1,
						"path":"translation"
					}
				},
				{
					"sampler":16,
					"target":{
						"node":1,
						"path":"rotation"
					}
				},
				{
					"sampler":17,
					"target":{
						"node":1,
						"path":"scale"
					}
				},
				{
					"sampler":18,
					"target":{
						"node":0,
						"path":"translation"
					}
				},
				{
					"sampler":19,
					"target":{
						"node":0,
						"path":"rotation"
					}
				},
				{
					"sampler":20,
					"target":{
						"node":0,
						"path":"scale"
					}
				},
				{
					"sampler":21,
					"target":{
						"node":3,
						"path":"translation"
					}
				},
				{
					"sampler":22,
					"target":{
						"node":3,
						"path":"rotation"
					}
				},
				{
					"sampler":23,
					"target":{
						"node":3,
						"path":"scale"
					}
				},
				{
					"sampler":24,
					"target":{
						"node":2,
						"path":"translation"
					}
				},
				{
					"sampler":25,
					"target":{
						"node":2,
						"path":"rotation"
					}
				},
				{
					"sampler":26,
					"target":{
						"node":2,
						"path":"scale"
					}
				},
				{
					"sampler":27,
					"target":{
						"node":5,
						"path":"translation"
					}
				},
				{
					"sampler":28,
					"target":{
						"node":5,
						"path":"rotation"
					}
				},
				{
					"sampler":29,
					"target":{
						"node":5,
						"path":"scale"
					}
				},
				{
					"sampler":30,
					"target":{
						"node":4,
						"path":"translation"
					}
				},
				{
					"sampler":31,
					"target":{
						"node":4,
						"path":"rotation"
					}
				},
				{
					"sampler":32,
					"target":{
						"node":4,
						"path":"scale"
					}
				},
				{
					"sampler":33,
					"target":{
						"node":7,
						"path":"translation"
					}
				},
				{
					"sampler":34,
					"target":{
						"node":7,
						"path":"rotation"
					}
				},
				{
					"sampler":35,
					"target":{
						"node":7,
						"path":"scale"
					}
				},
				{
					"sampler":36,
					"target":{
						"node":6,
						"path":"translation"
					}
				},
				{
					"sampler":37,
					"target":{
						"node":6,
						"path":"rotation"
					}
				},
				{
					"sampler":38,
					"target":{
						"node":6,
						"path":"scale"
					}
				},
				{
					"sampler":39,
					"target":{
						"node":9,
						"path":"translation"
					}
				},
				{
					"sampler":40,
					"target":{
						"node":9,
						"path":"rotation"
					}
				},
				{
					"sampler":41,
					"target":{
						"node":9,
						"path":"scale"
					}
				},
				{
					"sampler":42,
					"target":{
						"node":8,
						"path":"translation"
					}
				},
				{
					"sampler":43,
					"target":{
						"node":8,
						"path":"rotation"
					}
				},
				{
					"sampler":44,
					"target":{
						"node":8,
						"path":"scale"
					}
				}
			],
			"name":"Ripper_kill",
			"samplers":[
				{
					"input":7,
					"interpolation":"STEP",
					"output":8
				},
				{
					"input":9,
					"interpolation":"LINEAR",
					"output":10
				},
				{
					"input":7,
					"interpolation":"STEP",
					"output":11
				},
				{
					"input":7,
					"interpolation":"LINEAR",
					"output":12
				},
				{
					"input":9,
					"interpolation":"LINEAR",
					"output":13
				},
				{
					"input":7,
					"interpolation":"STEP",
					"output":14
				},
				{
					"input":7,
					"interpolation":"LINEAR",
					"output":15
				},
				{
					"input":9,
					"interpolation":"LINEAR",
					"output":16
				},
				{
					"input":7,
					"interpolation":"STEP",
					"output":17
				},
				{
					"input":7,
					"interpolation":"LINEAR",
					"output":18
				},
				{
					"input":9,
					"interpolation":"LINEAR",
					"output":19
				},
				{
					"input":7,
					"interpolation":"LINEAR",
					"output":20
				},
				{
					"input":7,
					"interpolation":"LINEAR",
					"output":21
				},
				{
					"input":9,
					"interpolation":"LINEAR",
					"output":22
				},
				{
					"input":7,
					"interpolation":"LINEAR",
					"output":23
				},
				{
					"input":7,
					"interpolation":"LINEAR",
					"output":24
				},
				{
					"input":9,
					"interpolation":"LINEAR",
					"output":25
				},
				{
					"input":7,
					"interpolation":"LINEAR",
					"output":26
				},
				{
					"input":7,
					"interpolation":"LINEAR",
					"output":27
				},
				{
					"input":9,
					"interpolation":"LINEAR",
					"output":28
				},
				{
					"input":7,
					"interpolation":"LINEAR",
					"output":29
				},
				{
					"input":7,
					"interpolation":"LINEAR",
					"output":30
				},
				{
					"input":9,
					"interpolation":"LINEAR",
					"output":31
				},
				{
					"input":7,
					"interpolation":"LINEAR",
					"output":32
				},
				{
					"input":7,
					"interpolation":"LINEAR",
					"output":33
				},
				{
					"input":9,
					"interpolation":"LINEAR",
					"output":34
				},
				{
					"input":7,
					"interpolation":"LINEAR",
					"output":35
				},
				{
					"input":7,
					"interpolation":"LINEAR",
					"output":36
				},
				{
					"input":9,
					"interpolation":"LINEAR",
					"output":37
				},
				{
					"input":7,
					"interpolation":"STEP",
					"output":38
				},
				{
					"input":7,
					"interpolation":"LINEAR",
					"output":39
				},
				{
					"input":9,
					"interpolation":"LINEAR",
					"output":40
				},
				{
					"input":7,
					"interpolation":"STEP",
					"output":41
				},
				{
					"input":7,
					"interpolation":"LINEAR",
					"output":42
				},
				{
					"input":9,
					"interpolation":"LINEAR",
					"output":43
				},
				{
					"input":7,
					"interpolation":"LINEAR",
					"output":44
				},
				{
					"input":7,
					"interpolation":"LINEAR",
					"output":45
				},
				{
					"input":9,
					"interpolation":"LINEAR",
					"output":46
				},
				{
					"input":7,
					"interpolation":"LINEAR",
					"output":47
				},
				{
					"input":7,
					"interpolation":"LINEAR",
					"output":48
				},
				{
					"input":9,
					"interpolation":"LINEAR",
					"output":49
				},
				{
					"input":7,
					"interpolation":"STEP",
					"output":50
				},
				{
					"input":7,
					"interpolation":"LINEAR",
					"output":51
				},
				{
					"input":9,
					"interpolation":"LINEAR",
					"output":52
				},
				{
					"input":7,
					"interpolation":"LINEAR",
					"output":53
				}
			]
		},
		{
			"channels":[
				{
					"sampler":0,
					"target":{
						"node":14,
						"path":"translation"
					}
				},
				{
					"sampler":1,
					"target":{
						"node":14,
						"path":"rotation"
					}
				},
				{
					"sampler":2,
					"target":{
						"node":14,
						"path":"scale"
					}
				},
				{
					"sampler":3,
					"target":{
						"node":13,
						"path":"translation"
					}
				},
				{
					"sampler":4,
					"target":{
						"node":13,
						"path":"rotation"
					}
				},
				{
					"sampler":5,
					"target":{
						"node":13,
						"path":"scale"
					}
				},
				{
					"sampler":6,
					"target":{
						"node":12,
						"path":"translation"
					}
				},
				{
					"sampler":7,
					"target":{
						"node":12,
						"path":"rotation"
					}
				},
				{
					"sampler":8,
					"target":{
						"node":12,
						"path":"scale"
					}
				},
				{
					"sampler":9,
					"target":{
						"node":11,
						"path":"translation"
					}
				},
				{
					"sampler":10,
					"target":{
						"node":11,
						"path":"rotation"
					}
				},
				{
					"sampler":11,
					"target":{
						"node":11,
						"path":"scale"
					}
				},
				{
					"sampler":12,
					"target":{
						"node":10,
						"path":"translation"
					}
				},
				{
					"sampler":13,
					"target":{
						"node":10,
						"path":"rotation"
					}
				},
				{
					"sampler":14,
					"target":{
						"node":10,
						"path":"scale"
					}
				},
				{
					"sampler":15,
					"target":{
						"node":1,
						"path":"translation"
					}
				},
				{
					"sampler":16,
					"target":{
						"node":1,
						"path":"rotation"
					}
				},
				{
					"sampler":17,
					"target":{
						"node":1,
						"path":"scale"
					}
				},
				{
					"sampler":18,
					"target":{
						"node":0,
						"path":"translation"
					}
				},
				{
					"sampler":19,
					"target":{
						"node":0,
						"path":"rotation"
					}
				},
				{
					"sampler":20,
					"target":{
						"node":0,
						"path":"scale"
					}
				},
				{
					"sampler":21,
					"target":{
						"node":3,
						"path":"translation"
					}
				},
				{
					"sampler":22,
					"target":{
						"node":3,
						"path":"rotation"
					}
				},
				{
					"sampler":23,
					"target":{
						"node":3,
						"path":"scale"
					}
				},
				{
					"sampler":24,
					"target":{
						"node":2,
						"path":"translation"
					}
				},
				{
					"sampler":25,
					"target":{
						"node":2,
						"path":"rotation"
					}
				},
				{
					"sampler":26,
					"target":{
						"node":2,
						"path":"scale"
					}
				},
				{
					"sampler":27,
					"target":{
						"node":5,
						"path":"translation"
					}
				},
				{
					"sampler":28,
					"target":{
						"node":5,
						"path":"rotation"
					}
				},
				{
					"sampler":29,
					"target":{
						"node":5,
						"path":"scale"
					}
				},
				{
					"sampler":30,
					"target":{
						"node":4,
						"path":"translation"
					}
				},
				{
					"sampler":31,
					"target":{
						"node":4,
						"path":"rotation"
					}
				},
				{
					"sampler":32,
					"target":{
						"node":4,
						"path":"scale"
					}
				},
				{
					"sampler":33,
					"target":{
						"node":7,
						"path":"translation"
					}
				},
				{
					"sampler":34,
					"target":{
						"node":7,
						"path":"rotation"
					}
				},
				{
					"sampler":35,
					"target":{
						"node":7,
						"path":"scale"
					}
				},
				{
					"sampler":36,
					"target":{
						"node":6,
						"path":"translation"
					}
				},
				{
					"sampler":37,
					"target":{
						"node":6,
						"path":"rotation"
					}
				},
				{
					"sampler":38,
					"target":{
						"node":6,
						"path":"scale"
					}
				},
				{
					"sampler":39,
					"target":{
						"node":9,
						"path":"translation"
					}
				},
				{
					"sampler":40,
					"target":{
						"node":9,
						"path":"rotation"
					}
				},
				{
					"sampler":41,
					"target":{
						"node":9,
						"path":"scale"
					}
				},
				{
					"sampler":42,
					"target":{
						"node":8,
						"path":"translation"
					}
				},
				{
					"sampler":43,
					"target":{
						"node":8,
						"path":"rotation"
					}
				},
				{
					"sampler":44,
					"target":{
						"node":8,
						"path":"scale"
					}
				}
			],
			"name":"Ripper_moving",
			"samplers":[
				{
					"input":54,
					"interpolation":"STEP",
					"output":8
				},
				{
					"input":55,
					"interpolation":"LINEAR",
					"output":56
				},
				{
					"input":54,
					"interpolation":"STEP",
					"output":57
				},
				{
					"input":54,
					"interpolation":"LINEAR",
					"output":58
				},
				{
					"input":55,
					"interpolation":"LINEAR",
					"output":59
				},
				{
					"input":54,
					"interpolation":"LINEAR",
					"output":60
				},
				{
					"input":54,
					"interpolation":"LINEAR",
					"output":61
				},
				{
					"input":55,
					"interpolation":"LINEAR",
					"output":62
				},
				{
					"input":54,
					"interpolation":"LINEAR",
					"output":63
				},
				{
					"input":54,
					"interpolation":"LINEAR",
					"output":64
				},
				{
					"input":55,
					"interpolation":"LINEAR",
					"output":65
				},
				{
					"input":54,
					"interpolation":"LINEAR",
					"output":66
				},
				{
					"input":54,
					"interpolation":"LINEAR",
					"output":67
				},
				{
					"input":55,
					"interpolation":"LINEAR",
					"output":68
				},
				{
					"input":54,
					"interpolation":"STEP",
					"output":69
				},
				{
					"input":54,
					"interpolation":"LINEAR",
					"output":70
				},
				{
					"input":55,
					"interpolation":"LINEAR",
					"output":71
				},
				{
					"input":54,
					"interpolation":"STEP",
					"output":72
				},
				{
					"input":54,
					"interpolation":"LINEAR",
					"output":73
				},
				{
					"input":55,
					"interpolation":"LINEAR",
					"output":74
				},
				{
					"input":54,
					"interpolation":"LINEAR",
					"output":75
				},
				{
					"input":54,
					"interpolation":"LINEAR",
					"output":76
				},
				{
					"input":55,
					"interpolation":"LINEAR",
					"output":77
				},
				{
					"input":54,
					"interpolation":"STEP",
					"output":78
				},
				{
					"input":54,
					"interpolation":"LINEAR",
					"output":79
				},
				{
					"input":55,
					"interpolation":"LINEAR",
					"output":80
				},
				{
					"input":54,
					"interpolation":"LINEAR",
					"output":81
				},
				{
					"input":54,
					"interpolation":"LINEAR",
					"output":82
				},
				{
					"input":55,
					"interpolation":"LINEAR",
					"output":83
				},
				{
					"input":54,
					"interpolation":"STEP",
					"output":84
				},
				{
					"input":54,
					"interpolation":"LINEAR",
					"output":85
				},
				{
					"input":55,
					"interpolation":"LINEAR",
					"output":86
				},
				{
					"input":54,
					"interpolation":"LINEAR",
					"output":87
				},
				{
					"input":54,
					"interpolation":"LINEAR",
					"output":88
				},
				{
					"input":55,
					"interpolation":"LINEAR",
					"output":89
				},
				{
					"input":54,
					"interpolation":"STEP",
					"output":90
				},
				{
					"input":54,
					"interpolation":"LINEAR",
					"output":91
				},
				{
					"input":55,
					"interpolation":"LINEAR",
					"output":92
				},
				{
					"input":54,
					"interpolation":"STEP",
					"output":93
				},
				{
					"input":54,
					"interpolation":"LINEAR",
					"output":94
				},
				{
					"input":55,
					"interpolation":"LINEAR",
					"output":95
				},
				{
					"input":54,
					"interpolation":"STEP",
					"output":96
				},
				{
					"input":54,
					"interpolation":"LINEAR",
					"output":97
				},
				{
					"input":55,
					"interpolation":"LINEAR",
					"output":98
				},
				{
					"input":54,
					"interpolation":"STEP",
					"output":99
				}
			]
		}
	],
	"materials":[
		{
			"doubleSided":true,
			"name":"Ripper.001",
			"pbrMetallicRoughness":{
				"baseColorTexture":{
					"index":0
				},
				"metallicFactor":0,
				"roughnessFactor":0.5
			}
		}
	],
	"meshes":[
		{
			"name":"\u041a\u0443\u0431.006",
			"primitives":[
				{
					"attributes":{
						"POSITION":0,
						"NORMAL":1,
						"TEXCOORD_0":2,
						"JOINTS_0":3,
						"WEIGHTS_0":4
					},
					"indices":5,
					"material":0
				}
			]
		}
	],
	"textures":[
		{
			"sampler":0,
			"source":0
		}
	],
	"images":[
		{
			"mimeType":"image/png",
			"name":"Ripper_txtr.001",
			"uri":"../../models/enemies/textures/Ripper_txtr.png"
		}
	],
	"skins":[
		{
			"inverseBindMatrices":6,
			"joints":[
				14,
				13,
				12,
				11,
				10,
				1,
				0,
				3,
				2,
				5,
				4,
				7,
				6,
				9,
				8
			],
			"name":"Ripper_skeleton"
		}
	],
	"accessors":[
		{
			"bufferView":0,
			"componentType":5126,
			"count":1018,
			"max":[
				-18.2984676361084,
				8.308149337768555,
				1.4462205171585083
			],
			"min":[
				-76.14307403564453,
				5.968635082244873,
				-1.0273855924606323
			],
			"type":"VEC3"
		},
		{
			"bufferView":1,
			"componentType":5126,
			"count":1018,
			"type":"VEC3"
		},
		{
			"bufferView":2,
			"componentType":5126,
			"count":1018,
			"type":"VEC2"
		},
		{
			"bufferView":3,
			"componentType":5121,
			"count":1018,
			"type":"VEC4"
		},
		{
			"bufferView":4,
			"componentType":5126,
			"count":1018,
			"type":"VEC4"
		},
		{
			"bufferView":5,
			"componentType":5123,
			"count":1518,
			"type":"SCALAR"
		},
		{
			"bufferView":6,
			"componentType":5126,
			"count":15,
			"type":"MAT4"
		},
		{
			"bufferView":7,
			"componentType":5126,
			"count":2,
			"max":[
				0.5
			],
			"min":[
				0.041666666666666664
			],
			"type":"SCALAR"
		},
		{
			"bufferView":8,
			"componentType":5126,
			"count":2,
			"type":"VEC3"
		},
		{
			"bufferView":9,
			"componentType":5126,
			"count":12,
			"max":[
				0.5
			],
			"min":[
				0.041666666666666664
			],
			"type":"SCALAR"
		},
		{
			"bufferView":10,
			"componentType":5126,
			"count":12,
			"type":"VEC4"
		},
		{
			"bufferView":11,
			"componentType":5126,
			"count":2,
			"type":"VEC3"
		},
		{
			"bufferView":12,
			"componentType":5126,
			"count":2,
			"type":"VEC3"
		},
		{
			"bufferView":13,
			"componentType":5126,
			"count":12,
			"type":"VEC4"
		},
		{
			"bufferView":14,
			"componentType":5126,
			"count":2,
			"type":"VEC3"
		},
		{
			"bufferView":15,
			"componentType":5126,
			"count":2,
			"type":"VEC3"
		},
		{
			"bufferView":16,
			"componentType":5126,
			"count":12,
			"type":"VEC4"
		},
		{
			"bufferView":17,
			"componentType":5126,
			"count":2,
			"type":"VEC3"
		},
		{
			"bufferView":18,
			"componentType":5126,
			"count":2,
			"type":"VEC3"
		},
		{
			"bufferView":19,
			"componentType":5126,
			"count":12,
			"type":"VEC4"
		},
		{
			"bufferView":20,
			"componentType":5126,
			"count":2,
			"type":"VEC3"
		},
		{
			"bufferView":21,
			"componentType":5126,
			"count":2,
			"type":"VEC3"
		},
		{
			"bufferView":22,
			"componentType":5126,
			"count":12,
			"type":"VEC4"
		},
		{
			"bufferView":23,
			"componentType":5126,
			"count":2,
			"type":"VEC3"
		},
		{
			"bufferView":24,
			"componentType":5126,
			"count":2,
			"type":"VEC3"
		},
		{
			"bufferView":25,
			"componentType":5126,
			"count":12,
			"type":"VEC4"
		},
		{
			"bufferView":26,
			"componentType":5126,
			"count":2,
			"type":"VEC3"
		},
		{
			"bufferView":27,
			"componentType":5126,
			"count":2,
			"type":"VEC3"
		},
		{
			"bufferView":28,
			"componentType":5126,
			"count":12,
			"type":"VEC4"
		},
		{
			"bufferView":29,
			"componentType":5126,
			"count":2,
			"type":"VEC3"
		},
		{
			"bufferView":30,
			"componentType":5126,
			"count":2,
			"type":"VEC3"
		},
		{
			"bufferView":31,
			"componentType":5126,
			"count":12,
			"type":"VEC4"
		},
		{
			"bufferView":32,
			"componentType":5126,
			"count":2,
			"type":"VEC3"
		},
		{
			"bufferView":33,
			"componentType":5126,
			"count":2,
			"type":"VEC3"
		},
		{
			"bufferView":34,
			"componentType":5126,
			"count":12,
			"type":"VEC4"
		},
		{
			"bufferView":35,
			"componentType":5126,
			"count":2,
			"type":"VEC3"
		},
		{
			"bufferView":36,
			"componentType":5126,
			"count":2,
			"type":"VEC3"
		},
		{
			"bufferView":37,
			"componentType":5126,
			"count":12,
			"type":"VEC4"
		},
		{
			"bufferView":38,
			"componentType":5126,
			"count":2,
			"type":"VEC3"
		},
		{
			"bufferView":39,
			"componentType":5126,
			"count":2,
			"type":"VEC3"
		},
		{
			"bufferView":40,
			"componentType":5126,
			"count":12,
			"type":"VEC4"
		},
		{
			"bufferView":41,
			"componentType":5126,
			"count":2,
			"type":"VEC3"
		},
		{
			"bufferView":42,
			"componentType":5126,
			"count":2,
			"type":"VEC3"
		},
		{
			"bufferView":43,
			"componentType":5126,
			"count":12,
			"type":"VEC4"
		},
		{
			"bufferView":44,
			"componentType":5126,
			"count":2,
			"type":"VEC3"
		},
		{
			"bufferView":45,
			"componentType":5126,
			"count":2,
			"type":"VEC3"
		},
		{
			"bufferView":46,
			"componentType":5126,
			"count":12,
			"type":"VEC4"
		},
		{
			"bufferView":47,
			"componentType":5126,
			"count":2,
			"type":"VEC3"
		},
		{
			"bufferView":48,
			"componentType":5126,
			"count":2,
			"type":"VEC3"
		},
		{
			"bufferView":49,
			"componentType":5126,
			"count":12,
			"type":"VEC4"
		},
		{
			"bufferView":50,
			"componentType":5126,
			"count":2,
			"type":"VEC3"
		},
		{
			"bufferView":51,
			"componentType":5126,
			"count":2,
			"type":"VEC3"
		},
		{
			"bufferView":52,
			"componentType":5126,
			"count":12,
			"type":"VEC4"
		},
		{
			"bufferView":53,
			"componentType":5126,
			"count":2,
			"type":"VEC3"
		},
		{
			"bufferView":54,
			"componentType":5126,
			"count":2,
			"max":[
				1
			],
			"min":[
				0.041666666666666664
			],
			"type":"SCALAR"
		},
		{
			"bufferView":55,
			"componentType":5126,
			"count":24,
			"max":[
				1
			],
			"min":[
				0.041666666666666664
			],
			"type":"SCALAR"
		},
		{
			"bufferView":56,
			"componentType":5126,
			"count":24,
			"type":"VEC4"
		},
		{
			"bufferView":57,
			"componentType":5126,
			"count":2,
			"type":"VEC3"
		},
		{
			"bufferView":58,
			"componentType":5126,
			"count":2,
			"type":"VEC3"
		},
		{
			"bufferView":59,
			"componentType":5126,
			"count":24,
			"type":"VEC4"
		},
		{
			"bufferView":60,
			"componentType":5126,
			"count":2,
			"type":"VEC3"
		},
		{
			"bufferView":61,
			"componentType":5126,
			"count":2,
			"type":"VEC3"
		},
		{
			"bufferView":62,
			"componentType":5126,
			"count":24,
			"type":"VEC4"
		},
		{
			"bufferView":63,
			"componentType":5126,
			"count":2,
			"type":"VEC3"
		},
		{
			"bufferView":64,
			"componentType":5126,
			"count":2,
			"type":"VEC3"
		},
		{
			"bufferView":65,
			"componentType":5126,
			"count":24,
			"type":"VEC4"
		},
		{
			"bufferView":66,
			"componentType":5126,
			"count":2,
			"type":"VEC3"
		},
		{
			"bufferView":67,
			"componentType":5126,
			"count":2,
			"type":"VEC3"
		},
		{
			"bufferView":68,
			"componentType":5126,
			"count":24,
			"type":"VEC4"
		},
		{
			"bufferView":69,
			"componentType":5126,
			"count":2,
			"type":"VEC3"
		},
		{
			"bufferView":70,
			"componentType":5126,
			"count":2,
			"type":"VEC3"
		},
		{
			"bufferView":71,
			"componentType":5126,
			"count":24,
			"type":"VEC4"
		},
		{
			"bufferView":72,
			"componentType":5126,
			"count":2,
			"type":"VEC3"
		},
		{
			"bufferView":73,
			"componentType":5126,
			"count":2,
			"type":"VEC3"
		},
		{
			"bufferView":74,
			"componentType":5126,
			"count":24,
			"type":"VEC4"
		},
		{
			"bufferView":75,
			"componentType":5126,
			"count":2,
			"type":"VEC3"
		},
		{
			"bufferView":76,
			"componentType":5126,
			"count":2,
			"type":"VEC3"
		},
		{
			"bufferView":77,
			"componentType":5126,
			"count":24,
			"type":"VEC4"
		},
		{
			"bufferView":78,
			"componentType":5126,
			"count":2,
			"type":"VEC3"
		},
		{
			"bufferView":79,
			"componentType":5126,
			"count":2,
			"type":"VEC3"
		},
		{
			"bufferView":80,
			"componentType":5126,
			"count":24,
			"type":"VEC4"
		},
		{
			"bufferView":81,
			"componentType":5126,
			"count":2,
			"type":"VEC3"
		},
		{
			"bufferView":82,
			"componentType":5126,
			"count":2,
			"type":"VEC3"
		},
		{
			"bufferView":83,
			"componentType":5126,
			"count":24,
			"type":"VEC4"
		},
		{
			"bufferView":84,
			"componentType":5126,
			"count":2,
			"type":"VEC3"
		},
		{
			"bufferView":85,
			"componentType":5126,
			"count":2,
			"type":"VEC3"
		},
		{
			"bufferView":86,
			"componentType":5126,
			"count":24,
			"type":"VEC4"
		},
		{
			"bufferView":87,
			"componentType":5126,
			"count":2,
			"type":"VEC3"
		},
		{
			"bufferView":88,
			"componentType":5126,
			"count":2,
			"type":"VEC3"
		},
		{
			"bufferView":89,
			"componentType":5126,
			"count":24,
			"type":"VEC4"
		},
		{
			"bufferView":90,
			"componentType":5126,
			"count":2,
			"type":"VEC3"
		},
		{
			"bufferView":91,
			"componentType":5126,
			"count":2,
			"type":"VEC3"
		},
		{
			"bufferView":92,
			"componentType":5126,
			"count":24,
			"type":"VEC4"
		},
		{
			"bufferView":93,
			"componentType":5126,
			"count":2,
			"type":"VEC3"
		},
		{
			"bufferView":94,
			"componentType":5126,
			"count":2,
			"type":"VEC3"
		},
		{
			"bufferView":95,
			"componentType":5126,
			"count":24,
			"type":"VEC4"
		},
		{
			"bufferView":96,
			"componentType":5126,
			"count":2,
			"type":"VEC3"
		},
		{
			"bufferView":97,
			"componentType":5126,
			"count":2,
			"type":"VEC3"
		},
		{
			"bufferView":98,
			"componentType":5126,
			"count":24,
			"type":"VEC4"
		},
		{
			"bufferView":99,
			"componentType":5126,
			"count":2,
			"type":"VEC3"
		}
	],
	"bufferViews":[
		{
			"buffer":0,
			"byteLength":12216,
			"byteOffset":0,
			"target":34962
		},
		{
			"buffer":0,
			"byteLength":12216,
			"byteOffset":12216,
			"target":34962
		},
		{
			"buffer":0,
			"byteLength":8144,
			"byteOffset":24432,
			"target":34962
		},
		{
			"buffer":0,
			"byteLength":4072,
			"byteOffset":32576,
			"target":34962
		},
		{
			"buffer":0,
			"byteLength":16288,
			"byteOffset":36648,
			"target":34962
		},
		{
			"buffer":0,
			"byteLength":3036,
			"byteOffset":52936,
			"target":34963
		},
		{
			"buffer":0,
			"byteLength":960,
			"byteOffset":55972
		},
		{
			"buffer":0,
			"byteLength":8,
			"byteOffset":56932
		},
		{
			"buffer":0,
			"byteLength":24,
			"byteOffset":56940
		},
		{
			"buffer":0,
			"byteLength":48,
			"byteOffset":56964
		},
		{
			"buffer":0,
			"byteLength":192,
			"byteOffset":57012
		},
		{
			"buffer":0,
			"byteLength":24,
			"byteOffset":57204
		},
		{
			"buffer":0,
			"byteLength":24,
			"byteOffset":57228
		},
		{
			"buffer":0,
			"byteLength":192,
			"byteOffset":57252
		},
		{
			"buffer":0,
			"byteLength":24,
			"byteOffset":57444
		},
		{
			"buffer":0,
			"byteLength":24,
			"byteOffset":57468
		},
		{
			"buffer":0,
			"byteLength":192,
			"byteOffset":57492
		},
		{
			"buffer":0,
			"byteLength":24,
			"byteOffset":57684
		},
		{
			"buffer":0,
			"byteLength":24,
			"byteOffset":57708
		},
		{
			"buffer":0,
			"byteLength":192,
			"byteOffset":57732
		},
		{
			"buffer":0,
			"byteLength":24,
			"byteOffset":57924
		},
		{
			"buffer":0,
			"byteLength":24,
			"byteOffset":57948
		},
		{
			"buffer":0,
			"byteLength":192,
			"byteOffset":57972
		},
		{
			"buffer":0,
			"byteLength":24,
			"byteOffset":58164
		},
		{
			"buffer":0,
			"byteLength":24,
			"byteOffset":58188
		},
		{
			"buffer":0,
			"byteLength":192,
			"byteOffset":58212
		},
		{
			"buffer":0,
			"byteLength":24,
			"byteOffset":58404
		},
		{
			"buffer":0,
			"byteLength":24,
			"byteOffset":58428
		},
		{
			"buffer":0,
			"byteLength":192,
			"byteOffset":58452
		},
		{
			"buffer":0,
			"byteLength":24,
			"byteOffset":58644
		},
		{
			"buffer":0,
			"byteLength":24,
			"byteOffset":58668
		},
		{
			"buffer":0,
			"byteLength":192,
			"byteOffset":58692
		},
		{
			"buffer":0,
			"byteLength":24,
			"byteOffset":58884
		},
		{
			"buffer":0,
			"byteLength":24,
			"byteOffset":58908
		},
		{
			"buffer":0,
			"byteLength":192,
			"byteOffset":58932
		},
		{
			"buffer":0,
			"byteLength":24,
			"byteOffset":59124
		},
		{
			"buffer":0,
			"byteLength":24,
			"byteOffset":59148
		},
		{
			"buffer":0,
			"byteLength":192,
			"byteOffset":59172
		},
		{
			"buffer":0,
			"byteLength":24,
			"byteOffset":59364
		},
		{
			"buffer":0,
			"byteLength":24,
			"byteOffset":59388
		},
		{
			"buffer":0,
			"byteLength":192,
			"byteOffset":59412
		},
		{
			"buffer":0,
			"byteLength":24,
			"byteOffset":59604
		},
		{
			"buffer":0,
			"byteLength":24,
			"byteOffset":59628
		},
		{
			"buffer":0,
			"byteLength":192,
			"byteOffset":59652
		},
		{
			"buffer":0,
			"byteLength":24,
			"byteOffset":59844
		},
		{
			"buffer":0,
			"byteLength":24,
			"byteOffset":59868
		},
		{
			"buffer":0,
			"byteLength":192,
			"byteOffset":59892
		},
		{
			"buffer":0,
			"byteLength":24,
			"byteOffset":60084
		},
		{
			"buffer":0,
			"byteLength":24,
			"byteOffset":60108
		},
		{
			"buffer":0,
			"byteLength":192,
			"byteOffset":60132
		},
		{
			"buffer":0,
			"byteLength":24,
			"byteOffset":60324
		},
		{
			"buffer":0,
			"byteLength":24,
			"byteOffset":60348
		},
		{
			"buffer":0,
			"byteLength":192,
			"byteOffset":60372
		},
		{
			"buffer":0,
			"byteLength":24,
			"byteOffset":60564
		},
		{
			"buffer":0,
			"byteLength":8,
			"byteOffset":60588
		},
		{
			"buffer":0,
			"byteLength":96,
			"byteOffset":60596
		},
		{
			"buffer":0,
			"byteLength":384,
			"byteOffset":60692
		},
		{
			"buffer":0,
			"byteLength":24,
			"byteOffset":61076
		},
		{
			"buffer":0,
			"byteLength":24,
			"byteOffset":61100
		},
		{
			"buffer":0,
			"byteLength":384,
			"byteOffset":61124
		},
		{
			"buffer":0,
			"byteLength":24,
			"byteOffset":61508
		},
		{
			"buffer":0,
			"byteLength":24,
			"byteOffset":61532
		},
		{
			"buffer":0,
			"byteLength":384,
			"byteOffset":61556
		},
		{
			"buffer":0,
			"byteLength":24,
			"byteOffset":61940
		},
		{
			"buffer":0,
			"byteLength":24,
			"byteOffset":61964
		},
		{
			"buffer":0,
			"byteLength":384,
			"byteOffset":61988
		},
		{
			"buffer":0,
			"byteLength":24,
			"byteOffset":62372
		},
		{
			"buffer":0,
			"byteLength":24,
			"byteOffset":62396
		},
		{
			"buffer":0,
			"byteLength":384,
			"byteOffset":62420
		},
		{
			"buffer":0,
			"byteLength":24,
			"byteOffset":62804
		},
		{
			"buffer":0,
			"byteLength":24,
			"byteOffset":62828
		},
		{
			"buffer":0,
			"byteLength":384,
			"byteOffset":62852
		},
		{
			"buffer":0,
			"byteLength":24,
			"byteOffset":63236
		},
		{
			"buffer":0,
			"byteLength":24,
			"byteOffset":63260
		},
		{
			"buffer":0,
			"byteLength":384,
			"byteOffset":63284
		},
		{
			"buffer":0,
			"byteLength":24,
			"byteOffset":63668
		},
		{
			"buffer":0,
			"byteLength":24,
			"byteOffset":63692
		},
		{
			"buffer":0,
			"byteLength":384,
			"byteOffset":63716
		},
		{
			"buffer":0,
			"byteLength":24,
			"byteOffset":64100
		},
		{
			"buffer":0,
			"byteLength":24,
			"byteOffset":64124
		},
		{
			"buffer":0,
			"byteLength":384,
			"byteOffset":64148
		},
		{
			"buffer":0,
			"byteLength":24,
			"byteOffset":64532
		},
		{
			"buffer":0,
			"byteLength":24,
			"byteOffset":64556
		},
		{
			"buffer":0,
			"byteLength":384,
			"byteOffset":64580
		},
		{
			"buffer":0,
			"byteLength":24,
			"byteOffset":64964
		},
		{
			"buffer":0,
			"byteLength":24,
			"byteOffset":64988
		},
		{
			"buffer":0,
			"byteLength":384,
			"byteOffset":65012
		},
		{
			"buffer":0,
			"byteLength":24,
			"byteOffset":65396
		},
		{
			"buffer":0,
			"byteLength":24,
			"byteOffset":65420
		},
		{
			"buffer":0,
			"byteLength":384,
			"byteOffset":65444
		},
		{
			"buffer":0,
			"byteLength":24,
			"byteOffset":65828
		},
		{
			"buffer":0,
			"byteLength":24,
			"byteOffset":65852
		},
		{
			"buffer":0,
			"byteLength":384,
			"byteOffset":65876
		},
		{
			"buffer":0,
			"byteLength":24,
			"byteOffset":66260
		},
		{
			"buffer":0,
			"byteLength":24,
			"byteOffset":66284
		},
		{
			"buffer":0,
			"byteLength":384,
			"byteOffset":66308
		},
		{
			"buffer":0,
			"byteLength":24,
			"byteOffset":66692
		},
		{
			"buffer":0,
			"byteLength":24,
			"byteOffset":66716
		},
		{
			"buffer":0,
			"byteLength":384,
			"byteOffset":66740
		},
		{
			"buffer":0,
			"byteLength":24,
			"byteOffset":67124
		}
	],
	"samplers":[
		{
			"magFilter":9729,
			"minFilter":9987
		}
	],
	"buffers":[
		{
			"byteLength":67148,
			"uri":"Ripper-3e89c78f55d73a87db497d316503af88.bin"
		}
	]
}
