{
	"asset":{
		"generator":"Khronos glTF Blender I/O v5.1.19",
		"version":"2.0"
	},
	"scene":0,
	"scenes":[
		{
			"name":"Scene",
			"nodes":[
				0,
				1
			]
		}
	],
	"nodes":[
		{
			"extras":{
				"asset_bridge":{}
			},
			"mesh":0,
			"name":"Whole_map.001",
			"rotation":[
				0,
				0.9805030226707458,
				0,
				0.1965039074420929
			],
			"scale":[
				6.3273115158081055,
				6.3273115158081055,
				6.3273115158081055
			],
			"translation":[
				-1.4687385559082031,
				6.307595729827881,
				-14.19295883178711
			]
		},
		{
			"extras":{
				"asset_bridge":{}
			},
			"mesh":1,
			"name":"Whole_map.002",
			"rotation":[
				0,
				0.9805030226707458,
				0,
				0.1965039074420929
			],
			"scale":[
				6.3273115158081055,
				6.3273115158081055,
				6.3273115158081055
			],
			"translation":[
				-1.4687385559082031,
				6.307595729827881,
				12.383071899414062
			]
		}
	],
	"materials":[
		{
			"doubleSided":true,
			"name":"\u041c\u0430\u0442\u0435\u0440\u0438\u0430\u043b.001",
			"pbrMetallicRoughness":{
				"baseColorTexture":{
					"index":0
				},
				"roughnessFactor":0.4590909481048584
			}
		},
		{
			"doubleSided":true,
			"name":"Material",
			"pbrMetallicRoughness":{
				"baseColorTexture":{
					"index":1
				},
				"roughnessFactor":0.4590909481048584
			}
		}
	],
	"meshes":[
		{
			"name":"\u041f\u043b\u043e\u0441\u043a\u043e\u0441\u0442\u044c.006",
			"primitives":[
				{
					"attributes":{
						"POSITION":0,
						"NORMAL":1,
						"TEXCOORD_0":2
					},
					"indices":3,
					"material":0
				}
			]
		},
		{
			"name":"\u041f\u043b\u043e\u0441\u043a\u043e\u0441\u0442\u044c.001",
			"primitives":[
				{
					"attributes":{
						"POSITION":4,
						"NORMAL":5,
						"TEXCOORD_0":6
					},
					"indices":3,
					"material":1
				}
			]
		}
	],
	"textures":[
		{
			"sampler":0,
			"source":0
		},
		{
			"sampler":0,
			"source":1
		}
	],
	"images":[
		{
			"mimeType":"image/png",
			"name":"Basin_pxl_txtr.png",
			"uri":"../../models/textures/Basin_pxl_txtr.png"
		},
		{
			"mimeType":"image/png",
			"name":"Basin_txtr.png",
			"uri":"../../models/textures/Basin_txtr.png"
		}
	],
	"accessors":[
		{
			"bufferView":0,
			"componentType":5126,
			"count":98,
			"max":[
				0.9749298095703125,
				1.2481149435043335,
				0.9504852294921875
			],
			"min":[
				-0.9749298095703125,
				-1,
				-0.9504852294921875
			],
			"type":"VEC3"
		},
		{
			"bufferView":1,
			"componentType":5126,
			"count":98,
			"type":"VEC3"
		},
		{
			"bufferView":2,
			"componentType":5126,
			"count":98,
			"type":"VEC2"
		},
		{
			"bufferView":3,
			"componentType":5123,
			"count":156,
			"type":"SCALAR"
		},
		{
			"bufferView":4,
			"componentType":5126,
			"count":98,
			"max":[
				0.9749298095703125,
				1.2481149435043335,
				0.9504852294921875
			],
			"min":[
				-0.9749298095703125,
				-1,
				-0.9504852294921875
			],
			"type":"VEC3"
		},
		{
			"bufferView":5,
			"componentType":5126,
			"count":98,
			"type":"VEC3"
		},
		{
			"bufferView":6,
			"componentType":5126,
			"count":98,
			"type":"VEC2"
		}
	],
	"bufferViews":[
		{
			"buffer":0,
			"byteLength":1176,
			"byteOffset":0,
			"target":34962
		},
		{
			"buffer":0,
			"byteLength":1176,
			"byteOffset":1176,
			"target":34962
		},
		{
			"buffer":0,
			"byteLength":784,
			"byteOffset":2352,
			"target":34962
		},
		{
			"buffer":0,
			"byteLength":312,
			"byteOffset":3136,
			"target":34963
		},
		{
			"buffer":0,
			"byteLength":1176,
			"byteOffset":3448,
			"target":34962
		},
		{
			"buffer":0,
			"byteLength":1176,
			"byteOffset":4624,
			"target":34962
		},
		{
			"buffer":0,
			"byteLength":784,
			"byteOffset":5800,
			"target":34962
		}
	],
	"samplers":[
		{
			"magFilter":9728,
			"minFilter":9984
		}
	],
	"buffers":[
		{
			"byteLength":6584,
			"uri":"Texture-112832f968bdbc57450cf553aace8a13.bin"
		}
	]
}
