{
	"asset":{
		"generator":"Khronos glTF Blender I/O v5.1.19",
		"version":"2.0"
	},
	"scene":0,
	"scenes":[
		{
			"extras":{
				"vr_landmarks":[
					{
						"type":0,
						"base_scale":1.0
					}
				],
				"td":{
					"units":0,
					"uv_space":"37.5000",
					"density":"0.640",
					"texture_size":0,
					"selected_faces":1,
					"checker_method":1,
					"checker_type":0,
					"checker_uv_scale":"1.0",
					"density_set":"1.28",
					"set_method":0,
					"rescale_anchor":0,
					"select_mode":0,
					"select_type":0,
					"select_value":"1.0",
					"select_threshold":"0.1",
					"bake_vc_mode":0,
					"bake_vc_auto_min_max":1,
					"bake_vc_min_td":"0.64",
					"bake_vc_max_td":"10.24",
					"bake_vc_show_gradient":0,
					"initialized":1
				}
			},
			"name":"Scene",
			"nodes":[
				0,
				1,
				2,
				3,
				4,
				5,
				6,
				7,
				8,
				9,
				10,
				11
			]
		}
	],
	"nodes":[
		{
			"extras":{
				"asset_bridge":{}
			},
			"mesh":0,
			"name":"big_L_tube",
			"rotation":[
				0.7071068286895752,
				0,
				0,
				0.7071068286895752
			]
		},
		{
			"extras":{
				"asset_bridge":{}
			},
			"mesh":1,
			"name":"valve_base",
			"translation":[
				5.582610607147217,
				0,
				1.7407026290893555
			]
		},
		{
			"extras":{
				"asset_bridge":{}
			},
			"mesh":2,
			"name":"valve",
			"translation":[
				5.582610130310059,
				0.0621887743473053,
				1.7407026290893555
			]
		},
		{
			"extras":{
				"asset_bridge":{}
			},
			"mesh":3,
			"name":"small_X_tube",
			"translation":[
				7.193200588226318,
				0.062189213931560516,
				-7.535093307495117
			]
		},
		{
			"extras":{
				"asset_bridge":{}
			},
			"mesh":4,
			"name":"big_tube",
			"translation":[
				5.007648944854736,
				0,
				-1.1052664518356323
			]
		},
		{
			"extras":{
				"asset_bridge":{}
			},
			"mesh":5,
			"name":"big_T_tube",
			"translation":[
				10.036381721496582,
				0,
				-0.4913753569126129
			]
		},
		{
			"extras":{
				"asset_bridge":{}
			},
			"mesh":6,
			"name":"big_X_tube",
			"translation":[
				15.005301475524902,
				0,
				-1.1046087741851807
			]
		},
		{
			"extras":{
				"asset_bridge":{}
			},
			"mesh":7,
			"name":"small_pane_group_tube",
			"translation":[
				-6.087976455688477,
				0.07044162601232529,
				-6.009216785430908
			]
		},
		{
			"extras":{
				"asset_bridge":{}
			},
			"mesh":8,
			"name":"small_group_tube",
			"translation":[
				-3.086394786834717,
				0.062188711017370224,
				-6.010043621063232
			]
		},
		{
			"extras":{
				"asset_bridge":{}
			},
			"mesh":9,
			"name":"small_tube",
			"translation":[
				-0.8162599802017212,
				0.0621887668967247,
				-6.005477428436279
			]
		},
		{
			"extras":{
				"asset_bridge":{}
			},
			"mesh":10,
			"name":"small_L_tube",
			"translation":[
				1.0557074546813965,
				0.062188804149627686,
				-7.311440467834473
			]
		},
		{
			"extras":{
				"asset_bridge":{}
			},
			"mesh":11,
			"name":"small_T_tube",
			"translation":[
				3.004432439804077,
				0.062188975512981415,
				-5.852297306060791
			]
		}
	],
	"meshes":[
		{
			"name":"\u0426\u0438\u043b\u0438\u043d\u0434\u0440.001",
			"primitives":[
				{
					"attributes":{
						"POSITION":0,
						"NORMAL":1,
						"TEXCOORD_0":2
					},
					"indices":3
				}
			]
		},
		{
			"name":"\u0426\u0438\u043b\u0438\u043d\u0434\u0440.002",
			"primitives":[
				{
					"attributes":{
						"POSITION":4,
						"NORMAL":5,
						"TEXCOORD_0":6
					},
					"indices":7
				}
			]
		},
		{
			"name":"\u0426\u0438\u043b\u0438\u043d\u0434\u0440.003",
			"primitives":[
				{
					"attributes":{
						"POSITION":8,
						"NORMAL":9,
						"TEXCOORD_0":10
					},
					"indices":11
				}
			]
		},
		{
			"name":"\u0426\u0438\u043b\u0438\u043d\u0434\u0440.005",
			"primitives":[
				{
					"attributes":{
						"POSITION":12,
						"NORMAL":13,
						"TEXCOORD_0":14
					},
					"indices":15
				}
			]
		},
		{
			"name":"\u0426\u0438\u043b\u0438\u043d\u0434\u0440.006",
			"primitives":[
				{
					"attributes":{
						"POSITION":16,
						"NORMAL":17,
						"TEXCOORD_0":18
					},
					"indices":19
				}
			]
		},
		{
			"name":"\u0426\u0438\u043b\u0438\u043d\u0434\u0440.007",
			"primitives":[
				{
					"attributes":{
						"POSITION":20,
						"NORMAL":21,
						"TEXCOORD_0":22
					},
					"indices":23
				}
			]
		},
		{
			"name":"\u0426\u0438\u043b\u0438\u043d\u0434\u0440.008",
			"primitives":[
				{
					"attributes":{
						"POSITION":24,
						"NORMAL":25,
						"TEXCOORD_0":26
					},
					"indices":27
				}
			]
		},
		{
			"name":"\u0426\u0438\u043b\u0438\u043d\u0434\u0440.009",
			"primitives":[
				{
					"attributes":{
						"POSITION":28,
						"NORMAL":29,
						"TEXCOORD_0":30
					},
					"indices":31
				}
			]
		},
		{
			"name":"\u0426\u0438\u043b\u0438\u043d\u0434\u0440.010",
			"primitives":[
				{
					"attributes":{
						"POSITION":32,
						"NORMAL":33,
						"TEXCOORD_0":34
					},
					"indices":35
				}
			]
		},
		{
			"name":"\u0426\u0438\u043b\u0438\u043d\u0434\u0440.011",
			"primitives":[
				{
					"attributes":{
						"POSITION":36,
						"NORMAL":37,
						"TEXCOORD_0":38
					},
					"indices":39
				}
			]
		},
		{
			"name":"\u0426\u0438\u043b\u0438\u043d\u0434\u0440.012",
			"primitives":[
				{
					"attributes":{
						"POSITION":40,
						"NORMAL":41,
						"TEXCOORD_0":42
					},
					"indices":43
				}
			]
		},
		{
			"name":"\u0426\u0438\u043b\u0438\u043d\u0434\u0440.013",
			"primitives":[
				{
					"attributes":{
						"POSITION":44,
						"NORMAL":45,
						"TEXCOORD_0":46
					},
					"indices":47
				}
			]
		}
	],
	"accessors":[
		{
			"bufferView":0,
			"componentType":5126,
			"count":216,
			"max":[
				2.0217251777648926,
				1.9329167604446411,
				1.1859970092773438
			],
			"min":[
				-2.151451826095581,
				-2.1339001655578613,
				-1.1859970092773438
			],
			"type":"VEC3"
		},
		{
			"bufferView":1,
			"componentType":5126,
			"count":216,
			"type":"VEC3"
		},
		{
			"bufferView":2,
			"componentType":5126,
			"count":216,
			"type":"VEC2"
		},
		{
			"bufferView":3,
			"componentType":5123,
			"count":348,
			"type":"SCALAR"
		},
		{
			"bufferView":4,
			"componentType":5126,
			"count":36,
			"max":[
				0.20782756805419922,
				0.0621887668967247,
				0.23997950553894043
			],
			"min":[
				-0.20782947540283203,
				-0.0621887668967247,
				-0.23997950553894043
			],
			"type":"VEC3"
		},
		{
			"bufferView":5,
			"componentType":5126,
			"count":36,
			"type":"VEC3"
		},
		{
			"bufferView":6,
			"componentType":5126,
			"count":36,
			"type":"VEC2"
		},
		{
			"bufferView":7,
			"componentType":5123,
			"count":60,
			"type":"SCALAR"
		},
		{
			"bufferView":8,
			"componentType":5126,
			"count":30,
			"max":[
				0.31771135330200195,
				0.479435533285141,
				0.366863489151001
			],
			"min":[
				-0.3177146911621094,
				0,
				-0.366863489151001
			],
			"type":"VEC3"
		},
		{
			"bufferView":9,
			"componentType":5126,
			"count":30,
			"type":"VEC3"
		},
		{
			"bufferView":10,
			"componentType":5126,
			"count":30,
			"type":"VEC2"
		},
		{
			"bufferView":11,
			"componentType":5123,
			"count":48,
			"type":"SCALAR"
		},
		{
			"bufferView":12,
			"componentType":5126,
			"count":96,
			"max":[
				2.0045266151428223,
				0.1787550449371338,
				2.004523277282715
			],
			"min":[
				-2.004521369934082,
				-0.17875510454177856,
				-2.0045251846313477
			],
			"type":"VEC3"
		},
		{
			"bufferView":13,
			"componentType":5126,
			"count":96,
			"type":"VEC3"
		},
		{
			"bufferView":14,
			"componentType":5126,
			"count":96,
			"type":"VEC2"
		},
		{
			"bufferView":15,
			"componentType":5123,
			"count":168,
			"type":"SCALAR"
		},
		{
			"bufferView":16,
			"componentType":5126,
			"count":104,
			"max":[
				2.0615506172180176,
				1.1859967708587646,
				1.0255730152130127
			],
			"min":[
				-2.0696918964385986,
				-1.1859970092773438,
				-1.028633713722229
			],
			"type":"VEC3"
		},
		{
			"bufferView":17,
			"componentType":5126,
			"count":104,
			"type":"VEC3"
		},
		{
			"bufferView":18,
			"componentType":5126,
			"count":104,
			"type":"VEC2"
		},
		{
			"bufferView":19,
			"componentType":5123,
			"count":168,
			"type":"SCALAR"
		},
		{
			"bufferView":20,
			"componentType":5126,
			"count":172,
			"max":[
				2.089674949645996,
				1.1859967708587646,
				1.5532060861587524
			],
			"min":[
				-2.041566848754883,
				-1.1859970092773438,
				-1.6425248384475708
			],
			"type":"VEC3"
		},
		{
			"bufferView":21,
			"componentType":5126,
			"count":172,
			"type":"VEC3"
		},
		{
			"bufferView":22,
			"componentType":5126,
			"count":172,
			"type":"VEC2"
		},
		{
			"bufferView":23,
			"componentType":5123,
			"count":276,
			"type":"SCALAR"
		},
		{
			"bufferView":24,
			"componentType":5126,
			"count":240,
			"max":[
				2.1013879776000977,
				1.1859967708587646,
				2.1664395332336426
			],
			"min":[
				-2.029852867126465,
				-1.1859970092773438,
				-2.165499448776245
			],
			"type":"VEC3"
		},
		{
			"bufferView":25,
			"componentType":5126,
			"count":240,
			"type":"VEC3"
		},
		{
			"bufferView":26,
			"componentType":5126,
			"count":240,
			"type":"VEC2"
		},
		{
			"bufferView":27,
			"componentType":5123,
			"count":384,
			"type":"SCALAR"
		},
		{
			"bufferView":28,
			"componentType":5126,
			"count":292,
			"max":[
				1.0871243476867676,
				0.19807171821594238,
				2.0036940574645996
			],
			"min":[
				-1.0876431465148926,
				-0.18700823187828064,
				-2.0053534507751465
			],
			"type":"VEC3"
		},
		{
			"bufferView":29,
			"componentType":5126,
			"count":292,
			"type":"VEC3"
		},
		{
			"bufferView":30,
			"componentType":5126,
			"count":292,
			"type":"VEC2"
		},
		{
			"bufferView":31,
			"componentType":5123,
			"count":510,
			"type":"SCALAR"
		},
		{
			"bufferView":32,
			"componentType":5126,
			"count":288,
			"max":[
				1.080091953277588,
				0.178754985332489,
				2.004520893096924
			],
			"min":[
				-1.0769667625427246,
				-0.1787550002336502,
				-2.0045266151428223
			],
			"type":"VEC3"
		},
		{
			"bufferView":33,
			"componentType":5126,
			"count":288,
			"type":"VEC3"
		},
		{
			"bufferView":34,
			"componentType":5126,
			"count":288,
			"type":"VEC2"
		},
		{
			"bufferView":35,
			"componentType":5123,
			"count":504,
			"type":"SCALAR"
		},
		{
			"bufferView":36,
			"componentType":5126,
			"count":48,
			"max":[
				0.1787550449371338,
				0.17875492572784424,
				2.0045242309570312
			],
			"min":[
				-0.1787548065185547,
				-0.17875492572784424,
				-2.004523754119873
			],
			"type":"VEC3"
		},
		{
			"bufferView":37,
			"componentType":5126,
			"count":48,
			"type":"VEC3"
		},
		{
			"bufferView":38,
			"componentType":5126,
			"count":48,
			"type":"VEC2"
		},
		{
			"bufferView":39,
			"componentType":5123,
			"count":84,
			"type":"SCALAR"
		},
		{
			"bufferView":40,
			"componentType":5126,
			"count":132,
			"max":[
				3.309986114501953,
				0.17875529825687408,
				3.3104872703552246
			],
			"min":[
				-1.0577895641326904,
				-0.17875505983829498,
				-1.0582895278930664
			],
			"type":"VEC3"
		},
		{
			"bufferView":41,
			"componentType":5126,
			"count":132,
			"type":"VEC3"
		},
		{
			"bufferView":42,
			"componentType":5126,
			"count":132,
			"type":"VEC2"
		},
		{
			"bufferView":43,
			"componentType":5123,
			"count":228,
			"type":"SCALAR"
		},
		{
			"bufferView":44,
			"componentType":5126,
			"count":96,
			"max":[
				2.0045249462127686,
				0.17875495553016663,
				2.970977783203125
			],
			"min":[
				-2.004523277282715,
				-0.17875507473945618,
				-1.145209789276123
			],
			"type":"VEC3"
		},
		{
			"bufferView":45,
			"componentType":5126,
			"count":96,
			"type":"VEC3"
		},
		{
			"bufferView":46,
			"componentType":5126,
			"count":96,
			"type":"VEC2"
		},
		{
			"bufferView":47,
			"componentType":5123,
			"count":168,
			"type":"SCALAR"
		}
	],
	"bufferViews":[
		{
			"buffer":0,
			"byteLength":2592,
			"byteOffset":0,
			"target":34962
		},
		{
			"buffer":0,
			"byteLength":2592,
			"byteOffset":2592,
			"target":34962
		},
		{
			"buffer":0,
			"byteLength":1728,
			"byteOffset":5184,
			"target":34962
		},
		{
			"buffer":0,
			"byteLength":696,
			"byteOffset":6912,
			"target":34963
		},
		{
			"buffer":0,
			"byteLength":432,
			"byteOffset":7608,
			"target":34962
		},
		{
			"buffer":0,
			"byteLength":432,
			"byteOffset":8040,
			"target":34962
		},
		{
			"buffer":0,
			"byteLength":288,
			"byteOffset":8472,
			"target":34962
		},
		{
			"buffer":0,
			"byteLength":120,
			"byteOffset":8760,
			"target":34963
		},
		{
			"buffer":0,
			"byteLength":360,
			"byteOffset":8880,
			"target":34962
		},
		{
			"buffer":0,
			"byteLength":360,
			"byteOffset":9240,
			"target":34962
		},
		{
			"buffer":0,
			"byteLength":240,
			"byteOffset":9600,
			"target":34962
		},
		{
			"buffer":0,
			"byteLength":96,
			"byteOffset":9840,
			"target":34963
		},
		{
			"buffer":0,
			"byteLength":1152,
			"byteOffset":9936,
			"target":34962
		},
		{
			"buffer":0,
			"byteLength":1152,
			"byteOffset":11088,
			"target":34962
		},
		{
			"buffer":0,
			"byteLength":768,
			"byteOffset":12240,
			"target":34962
		},
		{
			"buffer":0,
			"byteLength":336,
			"byteOffset":13008,
			"target":34963
		},
		{
			"buffer":0,
			"byteLength":1248,
			"byteOffset":13344,
			"target":34962
		},
		{
			"buffer":0,
			"byteLength":1248,
			"byteOffset":14592,
			"target":34962
		},
		{
			"buffer":0,
			"byteLength":832,
			"byteOffset":15840,
			"target":34962
		},
		{
			"buffer":0,
			"byteLength":336,
			"byteOffset":16672,
			"target":34963
		},
		{
			"buffer":0,
			"byteLength":2064,
			"byteOffset":17008,
			"target":34962
		},
		{
			"buffer":0,
			"byteLength":2064,
			"byteOffset":19072,
			"target":34962
		},
		{
			"buffer":0,
			"byteLength":1376,
			"byteOffset":21136,
			"target":34962
		},
		{
			"buffer":0,
			"byteLength":552,
			"byteOffset":22512,
			"target":34963
		},
		{
			"buffer":0,
			"byteLength":2880,
			"byteOffset":23064,
			"target":34962
		},
		{
			"buffer":0,
			"byteLength":2880,
			"byteOffset":25944,
			"target":34962
		},
		{
			"buffer":0,
			"byteLength":1920,
			"byteOffset":28824,
			"target":34962
		},
		{
			"buffer":0,
			"byteLength":768,
			"byteOffset":30744,
			"target":34963
		},
		{
			"buffer":0,
			"byteLength":3504,
			"byteOffset":31512,
			"target":34962
		},
		{
			"buffer":0,
			"byteLength":3504,
			"byteOffset":35016,
			"target":34962
		},
		{
			"buffer":0,
			"byteLength":2336,
			"byteOffset":38520,
			"target":34962
		},
		{
			"buffer":0,
			"byteLength":1020,
			"byteOffset":40856,
			"target":34963
		},
		{
			"buffer":0,
			"byteLength":3456,
			"byteOffset":41876,
			"target":34962
		},
		{
			"buffer":0,
			"byteLength":3456,
			"byteOffset":45332,
			"target":34962
		},
		{
			"buffer":0,
			"byteLength":2304,
			"byteOffset":48788,
			"target":34962
		},
		{
			"buffer":0,
			"byteLength":1008,
			"byteOffset":51092,
			"target":34963
		},
		{
			"buffer":0,
			"byteLength":576,
			"byteOffset":52100,
			"target":34962
		},
		{
			"buffer":0,
			"byteLength":576,
			"byteOffset":52676,
			"target":34962
		},
		{
			"buffer":0,
			"byteLength":384,
			"byteOffset":53252,
			"target":34962
		},
		{
			"buffer":0,
			"byteLength":168,
			"byteOffset":53636,
			"target":34963
		},
		{
			"buffer":0,
			"byteLength":1584,
			"byteOffset":53804,
			"target":34962
		},
		{
			"buffer":0,
			"byteLength":1584,
			"byteOffset":55388,
			"target":34962
		},
		{
			"buffer":0,
			"byteLength":1056,
			"byteOffset":56972,
			"target":34962
		},
		{
			"buffer":0,
			"byteLength":456,
			"byteOffset":58028,
			"target":34963
		},
		{
			"buffer":0,
			"byteLength":1152,
			"byteOffset":58484,
			"target":34962
		},
		{
			"buffer":0,
			"byteLength":1152,
			"byteOffset":59636,
			"target":34962
		},
		{
			"buffer":0,
			"byteLength":768,
			"byteOffset":60788,
			"target":34962
		},
		{
			"buffer":0,
			"byteLength":336,
			"byteOffset":61556,
			"target":34963
		}
	],
	"buffers":[
		{
			"byteLength":61892,
			"uri":"Tubes-931ec071faa3236bf84db7cc1f3ef881.bin"
		}
	]
}
